<?xml version="1.0" encoding="utf-8"?>
<!-- Generator: Adobe Illustrator 16.0.0, SVG Export Plug-In . SVG Version: 6.00 Build 0)  -->
<!DOCTYPE svg PUBLIC "-//W3C//DTD SVG 1.0//EN" "http://www.w3.org/TR/2001/REC-SVG-20010904/DTD/svg10.dtd">
<svg version="1.0" id="Isolation_Mode" xmlns="http://www.w3.org/2000/svg" xmlns:xlink="http://www.w3.org/1999/xlink" x="0px"
	 y="0px" width="33px" height="33px" viewBox="0 0 33 33" enable-background="new 0 0 33 33" xml:space="preserve">
<path fill="#FFCC00" d="M15.416,24.965c-0.384,0-0.756-0.148-1.037-0.416l-6.985-6.677c-0.599-0.573-0.621-1.522-0.048-2.121
	c0.572-0.599,1.522-0.621,2.121-0.048l5.753,5.499l7.978-10.826c0.492-0.668,1.432-0.809,2.097-0.318
	c0.667,0.491,0.81,1.43,0.318,2.097l-8.989,12.2c-0.256,0.347-0.649,0.567-1.079,0.605C15.502,24.963,15.459,24.965,15.416,24.965"
	/>
<path fill="#FFFFFF" d="M16.5,33C7.402,33,0,25.598,0,16.5S7.402,0,16.5,0S33,7.402,33,16.5S25.598,33,16.5,33 M16.5,3
	C9.056,3,3,9.056,3,16.5S9.056,30,16.5,30S30,23.944,30,16.5S23.944,3,16.5,3"/>
</svg>
