<?xml version="1.0" encoding="utf-8"?>
<!-- Generator: Adobe Illustrator 16.0.0, SVG Export Plug-In . SVG Version: 6.00 Build 0)  -->
<!DOCTYPE svg PUBLIC "-//W3C//DTD SVG 1.1//EN" "http://www.w3.org/Graphics/SVG/1.1/DTD/svg11.dtd">
<svg version="1.1" id="Layer_1" xmlns="http://www.w3.org/2000/svg" xmlns:xlink="http://www.w3.org/1999/xlink" x="0px" y="0px"
	 width="45.833px" height="29.938px" viewBox="0 0 45.833 29.938" enable-background="new 0 0 45.833 29.938" xml:space="preserve">
<rect y="0" fill="#F1F1F1" width="45.833" height="29.938"/>
<g>
	<path fill="#B5B5B5" d="M30.782,5.662h-5.236c0-0.723-0.587-1.309-1.308-1.309h-2.619c-0.724,0-1.31,0.586-1.31,1.309h-5.236
		c-0.723,0-1.309,0.585-1.309,1.309v2.618c0,0.362,0.292,0.655,0.654,0.655h0.655V23.99c0,0.722,0.586,1.309,1.309,1.309h13.091
		c0.724,0,1.309-0.587,1.309-1.309V10.244h0.655c0.361,0,0.654-0.292,0.654-0.655V6.971C32.091,6.248,31.506,5.662,30.782,5.662z
		 M29.473,23.334c0,0.362-0.293,0.656-0.653,0.656H17.037c-0.362,0-0.655-0.294-0.655-0.656v-13.09h13.091V23.334z M15.073,8.935
		v-1.31c0-0.362,0.292-0.654,0.654-0.654h5.892V6.317c0-0.362,0.292-0.654,0.654-0.654h1.31c0.361,0,0.655,0.292,0.655,0.654v0.655
		h5.89c0.361,0,0.654,0.292,0.654,0.654v1.31H15.073z"/>
	<path fill="#B5B5B5" d="M20.964,20.717c0.361,0,0.654-0.293,0.654-0.654v-5.892c0-0.361-0.293-0.654-0.654-0.654
		c-0.362,0-0.655,0.292-0.655,0.654v5.892C20.309,20.424,20.603,20.717,20.964,20.717z"/>
	<path fill="#B5B5B5" d="M24.891,20.717c0.362,0,0.654-0.293,0.654-0.654v-5.892c0-0.361-0.292-0.654-0.654-0.654
		c-0.361,0-0.653,0.292-0.653,0.654v5.892C24.238,20.424,24.53,20.717,24.891,20.717z"/>
</g>
</svg>
