<?xml version="1.0" encoding="utf-8"?>
<!-- Generator: Adobe Illustrator 16.0.0, SVG Export Plug-In . SVG Version: 6.00 Build 0)  -->
<!DOCTYPE svg PUBLIC "-//W3C//DTD SVG 1.1//EN" "http://www.w3.org/Graphics/SVG/1.1/DTD/svg11.dtd">
<svg version="1.1" id="Layer_1" xmlns="http://www.w3.org/2000/svg" xmlns:xlink="http://www.w3.org/1999/xlink" x="0px" y="0px"
	 width="20px" height="20px" viewBox="0 0 20 20" enable-background="new 0 0 20 20" xml:space="preserve">
<circle fill="#E54F9C" cx="10" cy="10" r="9"/>
<circle fill="#E54F9C" cx="10" cy="10" r="9"/>
<path fill="#FFFFFF" d="M6.072,9.703v5.357h7.996V5.064h-3.679c-0.264,0-0.479-0.215-0.479-0.479c0-0.264,0.216-0.479,0.479-0.479
	h4.158c0.264,0,0.479,0.216,0.479,0.479v10.954c0,0.265-0.216,0.48-0.479,0.48H5.592c-0.265,0-0.48-0.216-0.48-0.48V9.703
	c0-0.264,0.216-0.48,0.48-0.48C5.856,9.222,6.072,9.439,6.072,9.703L6.072,9.703z"/>
<path fill="#FFFFFF" d="M8.882,4.515c-0.199-0.177-0.503-0.16-0.68,0.039L5.572,7.481L4.253,6.209
	c-0.192-0.184-0.496-0.176-0.68,0.017c-0.185,0.191-0.176,0.495,0.016,0.68l1.68,1.615c0.088,0.088,0.207,0.136,0.335,0.136h0.017
	c0.128-0.008,0.256-0.064,0.336-0.16l2.958-3.294C9.098,4.995,9.083,4.691,8.882,4.515L8.882,4.515z"/>
<path fill="#FFFFFF" d="M7.831,13.22h4.317c0.265,0,0.48-0.216,0.48-0.479s-0.216-0.479-0.48-0.479H7.831
	c-0.264,0-0.479,0.216-0.479,0.479S7.567,13.22,7.831,13.22L7.831,13.22z"/>
<path fill="#FFFFFF" d="M7.351,10.102c0,0.264,0.216,0.479,0.479,0.479h4.317c0.265,0,0.48-0.216,0.48-0.479s-0.216-0.48-0.48-0.48
	H7.831C7.567,9.622,7.351,9.838,7.351,10.102L7.351,10.102z"/>
<path fill="#FFFFFF" d="M12.148,8.023c0.265,0,0.48-0.216,0.48-0.479s-0.216-0.479-0.48-0.479H9.283
	c-0.264,0-0.479,0.216-0.479,0.479s0.216,0.479,0.479,0.479H12.148z"/>
</svg>
