<?xml version="1.0" encoding="utf-8"?>
<!-- Generator: Adobe Illustrator 16.0.0, SVG Export Plug-In . SVG Version: 6.00 Build 0)  -->
<!DOCTYPE svg PUBLIC "-//W3C//DTD SVG 1.1//EN" "http://www.w3.org/Graphics/SVG/1.1/DTD/svg11.dtd">
<svg version="1.1" id="Layer_1" xmlns="http://www.w3.org/2000/svg" xmlns:xlink="http://www.w3.org/1999/xlink" x="0px" y="0px"
	 width="30px" height="30px" viewBox="0 0 30 30" enable-background="new 0 0 30 30" xml:space="preserve">
<g id="_x37__17_">
	<g>
		<path fill="#5A6F8A" d="M20.484,9.195h6.269c0.433,0,0.784-0.351,0.784-0.784c0-0.432-0.352-0.783-0.784-0.783h-6.269
			c-0.433,0-0.783,0.351-0.783,0.783C19.701,8.844,20.052,9.195,20.484,9.195z M16.529,15.739c1.002-1.354,1.605-3.087,1.605-4.978
			c0-4.327-3.158-7.835-7.052-7.835c-3.895,0-7.052,3.508-7.052,7.835c0,1.891,0.603,3.624,1.605,4.978
			c-1.841,0.637-3.172,2.366-3.172,4.425v3.135C2.464,25.895,4.569,28,7.165,28H15c2.596,0,4.701-2.105,4.701-4.701v-3.135
			C19.701,18.105,18.37,16.376,16.529,15.739z M5.598,10.762c0-3.461,2.455-6.268,5.484-6.268s5.485,2.807,5.485,6.268
			c0,3.462-2.456,6.269-5.485,6.269S5.598,14.224,5.598,10.762z M18.135,22.906c0,1.948-1.723,3.525-3.847,3.525h-6.41
			c-2.124,0-3.847-1.577-3.847-3.525v-2.351c0-1.665,1.264-3.053,2.958-3.421c1.156,0.916,2.566,1.463,4.094,1.463
			s2.938-0.547,4.093-1.463c1.694,0.368,2.959,1.756,2.959,3.421V22.906z M26.753,12.329h-6.269c-0.433,0-0.783,0.351-0.783,0.783
			s0.351,0.784,0.783,0.784h6.269c0.433,0,0.784-0.352,0.784-0.784S27.186,12.329,26.753,12.329z M26.753,21.73h-4.701
			c-0.433,0-0.784,0.353-0.784,0.784c0,0.433,0.352,0.784,0.784,0.784h4.701c0.433,0,0.784-0.352,0.784-0.784
			C27.537,22.083,27.186,21.73,26.753,21.73z M26.753,17.03h-4.701c-0.433,0-0.784,0.351-0.784,0.783s0.352,0.784,0.784,0.784h4.701
			c0.433,0,0.784-0.352,0.784-0.784S27.186,17.03,26.753,17.03z"/>
	</g>
</g>
</svg>
