<?xml version="1.0" encoding="utf-8"?>
<!-- Generator: Adobe Illustrator 16.0.0, SVG Export Plug-In . SVG Version: 6.00 Build 0)  -->
<!DOCTYPE svg PUBLIC "-//W3C//DTD SVG 1.1//EN" "http://www.w3.org/Graphics/SVG/1.1/DTD/svg11.dtd">
<svg version="1.1" id="Layer_1" xmlns="http://www.w3.org/2000/svg" xmlns:xlink="http://www.w3.org/1999/xlink" x="0px" y="0px"
	 width="30px" height="30px" viewBox="0 0 30 30" enable-background="new 0 0 30 30" xml:space="preserve">
<g id="_x31_0_20_">
	<g>
		<path fill="#5A6F8A" d="M24.059,1.812H5.744c-1.839,0-3.33,1.491-3.33,3.33V25.12c0,1.84,1.491,3.33,3.33,3.33h18.313
			c1.838,0,3.33-1.49,3.33-3.33V5.142C27.387,3.303,25.896,1.812,24.059,1.812z M25.723,25.119c0,0.92-0.746,1.666-1.664,1.666
			H5.744c-0.919,0-1.665-0.746-1.665-1.666V8.471h21.644V25.119z M25.723,6.807H4.079V5.142c0-0.919,0.746-1.665,1.665-1.665h18.313
			c0.92,0,1.664,0.745,1.664,1.665v1.665H25.723z M21.561,23.455c1.379,0,2.498-1.118,2.498-2.498c0-1.379-1.119-2.496-2.498-2.496
			s-2.498,1.117-2.498,2.496C19.063,22.337,20.182,23.455,21.561,23.455z M20.729,20.125h1.664v1.665h-1.664V20.125z M8.241,16.795
			c1.379,0,2.498-1.117,2.498-2.496c0-1.38-1.118-2.498-2.498-2.498c-1.38,0-2.497,1.118-2.497,2.498
			C5.744,15.678,6.862,16.795,8.241,16.795z M7.409,13.466h1.665v1.665H7.409V13.466z M21.561,16.795
			c1.379,0,2.498-1.117,2.498-2.496c0-1.38-1.119-2.498-2.498-2.498s-2.498,1.118-2.498,2.498
			C19.063,15.678,20.182,16.795,21.561,16.795z M20.729,13.466h1.664v1.665h-1.664V13.466z M8.241,23.455
			c1.379,0,2.498-1.118,2.498-2.498c0-1.379-1.118-2.496-2.498-2.496c-1.38,0-2.497,1.117-2.497,2.496
			C5.744,22.337,6.862,23.455,8.241,23.455z M7.409,20.125h1.665v1.665H7.409V20.125z M14.9,16.795c1.379,0,2.497-1.117,2.497-2.496
			c0-1.38-1.117-2.498-2.497-2.498c-1.379,0-2.497,1.118-2.497,2.498C12.403,15.678,13.521,16.795,14.9,16.795z M14.068,13.466
			h1.665v1.665h-1.665V13.466z M14.9,23.455c1.379,0,2.497-1.118,2.497-2.498c0-1.379-1.117-2.496-2.497-2.496
			c-1.379,0-2.497,1.117-2.497,2.496C12.403,22.337,13.521,23.455,14.9,23.455z M14.068,20.125h1.665v1.665h-1.665V20.125z"/>
	</g>
</g>
</svg>
