<?xml version="1.0" encoding="utf-8"?>
<!-- Generator: Adobe Illustrator 16.0.0, SVG Export Plug-In . SVG Version: 6.00 Build 0)  -->
<!DOCTYPE svg PUBLIC "-//W3C//DTD SVG 1.1//EN" "http://www.w3.org/Graphics/SVG/1.1/DTD/svg11.dtd">
<svg version="1.1" id="Layer_1" xmlns="http://www.w3.org/2000/svg" xmlns:xlink="http://www.w3.org/1999/xlink" x="0px" y="0px"
	 width="20px" height="20px" viewBox="0 0 20 20" enable-background="new 0 0 20 20" xml:space="preserve">
<circle fill="#059FD5" cx="10" cy="10" r="9"/>
<g>
	<defs>
		<circle id="SVGID_1_" cx="10" cy="10" r="9"/>
	</defs>
	<clipPath id="SVGID_2_">
		<use xlink:href="#SVGID_1_"  overflow="visible"/>
	</clipPath>
	<g clip-path="url(#SVGID_2_)">
		<g>
			<defs>
				<path id="SVGID_3_" d="M14.053,9.541c-0.256,0-0.478-0.19-0.509-0.452c-0.032-0.281,0.167-0.536,0.45-0.568l2.719-0.324
					c0.283-0.033,0.535,0.167,0.57,0.448c0.033,0.282-0.166,0.537-0.448,0.571l-2.721,0.322C14.094,9.54,14.075,9.541,14.053,9.541z
					"/>
			</defs>
			<defs>
				<path id="SVGID_4_" d="M16.272,12.832c-0.054,0-0.11-0.007-0.165-0.026l-2.402-0.826c-0.269-0.092-0.408-0.385-0.317-0.652
					c0.092-0.268,0.383-0.41,0.651-0.318l2.403,0.828c0.268,0.09,0.41,0.382,0.317,0.648C16.686,12.698,16.487,12.832,16.272,12.832
					z"/>
			</defs>
			<defs>
				<path id="SVGID_5_" d="M13.458,7.312c-0.17,0-0.334-0.084-0.434-0.237c-0.15-0.239-0.082-0.555,0.158-0.707l2.143-1.367
					c0.238-0.153,0.555-0.082,0.707,0.157c0.151,0.238,0.082,0.555-0.156,0.707l-2.141,1.366C13.648,7.286,13.55,7.312,13.458,7.312
					z"/>
			</defs>
			<defs>
				<path id="SVGID_6_" d="M14.365,21H0.835c-0.283,0-0.512-0.227-0.512-0.514c0-5.533,1.319-5.98,4.303-6.467
					c0.312-0.048,0.632-0.101,0.971-0.163v-0.821c-0.759-0.438-1.367-1.109-1.728-1.906C3.216,11.02,2.71,10.35,2.71,9.543
					c0-0.761,0.448-1.399,1.049-1.561c0.602-1.7,2.16-2.858,3.902-2.858c1.757,0,3.329,1.179,3.917,2.903
					c0.535,0.214,0.916,0.812,0.916,1.516c0,0.752-0.438,1.383-1.027,1.556c-0.376,0.858-1.038,1.569-1.864,2.009v0.749
					c0.338,0.063,0.659,0.115,0.973,0.163c2.983,0.486,4.303,0.934,4.303,6.467C14.878,20.774,14.647,21,14.365,21z M1.35,19.975
					h12.499c-0.062-4.394-0.958-4.539-3.437-4.941c-0.426-0.069-0.909-0.146-1.426-0.254c-0.237-0.049-0.408-0.258-0.408-0.503
					v-1.492c0-0.207,0.122-0.392,0.311-0.474c0.808-0.345,1.438-1.019,1.729-1.849c0.073-0.216,0.284-0.354,0.509-0.344
					c0.008,0,0.017,0.001,0.025,0.001c0.134-0.01,0.318-0.233,0.318-0.576c0-0.346-0.187-0.569-0.32-0.575
					c-0.221-0.011-0.412-0.163-0.471-0.378c-0.377-1.415-1.647-2.44-3.017-2.44c-1.371,0-2.641,1.028-3.018,2.443
					c-0.067,0.25-0.311,0.413-0.566,0.376c-0.137-0.021-0.342,0.21-0.342,0.575c0,0.352,0.193,0.576,0.326,0.576
					c0.006,0,0.018,0,0.037-0.004c0.256-0.063,0.519,0.081,0.604,0.332c0.273,0.794,0.866,1.458,1.626,1.813
					c0.181,0.085,0.295,0.267,0.295,0.465v1.552c0,0.245-0.171,0.454-0.41,0.503c-0.517,0.107-0.998,0.185-1.424,0.254
					C2.31,15.436,1.413,15.582,1.35,19.975z"/>
			</defs>
			<use xlink:href="#SVGID_3_"  overflow="visible" fill="#FFFFFF"/>
			<use xlink:href="#SVGID_4_"  overflow="visible" fill="#FFFFFF"/>
			<use xlink:href="#SVGID_5_"  overflow="visible" fill="#FFFFFF"/>
			<use xlink:href="#SVGID_6_"  overflow="visible" fill="#FFFFFF"/>
			<clipPath id="SVGID_7_">
				<use xlink:href="#SVGID_3_"  overflow="visible"/>
			</clipPath>
			<clipPath id="SVGID_8_" clip-path="url(#SVGID_7_)">
				<use xlink:href="#SVGID_4_"  overflow="visible"/>
			</clipPath>
			<clipPath id="SVGID_9_" clip-path="url(#SVGID_8_)">
				<use xlink:href="#SVGID_5_"  overflow="visible"/>
			</clipPath>
			<clipPath id="SVGID_10_" clip-path="url(#SVGID_9_)">
				<use xlink:href="#SVGID_6_"  overflow="visible"/>
			</clipPath>
		</g>
	</g>
</g>
</svg>
