<?xml version="1.0" encoding="utf-8"?>
<!-- Generator: Adobe Illustrator 16.0.0, SVG Export Plug-In . SVG Version: 6.00 Build 0)  -->
<!DOCTYPE svg PUBLIC "-//W3C//DTD SVG 1.1//EN" "http://www.w3.org/Graphics/SVG/1.1/DTD/svg11.dtd">
<svg version="1.1" id="Layer_1" xmlns="http://www.w3.org/2000/svg" xmlns:xlink="http://www.w3.org/1999/xlink" x="0px" y="0px"
	 width="30px" height="30px" viewBox="0 0 30 30" enable-background="new 0 0 30 30" xml:space="preserve">
<g id="_x39__20_">
	<g>
		<path fill="#5A6F8A" d="M14.127,1.037h-1.745v2.618C6.029,4.344,1.037,9.787,1.037,16.309c0,6.988,5.666,12.654,12.654,12.654
			c5.155,0,9.581-3.087,11.553-7.508l1.973,0.526c0.954-1.566,1.746-3.79,1.746-6.483C28.963,7.511,21.985,1.037,14.127,1.037z
			 M13.691,27.217c-6.024,0-10.909-4.883-10.909-10.908c0-5.489,4.291-10.142,9.6-10.908v11.719l11.091,3.863
			C21.996,24.711,17.76,27.217,13.691,27.217z M25.953,19.898l-11.826-4.025V2.782C20.916,2.748,27.12,8.613,27.12,15.498
			C27.12,17.294,26.65,18.656,25.953,19.898z"/>
	</g>
</g>
</svg>
