<?xml version="1.0" encoding="utf-8"?>
<!-- Generator: Adobe Illustrator 16.0.0, SVG Export Plug-In . SVG Version: 6.00 Build 0)  -->
<!DOCTYPE svg PUBLIC "-//W3C//DTD SVG 1.1//EN" "http://www.w3.org/Graphics/SVG/1.1/DTD/svg11.dtd">
<svg version="1.1" id="Layer_1" xmlns="http://www.w3.org/2000/svg" xmlns:xlink="http://www.w3.org/1999/xlink" x="0px" y="0px"
	 width="20px" height="20px" viewBox="0 0 20 20" enable-background="new 0 0 20 20" xml:space="preserve">
<circle fill="#B9B9BA" cx="10" cy="10" r="9"/>
<circle fill="#B9B9BA" cx="10" cy="10" r="9"/>
<g id="_x31__16_">
	<g>
		<path fill="#FFFFFF" d="M15.881,11.475l-0.949-0.553c0.053-0.291,0.09-0.586,0.09-0.893c0-0.307-0.037-0.604-0.09-0.893
			l0.949-0.553c0.389-0.227,0.521-0.727,0.297-1.117L15.367,6.05c-0.225-0.39-0.721-0.524-1.105-0.298L13.301,6.31
			c-0.449-0.384-0.958-0.699-1.523-0.9V4.716c0-0.452-0.362-0.817-0.812-0.817h-1.62c-0.449,0-0.813,0.366-0.813,0.817V5.41
			c-0.564,0.201-1.074,0.516-1.522,0.9L6.052,5.752C5.665,5.526,5.168,5.661,4.944,6.05L4.133,7.467
			C3.91,7.858,4.043,8.358,4.431,8.584L5.38,9.137C5.327,9.426,5.292,9.723,5.292,10.03c0,0.307,0.035,0.602,0.089,0.893
			l-0.949,0.554C4.043,11.7,3.911,12.2,4.133,12.591l0.811,1.415c0.225,0.393,0.721,0.525,1.108,0.301l0.959-0.559
			c0.448,0.385,0.958,0.699,1.522,0.9v0.692c0,0.451,0.363,0.818,0.813,0.818h1.62c0.448,0,0.812-0.367,0.812-0.818v-0.692
			c0.565-0.201,1.074-0.517,1.523-0.9l0.959,0.559c0.387,0.225,0.883,0.092,1.106-0.301l0.812-1.415
			C16.402,12.2,16.27,11.7,15.881,11.475z M15.271,12.536l-0.403,0.709c-0.111,0.194-0.359,0.262-0.556,0.149l-1.125-0.656
			c-0.57,0.65-1.344,1.117-2.222,1.296v0.899c0,0.227-0.181,0.408-0.405,0.408H9.75c-0.223,0-0.404-0.183-0.404-0.408v-0.899
			c-0.878-0.179-1.65-0.646-2.222-1.296l-1.128,0.656c-0.192,0.111-0.441,0.045-0.553-0.149l-0.405-0.709
			c-0.112-0.194-0.046-0.445,0.148-0.558l1.131-0.66c-0.134-0.405-0.216-0.836-0.216-1.289c0-0.453,0.082-0.884,0.216-1.291
			l-1.13-0.658C4.993,7.967,4.926,7.717,5.039,7.522l0.405-0.709c0.111-0.194,0.36-0.262,0.553-0.149l1.128,0.657
			c0.571-0.65,1.344-1.117,2.222-1.297V5.125c0-0.226,0.182-0.409,0.404-0.409h0.812c0.225,0,0.404,0.183,0.404,0.409v0.899
			c0.879,0.18,1.65,0.647,2.223,1.297l1.125-0.657c0.194-0.113,0.442-0.045,0.555,0.149l0.404,0.709
			c0.113,0.195,0.047,0.445-0.146,0.559l-1.131,0.658c0.135,0.407,0.215,0.838,0.215,1.291c0,0.452-0.08,0.883-0.215,1.289
			l1.131,0.66C15.318,12.09,15.385,12.341,15.271,12.536z M10.157,7.986C9.036,7.986,8.13,8.9,8.13,10.03
			c0,1.128,0.906,2.042,2.027,2.042c1.118,0,2.026-0.914,2.026-2.042C12.184,8.9,11.275,7.986,10.157,7.986z M10.157,11.255
			c-0.672,0-1.217-0.549-1.217-1.226c0-0.678,0.545-1.227,1.217-1.227c0.671,0,1.215,0.549,1.215,1.227
			C11.372,10.707,10.828,11.255,10.157,11.255z"/>
	</g>
	<g>
		<path fill="none" stroke="#FFFFFF" stroke-width="0.5" stroke-miterlimit="10" d="M15.881,11.475l-0.949-0.553
			c0.053-0.291,0.09-0.586,0.09-0.893c0-0.307-0.037-0.604-0.09-0.893l0.949-0.553c0.389-0.227,0.521-0.727,0.297-1.117L15.367,6.05
			c-0.225-0.39-0.721-0.524-1.105-0.298L13.301,6.31c-0.449-0.384-0.958-0.699-1.523-0.9V4.716c0-0.452-0.362-0.817-0.812-0.817
			h-1.62c-0.449,0-0.813,0.366-0.813,0.817V5.41c-0.564,0.201-1.074,0.516-1.522,0.9L6.052,5.752
			C5.665,5.526,5.168,5.661,4.944,6.05L4.133,7.467C3.91,7.858,4.043,8.358,4.431,8.584L5.38,9.137
			C5.327,9.426,5.292,9.723,5.292,10.03c0,0.307,0.035,0.602,0.089,0.893l-0.949,0.554C4.043,11.7,3.911,12.2,4.133,12.591
			l0.811,1.415c0.225,0.393,0.721,0.525,1.108,0.301l0.959-0.559c0.448,0.385,0.958,0.699,1.522,0.9v0.692
			c0,0.451,0.363,0.818,0.813,0.818h1.62c0.448,0,0.812-0.367,0.812-0.818v-0.692c0.565-0.201,1.074-0.517,1.523-0.9l0.959,0.559
			c0.387,0.225,0.883,0.092,1.106-0.301l0.812-1.415C16.402,12.2,16.27,11.7,15.881,11.475z M15.271,12.536l-0.403,0.709
			c-0.111,0.194-0.359,0.262-0.556,0.149l-1.125-0.656c-0.57,0.65-1.344,1.117-2.222,1.296v0.899c0,0.227-0.181,0.408-0.405,0.408
			H9.75c-0.223,0-0.404-0.183-0.404-0.408v-0.899c-0.878-0.179-1.65-0.646-2.222-1.296l-1.128,0.656
			c-0.192,0.111-0.441,0.045-0.553-0.149l-0.405-0.709c-0.112-0.194-0.046-0.445,0.148-0.558l1.131-0.66
			c-0.134-0.405-0.216-0.836-0.216-1.289c0-0.453,0.082-0.884,0.216-1.291l-1.13-0.658C4.993,7.967,4.926,7.717,5.039,7.522
			l0.405-0.709c0.111-0.194,0.36-0.262,0.553-0.149l1.128,0.657c0.571-0.65,1.344-1.117,2.222-1.297V5.125
			c0-0.226,0.182-0.409,0.404-0.409h0.812c0.225,0,0.404,0.183,0.404,0.409v0.899c0.879,0.18,1.65,0.647,2.223,1.297l1.125-0.657
			c0.194-0.113,0.442-0.045,0.555,0.149l0.404,0.709c0.113,0.195,0.047,0.445-0.146,0.559l-1.131,0.658
			c0.135,0.407,0.215,0.838,0.215,1.291c0,0.452-0.08,0.883-0.215,1.289l1.131,0.66C15.318,12.09,15.385,12.341,15.271,12.536z
			 M10.157,7.986C9.036,7.986,8.13,8.9,8.13,10.03c0,1.128,0.906,2.042,2.027,2.042c1.118,0,2.026-0.914,2.026-2.042
			C12.184,8.9,11.275,7.986,10.157,7.986z M10.157,11.255c-0.672,0-1.217-0.549-1.217-1.226c0-0.678,0.545-1.227,1.217-1.227
			c0.671,0,1.215,0.549,1.215,1.227C11.372,10.707,10.828,11.255,10.157,11.255z"/>
	</g>
</g>
</svg>
