<?xml version="1.0" encoding="utf-8"?>
<!-- Generator: Adobe Illustrator 16.0.0, SVG Export Plug-In . SVG Version: 6.00 Build 0)  -->
<!DOCTYPE svg PUBLIC "-//W3C//DTD SVG 1.1//EN" "http://www.w3.org/Graphics/SVG/1.1/DTD/svg11.dtd">
<svg version="1.1" id="Layer_1" xmlns="http://www.w3.org/2000/svg" xmlns:xlink="http://www.w3.org/1999/xlink" x="0px" y="0px"
	 width="30px" height="30px" viewBox="0 0 30 30" enable-background="new 0 0 30 30" xml:space="preserve">
<g id="_x31__5_">
	<g>
		<path fill="#5A6F8A" d="M8.976,16h-4c-2.209,0-4,1.791-4,4v4c0,2.209,1.791,4,4,4h4c2.209,0,4-1.791,4-4v-4
			C12.976,17.791,11.185,16,8.976,16z M10.976,24c0,1.104-0.896,2-2,2h-4c-1.104,0-2-0.896-2-2v-4c0-1.105,0.896-2,2-2h4
			c1.104,0,2,0.895,2,2V24z M24.977,16h-4c-2.209,0-4,1.791-4,4v4c0,2.209,1.791,4,4,4h4c2.209,0,4-1.791,4-4v-4
			C28.977,17.791,27.186,16,24.977,16z M26.977,24c0,1.104-0.896,2-2,2h-4c-1.104,0-2-0.896-2-2v-4c0-1.105,0.896-2,2-2h4
			c1.104,0,2,0.895,2,2V24z M24.977,0h-4c-2.209,0-4,1.791-4,4v4c0,2.209,1.791,4,4,4h4c2.209,0,4-1.791,4-4V4
			C28.977,1.791,27.186,0,24.977,0z M26.977,8c0,1.104-0.896,2-2,2h-4c-1.104,0-2-0.896-2-2V4c0-1.104,0.896-2,2-2h4
			c1.104,0,2,0.896,2,2V8z M8.976,0h-4c-2.209,0-4,1.791-4,4v4c0,2.209,1.791,4,4,4h4c2.209,0,4-1.791,4-4V4
			C12.976,1.791,11.185,0,8.976,0z M10.976,8c0,1.104-0.896,2-2,2h-4c-1.104,0-2-0.896-2-2V4c0-1.104,0.896-2,2-2h4
			c1.104,0,2,0.896,2,2V8z"/>
	</g>
</g>
</svg>
