<?xml version="1.0" encoding="utf-8"?>
<!-- Generator: Adobe Illustrator 16.0.0, SVG Export Plug-In . SVG Version: 6.00 Build 0)  -->
<!DOCTYPE svg PUBLIC "-//W3C//DTD SVG 1.1//EN" "http://www.w3.org/Graphics/SVG/1.1/DTD/svg11.dtd">
<svg version="1.1" id="Layer_1" xmlns="http://www.w3.org/2000/svg" xmlns:xlink="http://www.w3.org/1999/xlink" x="0px" y="0px"
	 width="30px" height="30px" viewBox="0 0 30 30" enable-background="new 0 0 30 30" xml:space="preserve">
<g id="_x31_0_2_">
	<g>
		<path fill="#FFFFFF" d="M16.715,15.729l4.297-4.298c0.395-0.394,0.395-1.031,0-1.425c-0.393-0.394-1.031-0.394-1.424,0
			l-4.299,4.297l-4.236-4.236c-0.391-0.391-1.024-0.391-1.414,0c-0.391,0.39-0.391,1.023,0,1.414l4.236,4.236L9.61,19.984
			c-0.394,0.394-0.394,1.031,0,1.425s1.031,0.394,1.426,0l4.265-4.266l4.236,4.237c0.391,0.391,1.025,0.391,1.416,0
			s0.391-1.024,0-1.415L16.715,15.729z"/>
	</g>
</g>
</svg>
