<?xml version="1.0" encoding="utf-8"?>
<!-- Generator: Adobe Illustrator 16.0.0, SVG Export Plug-In . SVG Version: 6.00 Build 0)  -->
<!DOCTYPE svg PUBLIC "-//W3C//DTD SVG 1.1//EN" "http://www.w3.org/Graphics/SVG/1.1/DTD/svg11.dtd">
<svg version="1.1" id="Layer_1" xmlns="http://www.w3.org/2000/svg" xmlns:xlink="http://www.w3.org/1999/xlink" x="0px" y="0px"
	 width="20px" height="20px" viewBox="0 0 20 20" enable-background="new 0 0 20 20" xml:space="preserve">
<circle fill="#A9CD38" cx="10" cy="10" r="9"/>
<circle fill="#A9CD38" cx="10" cy="10" r="9"/>
<path fill="#FFFFFF" d="M16.463,5.559c-0.1-0.134-0.517-0.044-0.517-0.044c-0.176,0.036-0.458,0.113-0.628,0.17l-0.305,0.104
	c-0.444,0.154-1.055,0.549-1.055,0.549c-0.148,0.099-0.388,0.268-0.53,0.377l-0.221,0.172c-0.142,0.109-0.396,0.149-0.563,0.088
	L6.303,4.633C6.135,4.571,5.88,4.606,5.737,4.714L5.12,5.175C5.092,5.195,5.075,5.216,5.057,5.239l0,0
	C5.055,5.241,5.054,5.244,5.052,5.247c-0.007,0.01-0.012,0.018-0.017,0.027C5.034,5.279,5.032,5.285,5.03,5.292
	C5.026,5.3,5.022,5.31,5.02,5.317C5.018,5.331,5.016,5.345,5.016,5.358C5.017,5.365,5.018,5.37,5.019,5.376
	c0.001,0.01,0.003,0.02,0.007,0.029c0.001,0.004,0.002,0.01,0.005,0.016C5.035,5.431,5.04,5.44,5.045,5.45
	c0.003,0.004,0.006,0.008,0.01,0.013C5.061,5.474,5.071,5.483,5.08,5.492C5.083,5.497,5.086,5.499,5.09,5.503
	C5.104,5.516,5.12,5.527,5.137,5.538l5.331,3.183c0.153,0.093,0.165,0.259,0.025,0.37l-3.805,3.031
	c-0.14,0.111-0.392,0.154-0.56,0.092l-1.121-0.408c-0.17-0.063-0.424-0.025-0.566,0.082L4.11,12.135
	c-0.021,0.016-0.037,0.031-0.052,0.049H4.057c-0.008,0.01-0.014,0.02-0.02,0.029s-0.01,0.018-0.014,0.027
	c-0.004,0.008-0.008,0.018-0.01,0.025S4.012,12.28,4.01,12.29c-0.001,0.006-0.001,0.014-0.001,0.021s0.001,0.016,0.001,0.021
	c0.002,0.01,0.004,0.018,0.006,0.025c0.002,0.006,0.004,0.012,0.007,0.018c0.004,0.01,0.009,0.018,0.015,0.027
	c0.002,0.004,0.006,0.01,0.01,0.014c0.007,0.01,0.017,0.02,0.025,0.029c0.004,0.004,0.007,0.008,0.01,0.01
	c0.016,0.012,0.031,0.023,0.049,0.033l1.475,0.826c0.156,0.088,0.314,0.303,0.355,0.479l0.371,1.641
	c0.002,0.012,0.006,0.025,0.01,0.035c0.002,0.006,0.005,0.01,0.006,0.016c0.003,0.006,0.006,0.012,0.01,0.02
	c0.002,0.004,0.004,0.008,0.007,0.012c0.005,0.01,0.011,0.018,0.017,0.027c0.002,0.002,0.004,0.004,0.006,0.006
	c0.006,0.006,0.011,0.012,0.016,0.018c0.004,0.002,0.006,0.004,0.008,0.004c0.007,0.006,0.015,0.012,0.021,0.016
	c0,0.002,0.002,0.002,0.003,0.002c0.01,0.006,0.019,0.01,0.03,0.014c0,0,0.001,0,0.002,0c0.01,0.004,0.02,0.006,0.028,0.008
	c0.001,0,0.002,0,0.003,0c0.052,0.006,0.108-0.012,0.166-0.053l0.332-0.248c0.144-0.107,0.252-0.342,0.24-0.521l-0.07-1.184
	c-0.01-0.18,0.102-0.41,0.246-0.512l3.987-2.789c0.146-0.102,0.303-0.044,0.348,0.129l1.535,6.007
	c0.004,0.018,0.01,0.033,0.018,0.049c0,0.002,0.001,0.006,0.003,0.008c0.007,0.014,0.014,0.025,0.023,0.037
	c0.001,0.004,0.002,0.006,0.005,0.01c0.009,0.01,0.018,0.02,0.027,0.027c0.003,0.002,0.005,0.004,0.007,0.006
	c0.01,0.008,0.021,0.016,0.033,0.021c0.002,0,0.003,0,0.006,0.002c0.013,0.006,0.024,0.01,0.039,0.012h0.002
	c0.029,0.006,0.06,0.004,0.092-0.006l0.002-0.002c0.016-0.004,0.029-0.012,0.046-0.02c0.001,0,0.001,0,0.003-0.002l0,0
	c0.012-0.008,0.024-0.014,0.035-0.023l0.618-0.461c0.144-0.107,0.251-0.34,0.239-0.52l-0.446-6.746
	c-0.011-0.18,0.099-0.41,0.243-0.516l0.47-0.336c0.458-0.342,0.884-0.836,0.884-0.836c0.117-0.137,0.297-0.367,0.4-0.514
	l0.184-0.263C16.489,5.974,16.571,5.703,16.463,5.559z"/>
</svg>
