<?xml version="1.0" encoding="utf-8"?>
<!-- Generator: Adobe Illustrator 16.0.0, SVG Export Plug-In . SVG Version: 6.00 Build 0)  -->
<!DOCTYPE svg PUBLIC "-//W3C//DTD SVG 1.1//EN" "http://www.w3.org/Graphics/SVG/1.1/DTD/svg11.dtd">
<svg version="1.1" id="Layer_1" xmlns="http://www.w3.org/2000/svg" xmlns:xlink="http://www.w3.org/1999/xlink" x="0px" y="0px"
	 width="20px" height="20px" viewBox="0 0 20 20" enable-background="new 0 0 20 20" xml:space="preserve">
<circle fill="#55C5D0" cx="10" cy="10" r="9"/>
<circle fill="none" cx="10" cy="10" r="9"/>
<g>
	<g>
		<path fill="#FFFFFF" d="M15.082,15.214H4.702c-0.442,0-0.802-0.38-0.802-0.846v-6.86c0-0.467,0.359-0.846,0.802-0.846h10.38
			c0.441,0,0.801,0.379,0.801,0.846v6.86C15.882,14.834,15.523,15.214,15.082,15.214z M4.702,7.452
			c-0.029,0-0.054,0.026-0.054,0.057v6.86c0,0.03,0.025,0.056,0.054,0.056h10.38c0.028,0,0.053-0.025,0.053-0.056v-6.86
			c0-0.03-0.024-0.057-0.053-0.057H4.702z"/>
	</g>
	<g>
		<path fill="#FFFFFF" d="M12.587,7.319c-0.207,0-0.373-0.176-0.373-0.395c0-1.35-1.042-2.448-2.323-2.448
			c-1.28,0-2.321,1.099-2.321,2.448c0,0.219-0.168,0.395-0.374,0.395c-0.207,0-0.375-0.176-0.375-0.395
			c0-1.785,1.378-3.238,3.07-3.238c1.693,0,3.069,1.453,3.069,3.238C12.96,7.143,12.794,7.319,12.587,7.319z"/>
	</g>
	<g>
		<path fill="#FFFFFF" d="M9.054,11.086c-0.08,0-0.161-0.027-0.229-0.084L4.384,7.37C4.258,7.266,4.208,7.088,4.259,6.93
			c0.053-0.16,0.194-0.268,0.354-0.268h10.556c0.16,0,0.303,0.107,0.354,0.268c0.052,0.158,0.002,0.336-0.124,0.439l-4.441,3.633
			c-0.163,0.134-0.397,0.103-0.524-0.069s-0.098-0.42,0.065-0.554l3.578-2.928H5.706l3.578,2.928
			c0.163,0.134,0.193,0.382,0.066,0.554C9.277,11.033,9.166,11.086,9.054,11.086z"/>
	</g>
	<g>
		<path fill="#FFFFFF" d="M10.729,12.292H9.055c-0.178,0-0.32-0.151-0.32-0.338v-1.263c0-0.188,0.143-0.339,0.32-0.339h1.674
			c0.177,0,0.32,0.151,0.32,0.339v1.263C11.049,12.141,10.906,12.292,10.729,12.292z M9.375,11.616h1.032V11.03H9.375V11.616z"/>
	</g>
</g>
</svg>
