<?xml version="1.0" encoding="utf-8"?>
<!-- Generator: Adobe Illustrator 16.0.0, SVG Export Plug-In . SVG Version: 6.00 Build 0)  -->
<!DOCTYPE svg PUBLIC "-//W3C//DTD SVG 1.1//EN" "http://www.w3.org/Graphics/SVG/1.1/DTD/svg11.dtd">
<svg version="1.1" id="Layer_1" xmlns="http://www.w3.org/2000/svg" xmlns:xlink="http://www.w3.org/1999/xlink" x="0px" y="0px"
	 width="30px" height="30px" viewBox="0 0 30 30" enable-background="new 0 0 30 30" xml:space="preserve">
<g id="_x32__19_">
	<g>
		<path fill="#5A6F8A" d="M2.029,16.748l11.674,5.248c1.031,0.486,1.476,0.486,2.593,0l11.675-5.248
			c0.575-0.268,0.786-1.531,0.786-2.211c-0.75,0.375-1.813,0.911-1.834,0.916L15,20.949L3.077,15.453
			c0.041,0.025-1.055-0.471-1.834-0.916C1.243,15.202,1.41,16.42,2.029,16.748z M15,26.445L3.077,20.949
			c0.041,0.025-1.055-0.471-1.834-0.916c0,0.664,0.167,1.883,0.787,2.212l11.674,5.247c1.031,0.486,1.476,0.486,2.593,0
			l11.674-5.247c0.576-0.269,0.787-1.532,0.787-2.212c-0.75,0.375-1.813,0.91-1.834,0.916L15,26.445z M2.029,11.251l11.674,5.248
			c1.031,0.485,1.476,0.485,2.593,0l11.675-5.248c0.859-0.4,0.889-2.104,0-2.591L16.297,2.496c-0.917-0.544-1.563-0.516-2.593,0
			L2.029,8.66C1.141,9.232,1.112,10.765,2.029,11.251z M15,3.542l11.924,6.413L15,14.98L3.077,9.955L15,3.542z"/>
	</g>
</g>
</svg>
