<?xml version="1.0" encoding="utf-8"?>
<!-- Generator: Adobe Illustrator 16.0.0, SVG Export Plug-In . SVG Version: 6.00 Build 0)  -->
<!DOCTYPE svg PUBLIC "-//W3C//DTD SVG 1.1//EN" "http://www.w3.org/Graphics/SVG/1.1/DTD/svg11.dtd">
<svg version="1.1" id="Layer_1" xmlns="http://www.w3.org/2000/svg" xmlns:xlink="http://www.w3.org/1999/xlink" x="0px" y="0px"
	 width="30px" height="30px" viewBox="0 0 30 30" enable-background="new 0 0 30 30" xml:space="preserve">
<g id="_x37__18_">
	<g>
		<path fill="#5A6F8A" d="M25.314,5.248H4.573c-1.909,0-3.457,1.548-3.457,3.457v13.828c0,1.908,1.548,3.457,3.457,3.457h20.741
			c1.908,0,3.457-1.549,3.457-3.457V8.705C28.771,6.796,27.223,5.248,25.314,5.248z M26.178,6.977L14.944,15.62L3.709,6.977H26.178z
			 M2.845,22.533V8.705l7.778,6.05l-7.696,8.278C2.878,22.874,2.845,22.709,2.845,22.533z M4.189,24.215l7.799-8.311l2.956,2.234
			l2.828-2.248l7.929,8.323C25.574,24.244,4.313,24.244,4.189,24.215z M27.043,22.533c0,0.176-0.033,0.341-0.082,0.5l-7.695-8.278
			l7.777-6.05V22.533z"/>
	</g>
</g>
</svg>
