<?xml version="1.0" encoding="utf-8"?>
<!-- Generator: Adobe Illustrator 16.0.0, SVG Export Plug-In . SVG Version: 6.00 Build 0)  -->
<!DOCTYPE svg PUBLIC "-//W3C//DTD SVG 1.1//EN" "http://www.w3.org/Graphics/SVG/1.1/DTD/svg11.dtd">
<svg version="1.1" id="Layer_1" xmlns="http://www.w3.org/2000/svg" xmlns:xlink="http://www.w3.org/1999/xlink" x="0px" y="0px"
	 width="30px" height="30px" viewBox="0 0 30 30" enable-background="new 0 0 30 30" xml:space="preserve">
<g id="_x39__17_">
	<g>
		<path fill="#5A6F8A" d="M14.306,17.621c-0.459,0-0.831,0.373-0.831,0.831v3.323c0,0.461,0.372,0.832,0.831,0.832
			c0.46,0,0.831-0.371,0.831-0.832v-3.323C15.137,17.994,14.766,17.621,14.306,17.621z M20.954,14.313V7.648
			C20.954,3.977,17.979,1,14.306,1c-3.671,0-6.648,2.977-6.648,6.648v6.664c-1.039,1.387-1.662,3.104-1.662,4.971
			c0,4.59,3.721,8.311,8.311,8.311c4.589,0,8.311-3.721,8.311-8.311C22.616,17.416,21.993,15.699,20.954,14.313z M9.319,7.648
			c0-2.754,2.233-4.986,4.986-4.986s4.986,2.232,4.986,4.986v4.998c-1.391-1.046-3.111-1.673-4.986-1.673
			c-1.873,0-3.596,0.627-4.986,1.673V7.648z M14.306,25.932c-3.671,0-6.648-2.977-6.648-6.647s2.977-6.648,6.648-6.648
			c3.547,0,6.648,3.102,6.648,6.648C20.954,22.955,17.979,25.932,14.306,25.932z"/>
	</g>
</g>
</svg>
