<?xml version="1.0" encoding="utf-8"?>
<!-- Generator: Adobe Illustrator 16.0.0, SVG Export Plug-In . SVG Version: 6.00 Build 0)  -->
<!DOCTYPE svg PUBLIC "-//W3C//DTD SVG 1.1//EN" "http://www.w3.org/Graphics/SVG/1.1/DTD/svg11.dtd">
<svg version="1.1" id="Layer_1" xmlns="http://www.w3.org/2000/svg" xmlns:xlink="http://www.w3.org/1999/xlink" x="0px" y="0px"
	 width="30px" height="30px" viewBox="0 0 30 30" enable-background="new 0 0 30 30" xml:space="preserve">
<g id="_x33__21_">
	<g>
		<path fill="#5A6F8A" d="M20.745,16.729h-7.92c-0.486,0-0.88,0.395-0.88,0.88s0.394,0.879,0.88,0.879h7.92
			c0.486,0,0.88-0.394,0.88-0.879S21.231,16.729,20.745,16.729z M20.745,0c-0.109,0-10.56,0-10.56,0c-1.861,0-3.52,1.708-3.52,3.52
			L5.649,3.543c-1.862,0-3.383,1.685-3.383,3.496v17.599c0,1.812,1.659,3.521,3.52,3.521h13.199c1.861,0,3.521-1.709,3.521-3.521
			h0.88c1.861,0,3.52-1.708,3.52-3.521V7.06L20.745,0z M18.984,26.398H5.786c-0.924,0-1.76-0.863-1.76-1.76V7.04
			c0-0.896,0.752-1.731,1.675-1.731l0.964-0.029v15.839c0,1.813,1.659,3.521,3.52,3.521h10.56
			C20.745,25.535,19.908,26.398,18.984,26.398z M25.145,21.118c0,0.896-0.836,1.761-1.76,1.761H10.186
			c-0.924,0-1.76-0.864-1.76-1.761V3.52c0-0.896,0.836-1.76,1.76-1.76h8.799c-0.014,2.027,0,3.542,0,3.542
			c0,1.828,1.646,3.498,3.521,3.498c0,0,0.935,0,2.64,0V21.118z M22.505,7.04c-0.938,0-1.76-1.703-1.76-2.617c0,0,0-0.926,0-2.636
			V1.786l4.399,5.254H22.505z M20.745,12.334h-7.92c-0.486,0-0.88,0.394-0.88,0.879c0,0.485,0.394,0.879,0.88,0.879h7.92
			c0.486,0,0.88-0.394,0.88-0.879C21.625,12.728,21.231,12.334,20.745,12.334z"/>
	</g>
</g>
</svg>
