<?xml version="1.0" encoding="utf-8"?>
<!-- Generator: Adobe Illustrator 16.0.0, SVG Export Plug-In . SVG Version: 6.00 Build 0)  -->
<!DOCTYPE svg PUBLIC "-//W3C//DTD SVG 1.1//EN" "http://www.w3.org/Graphics/SVG/1.1/DTD/svg11.dtd">
<svg version="1.1" id="Layer_1" xmlns="http://www.w3.org/2000/svg" xmlns:xlink="http://www.w3.org/1999/xlink" x="0px" y="0px"
	 width="20px" height="20px" viewBox="0 0 20 20" enable-background="new 0 0 20 20" xml:space="preserve">
<rect x="8" y="13" fill="#666666" width="4" height="7"/>
<path fill="#666666" d="M19.707,9.293l-9-9c-0.391-0.391-1.023-0.391-1.414,0l-9,9c-0.391,0.391-0.391,1.023,0,1.414
	s1.023,0.391,1.414,0L2,10.414V19c0,0.552,0.448,1,1,1h3v-2H4V8.414l6-6l6,6V18h-2v2h3c0.552,0,1-0.448,1-1v-8.586l0.293,0.293
	c0.391,0.391,1.023,0.391,1.414,0S20.098,9.684,19.707,9.293z"/>
</svg>
