<?xml version="1.0" encoding="utf-8"?>
<!-- Generator: Adobe Illustrator 16.0.0, SVG Export Plug-In . SVG Version: 6.00 Build 0)  -->
<!DOCTYPE svg PUBLIC "-//W3C//DTD SVG 1.1//EN" "http://www.w3.org/Graphics/SVG/1.1/DTD/svg11.dtd">
<svg version="1.1" id="Layer_1" xmlns="http://www.w3.org/2000/svg" xmlns:xlink="http://www.w3.org/1999/xlink" x="0px" y="0px"
	 width="20px" height="20px" viewBox="0 0 20 20" enable-background="new 0 0 20 20" xml:space="preserve">
<circle fill="#A9CD38" cx="10" cy="10" r="9"/>
<circle fill="#FFD630" cx="10" cy="10" r="9"/>
<g>
	<g>
		<path fill="#FFFFFF" d="M18.367,10.643h-1.158c-0.355,0-0.643-0.289-0.643-0.643s0.287-0.643,0.643-0.643h1.158
			c0.354,0,0.641,0.289,0.641,0.643S18.721,10.643,18.367,10.643z"/>
	</g>
	<g>
		<path fill="#FFFFFF" d="M10.001,20C4.487,20,0,15.512,0,10C0,4.486,4.486,0,10,0c5.516,0,10,4.486,10,10
			C20,15.512,15.516,20,10.001,20z M10.001,1.285c-4.806,0-8.715,3.909-8.715,8.715c0,4.807,3.91,8.713,8.715,8.713
			c4.804,0,8.714-3.906,8.714-8.713C18.715,5.194,14.805,1.285,10.001,1.285z"/>
	</g>
	<g>
		<path fill="#FFFFFF" d="M10.001,2.614c-0.354,0-0.643-0.289-0.643-0.643V0.68c0-0.354,0.289-0.641,0.643-0.641
			c0.355,0,0.642,0.286,0.642,0.641v1.291C10.643,2.325,10.356,2.614,10.001,2.614z"/>
	</g>
	<g>
		<path fill="#FFFFFF" d="M10.001,19.961c-0.354,0-0.643-0.288-0.643-0.643v-1.291c0-0.354,0.289-0.639,0.643-0.639
			c0.355,0,0.642,0.285,0.642,0.639v1.291C10.643,19.673,10.356,19.961,10.001,19.961z"/>
	</g>
	<g>
		<path fill="#FFFFFF" d="M1.973,10.643H0.681c-0.355,0-0.642-0.289-0.642-0.643s0.286-0.643,0.642-0.643h1.292
			c0.354,0,0.642,0.289,0.642,0.643S2.327,10.643,1.973,10.643z"/>
	</g>
	<g>
		<path fill="#FFFFFF" d="M14.949,10.643h-4.948c-0.354,0-0.643-0.289-0.643-0.643s0.289-0.643,0.643-0.643h4.948
			c0.354,0,0.641,0.289,0.641,0.643S15.303,10.643,14.949,10.643z"/>
	</g>
	<g>
		<path fill="#FFFFFF" d="M10.001,10.51c-0.354,0-0.643-0.289-0.643-0.641V4.273c0-0.356,0.289-0.643,0.643-0.643
			c0.355,0,0.642,0.287,0.642,0.643v5.596C10.643,10.221,10.356,10.51,10.001,10.51z"/>
	</g>
</g>
</svg>
