<?xml version="1.0" encoding="utf-8"?>
<!-- Generator: Adobe Illustrator 16.0.0, SVG Export Plug-In . SVG Version: 6.00 Build 0)  -->
<!DOCTYPE svg PUBLIC "-//W3C//DTD SVG 1.1//EN" "http://www.w3.org/Graphics/SVG/1.1/DTD/svg11.dtd">
<svg version="1.1" id="Layer_1" xmlns="http://www.w3.org/2000/svg" xmlns:xlink="http://www.w3.org/1999/xlink" x="0px" y="0px"
	 width="20px" height="20px" viewBox="0 0 20 20" enable-background="new 0 0 20 20" xml:space="preserve">
<path fill="#FFFFFF" d="M18.701,5.774l-2.904-2.905c-0.402-0.401-1.052-0.401-1.453,0c0,0-11.464,11.463-11.619,11.619
	C2.57,14.643,2.57,14.891,2.57,14.891v3.595C2.57,18.77,2.8,19,3.084,19h3.594c0,0,0.229,0.021,0.403-0.155
	C7.256,18.67,18.701,7.226,18.701,7.226C19.101,6.825,19.101,6.176,18.701,5.774z M4.11,17.972l-0.513-0.513v-2.355l2.868,2.868
	H4.11z M7.209,17.264L4.305,14.36l7.134-7.134l2.904,2.905L7.209,17.264z M15.07,9.405L12.165,6.5l0.726-0.726l2.906,2.904
	L15.07,9.405z M17.611,6.863l-1.089,1.089l-2.905-2.905l1.09-1.089c0.201-0.201,0.525-0.201,0.727,0l2.178,2.179
	C17.812,6.337,17.812,6.663,17.611,6.863z"/>
</svg>
