<?xml version="1.0" encoding="utf-8"?>
<!-- Generator: Adobe Illustrator 16.0.0, SVG Export Plug-In . SVG Version: 6.00 Build 0)  -->
<!DOCTYPE svg PUBLIC "-//W3C//DTD SVG 1.1//EN" "http://www.w3.org/Graphics/SVG/1.1/DTD/svg11.dtd">
<svg version="1.1" id="Layer_1" xmlns="http://www.w3.org/2000/svg" xmlns:xlink="http://www.w3.org/1999/xlink" x="0px" y="0px"
	 width="50px" height="50px" viewBox="-9.174 -10.059 50 50" enable-background="new -9.174 -10.059 50 50" xml:space="preserve">
<g>
	<g>
		<g>
			<path fill="#2DBAE7" d="M15.838,19.77c-2.685,0-5.065-2.199-6.021-5.514c-0.024-0.002-0.049-0.005-0.072-0.007
				c-0.989-0.009-1.67-1.156-1.67-2.677c0-0.429,0.058-0.85,0.167-1.225C8.128,9.804,8.075,9.33,8.075,8.863
				c0-4.101,3.483-7.438,7.763-7.438c4.326,0,7.98,3.406,7.98,7.438c0,0.463-0.055,0.95-0.167,1.484
				c0.109,0.376,0.167,0.797,0.167,1.225c0,1.505-0.667,2.644-1.556,2.668C21.278,17.425,18.59,19.77,15.838,19.77z M10.197,13.242
				c0.064,0,0.129,0.013,0.19,0.038c0.147,0.061,0.256,0.188,0.294,0.342c0.763,3.079,2.835,5.147,5.156,5.147
				c2.404,0,4.859-2.31,5.59-5.257c0.039-0.156,0.149-0.283,0.298-0.344c0.149-0.06,0.318-0.044,0.453,0.041
				c0.204-0.005,0.64-0.542,0.64-1.638c0-0.374-0.055-0.734-0.158-1.044c-0.028-0.086-0.033-0.179-0.014-0.268
				c0.117-0.521,0.172-0.965,0.172-1.398c0-3.49-3.196-6.438-6.98-6.438c-3.729,0-6.763,2.888-6.763,6.438
				c0,0.429,0.054,0.874,0.171,1.399c0.02,0.088,0.015,0.181-0.014,0.267c-0.103,0.309-0.157,0.669-0.157,1.044
				c0,1.095,0.434,1.668,0.584,1.668c0.045,0,0.114,0.006,0.193,0.015c0.057,0.006,0.124,0.014,0.182,0.015
				C10.086,13.251,10.142,13.242,10.197,13.242z"/>
		</g>
		<g>
			<path fill="#2DBAE7" d="M28.521,27.575H3.371c-0.276,0-0.5-0.224-0.5-0.5v-1.013c0-2.812,1.798-6.473,4.703-7.484l2.861-0.554
				c0.171-0.032,0.346,0.025,0.462,0.153c1.375,1.5,3.13,2.326,4.942,2.326c1.811,0,3.565-0.826,4.942-2.326
				c0.117-0.128,0.287-0.186,0.463-0.153l2.787,0.535c2.969,1.028,4.989,4.888,4.989,7.72v0.796
				C29.021,27.352,28.798,27.575,28.521,27.575z M3.871,26.575h24.15v-0.296c0-2.491-1.816-5.91-4.248-6.756l-2.447-0.466
				c-1.539,1.58-3.478,2.446-5.486,2.446c-2.011,0-3.948-0.866-5.486-2.445l-2.521,0.483c-2.42,0.848-3.962,4.051-3.962,6.521
				V26.575z"/>
		</g>
		<g>
			<path fill="#2DBAE7" d="M22.885,11.098h-1.301c-0.124,0-0.244-0.046-0.336-0.13c-0.036-0.032-0.764-0.703-0.975-1.619
				c-2.374-0.148-4.471-1.454-5.484-2.646c-0.079,0.119-0.172,0.227-0.278,0.326c-0.821,0.766-2.164,0.671-2.966,0.618
				c-0.102-0.007-0.193-0.014-0.271-0.017c-0.219,0.329-0.431,1.666-0.465,2.98c-0.007,0.271-0.229,0.487-0.5,0.487H9.008
				c-0.276,0-0.5-0.224-0.5-0.5s0.224-0.5,0.5-0.5h0.818c0.11-2.303,0.563-3.47,1.35-3.47c0.112,0,0.263,0.01,0.438,0.022
				c0.638,0.043,1.712,0.118,2.215-0.352c0.213-0.199,0.316-0.495,0.316-0.905c0-0.276,0.224-0.5,0.5-0.5s0.5,0.224,0.5,0.5
				c0,0.601,2.436,2.969,5.571,2.969c0.276,0,0.5,0.224,0.5,0.5c0,0.485,0.346,0.977,0.577,1.235h1.091c0.276,0,0.5,0.224,0.5,0.5
				S23.161,11.098,22.885,11.098z"/>
		</g>
		<g>
			<path fill="#2DBAE7" d="M13.778,11.965h-0.867c-0.276,0-0.5-0.224-0.5-0.5s0.224-0.5,0.5-0.5h0.867c0.276,0,0.5,0.224,0.5,0.5
				S14.055,11.965,13.778,11.965z"/>
		</g>
		<g>
			<path fill="#2DBAE7" d="M18.982,11.965h-0.867c-0.276,0-0.5-0.224-0.5-0.5s0.224-0.5,0.5-0.5h0.867c0.276,0,0.5,0.224,0.5,0.5
				S19.259,11.965,18.982,11.965z"/>
		</g>
	</g>
</g>
</svg>
