<?xml version="1.0" encoding="utf-8"?>
<!-- Generator: Adobe Illustrator 16.0.0, SVG Export Plug-In . SVG Version: 6.00 Build 0)  -->
<!DOCTYPE svg PUBLIC "-//W3C//DTD SVG 1.1//EN" "http://www.w3.org/Graphics/SVG/1.1/DTD/svg11.dtd">
<svg version="1.1" id="Layer_1" xmlns="http://www.w3.org/2000/svg" xmlns:xlink="http://www.w3.org/1999/xlink" x="0px" y="0px"
	 width="20px" height="20px" viewBox="10.755 9.211 20 20" enable-background="new 10.755 9.211 20 20" xml:space="preserve">
<g>
	<path fill-rule="evenodd" clip-rule="evenodd" fill="#FFFFFF" d="M13.859,9.866h13.77c1.629,0,2.951,1.321,2.951,2.952v12.791
		c0,1.63-1.321,2.952-2.951,2.952h-13.77c-1.629,0-2.95-1.321-2.95-2.952V12.818C10.909,11.188,12.23,9.866,13.859,9.866z"/>
	<path fill-rule="evenodd" clip-rule="evenodd" fill="#2DBAE6" d="M25.847,18.357l-5.584,5.009c-0.189,0.17-0.451,0.275-0.74,0.275
		s-0.551-0.105-0.74-0.275l-3.141-2.818c-0.189-0.169-0.307-0.404-0.307-0.663c0-0.52,0.469-0.94,1.047-0.94
		c0.289,0,0.551,0.106,0.74,0.274l2.4,2.155l4.844-4.345c0.189-0.171,0.451-0.275,0.74-0.275c0.578,0,1.047,0.421,1.047,0.938
		C26.153,17.952,26.036,18.188,25.847,18.357"/>
</g>
</svg>
