<?xml version="1.0" encoding="utf-8"?>
<!-- Generator: Adobe Illustrator 16.0.0, SVG Export Plug-In . SVG Version: 6.00 Build 0)  -->
<!DOCTYPE svg PUBLIC "-//W3C//DTD SVG 1.1//EN" "http://www.w3.org/Graphics/SVG/1.1/DTD/svg11.dtd">
<svg version="1.1" id="Layer_1" xmlns="http://www.w3.org/2000/svg" xmlns:xlink="http://www.w3.org/1999/xlink" x="0px" y="0px"
	 width="30px" height="30px" viewBox="0 0 30 30" enable-background="new 0 0 30 30" xml:space="preserve">
<g id="_x31_0_19_">
	<g>
		<path fill="#FFFFFF" d="M10,9h18c0.553,0,1-0.447,1-1s-0.447-1-1-1H10C9.447,7,9,7.447,9,8S9.447,9,10,9z M3,22
			c-1.104,0-2,0.896-2,2s0.896,2,2,2s2-0.896,2-2S4.104,22,3,22z M3,14c-1.104,0-2,0.896-2,2s0.896,2,2,2s2-0.896,2-2S4.104,14,3,14
			z M28,23H10c-0.553,0-1,0.448-1,1c0,0.553,0.447,1,1,1h18c0.553,0,1-0.447,1-1C29,23.448,28.553,23,28,23z M28,15H10
			c-0.553,0-1,0.448-1,1c0,0.553,0.447,1,1,1h18c0.553,0,1-0.447,1-1C29,15.448,28.553,15,28,15z M3,6C1.896,6,1,6.896,1,8
			s0.896,2,2,2s2-0.896,2-2S4.104,6,3,6z"/>
	</g>
</g>
</svg>
