<?xml version="1.0" encoding="utf-8"?>
<!-- Generator: Adobe Illustrator 16.0.0, SVG Export Plug-In . SVG Version: 6.00 Build 0)  -->
<!DOCTYPE svg PUBLIC "-//W3C//DTD SVG 1.1//EN" "http://www.w3.org/Graphics/SVG/1.1/DTD/svg11.dtd">
<svg version="1.1" id="Layer_1" xmlns="http://www.w3.org/2000/svg" xmlns:xlink="http://www.w3.org/1999/xlink" x="0px" y="0px"
	 width="20px" height="20px" viewBox="10.755 9.211 20 20" enable-background="new 10.755 9.211 20 20" xml:space="preserve">
<g id="_x34__1_">
	<g>
		<path fill="#FFFFFF" d="M29.932,28.159l-4.999-4.92c1.309-1.422,2.112-3.303,2.112-5.372c0-4.427-3.646-8.016-8.145-8.016
			c-4.499,0-8.146,3.589-8.146,8.016s3.646,8.016,8.146,8.016c1.943,0,3.727-0.673,5.126-1.79l5.019,4.938
			c0.245,0.241,0.642,0.241,0.887,0C30.176,28.79,30.176,28.399,29.932,28.159z M18.901,24.649c-3.807,0-6.893-3.036-6.893-6.782
			s3.086-6.782,6.893-6.782c3.806,0,6.893,3.036,6.893,6.782S22.707,24.649,18.901,24.649z"/>
	</g>
</g>
</svg>
