<?xml version="1.0" encoding="utf-8"?>
<!-- Generator: Adobe Illustrator 16.0.0, SVG Export Plug-In . SVG Version: 6.00 Build 0)  -->
<!DOCTYPE svg PUBLIC "-//W3C//DTD SVG 1.1//EN" "http://www.w3.org/Graphics/SVG/1.1/DTD/svg11.dtd">
<svg version="1.1" id="Layer_1" xmlns="http://www.w3.org/2000/svg" xmlns:xlink="http://www.w3.org/1999/xlink" x="0px" y="0px"
	 width="30px" height="30px" viewBox="-5 -5 30 30" enable-background="new -5 -5 30 30" xml:space="preserve">
<g>
	<path fill-rule="evenodd" clip-rule="evenodd" fill="#FFFFFF" d="M10-4.133c7.878,0,14.268,6.388,14.268,14.267
		S17.878,24.401,10,24.401c-7.88,0-14.268-6.389-14.268-14.268S2.12-4.133,10-4.133z"/>
	<g id="_x36__3_">
		<g>
			<path fill="#2DBAE6" d="M14.997,9.301h-4.164V5.136c0-0.459-0.374-0.833-0.833-0.833c-0.46,0-0.833,0.373-0.833,0.833v4.165
				H5.003c-0.46,0-0.833,0.373-0.833,0.833s0.373,0.833,0.833,0.833h4.165v4.164c0,0.46,0.373,0.834,0.833,0.834
				c0.459,0,0.833-0.374,0.833-0.834v-4.164h4.164c0.46,0,0.833-0.373,0.833-0.833S15.457,9.301,14.997,9.301z"/>
		</g>
	</g>
</g>
</svg>
