<?xml version="1.0" encoding="utf-8"?>
<!-- Generator: Adobe Illustrator 16.0.0, SVG Export Plug-In . SVG Version: 6.00 Build 0)  -->
<!DOCTYPE svg PUBLIC "-//W3C//DTD SVG 1.1//EN" "http://www.w3.org/Graphics/SVG/1.1/DTD/svg11.dtd">
<svg version="1.1" id="Layer_1" xmlns="http://www.w3.org/2000/svg" xmlns:xlink="http://www.w3.org/1999/xlink" x="0px" y="0px"
	 width="30px" height="30px" viewBox="0 0 30 30" enable-background="new 0 0 30 30" xml:space="preserve">
<g id="_x37__16_">
	<g>
		<path fill="#191616" d="M15,3.969c-0.507,0-0.919,0.411-0.919,0.919v9.215H6.726c-0.508,0-0.919,0.412-0.919,0.92
			c0,0.506,0.411,0.918,0.919,0.918H15c0.508,0,0.919-0.412,0.919-0.918V4.888C15.919,4.38,15.508,3.969,15,3.969z M15,0.292
			C6.876,0.292,0.291,6.878,0.291,15c0,8.125,6.585,14.708,14.709,14.708c8.123,0,14.709-6.584,14.709-14.708
			C29.709,6.878,23.123,0.292,15,0.292z M15,27.871C7.891,27.871,2.129,22.109,2.129,15C2.129,7.893,7.891,2.13,15,2.13
			c7.108,0,12.87,5.763,12.87,12.87C27.87,22.109,22.108,27.871,15,27.871z"/>
	</g>
</g>
</svg>
