<?xml version="1.0" encoding="utf-8"?>
<!-- Generator: Adobe Illustrator 16.0.0, SVG Export Plug-In . SVG Version: 6.00 Build 0)  -->
<!DOCTYPE svg PUBLIC "-//W3C//DTD SVG 1.1//EN" "http://www.w3.org/Graphics/SVG/1.1/DTD/svg11.dtd">
<svg version="1.1" id="Layer_1" xmlns="http://www.w3.org/2000/svg" xmlns:xlink="http://www.w3.org/1999/xlink" x="0px" y="0px"
	 width="30px" height="30px" viewBox="0 0 30 30" enable-background="new 0 0 30 30" xml:space="preserve">
<g id="_x35__9_">
	<g>
		<path fill="#5A6F8A" d="M21.478,16c-1.77,0-3.315,0.925-4.204,2.312l-5.354-3.06c0.346-0.68,0.559-1.438,0.559-2.252
			c0-0.503-0.097-0.979-0.235-1.437l5.571-3.184C18.727,9.37,20.024,10,21.478,10c2.762,0,5-2.238,5-5s-2.238-5-5-5s-5,2.238-5,5
			c0,0.503,0.097,0.979,0.235,1.438L11.142,9.62C10.229,8.631,8.931,8,7.478,8c-2.762,0-5,2.238-5,5s2.238,5,5,5
			c1.14,0,2.179-0.396,3.02-1.038L10.478,17l6.055,3.46c-0.02,0.18-0.055,0.354-0.055,0.54c0,2.762,2.238,5,5,5s5-2.238,5-5
			S24.239,16,21.478,16z M21.478,2c1.657,0,3,1.343,3,3s-1.343,3-3,3s-3-1.343-3-3S19.82,2,21.478,2z M7.478,16
			c-1.657,0-3-1.343-3-3c0-1.656,1.343-3,3-3s3,1.344,3,3C10.478,14.657,9.135,16,7.478,16z M21.478,24c-1.657,0-3-1.343-3-3
			s1.343-3,3-3s3,1.343,3,3S23.135,24,21.478,24z"/>
	</g>
</g>
</svg>
