<?xml version="1.0" encoding="utf-8"?>
<!-- Generator: Adobe Illustrator 16.0.0, SVG Export Plug-In . SVG Version: 6.00 Build 0)  -->
<!DOCTYPE svg PUBLIC "-//W3C//DTD SVG 1.1//EN" "http://www.w3.org/Graphics/SVG/1.1/DTD/svg11.dtd">
<svg version="1.1" id="Layer_1" xmlns="http://www.w3.org/2000/svg" xmlns:xlink="http://www.w3.org/1999/xlink" x="0px" y="0px"
	 width="30px" height="30px" viewBox="0 0 30 30" enable-background="new 0 0 30 30" xml:space="preserve">
<path fill="#5A6F8A" d="M27.335,0.902H2.665c-0.974,0-1.763,0.788-1.763,1.762v17.623c0,0.973,0.789,1.762,1.763,1.762h9.691v5.285
	H8.832c-0.486,0-0.881,0.396-0.881,0.883s0.395,0.881,0.881,0.881h12.335c0.487,0,0.882-0.395,0.882-0.881s-0.395-0.883-0.882-0.883
	h-3.523v-5.285h9.691c0.974,0,1.763-0.789,1.763-1.762V2.664C29.098,1.69,28.309,0.902,27.335,0.902z M15.881,27.334h-1.762v-5.285
	h1.762V27.334z M27.335,19.406c0,0.486-0.394,0.881-0.881,0.881H3.546c-0.487,0-0.881-0.395-0.881-0.881v-0.881h24.67V19.406z
	 M27.335,16.764H2.665V3.546c0-0.487,0.394-0.882,0.881-0.882h22.908c0.487,0,0.881,0.395,0.881,0.882V16.764z"/>
</svg>
