<?xml version="1.0" encoding="utf-8"?>
<!-- Generator: Adobe Illustrator 16.0.0, SVG Export Plug-In . SVG Version: 6.00 Build 0)  -->
<!DOCTYPE svg PUBLIC "-//W3C//DTD SVG 1.1//EN" "http://www.w3.org/Graphics/SVG/1.1/DTD/svg11.dtd">
<svg version="1.1" id="Layer_1" xmlns="http://www.w3.org/2000/svg" xmlns:xlink="http://www.w3.org/1999/xlink" x="0px" y="0px"
	 width="30px" height="30px" viewBox="0 0 30 30" enable-background="new 0 0 30 30" xml:space="preserve">
<g>
	<path fill="#5A6F8A" d="M27.229,11.504h-2.355c-0.125-0.348-0.266-0.686-0.422-1.016l1.665-1.665
		c0.683-0.683,0.683-1.79,0.001-2.471l-2.471-2.471c-0.682-0.682-1.789-0.682-2.471,0L19.51,5.548
		c-0.329-0.158-0.668-0.298-1.016-0.422V2.772c0-0.966-0.783-1.748-1.747-1.748h-3.495c-0.964,0-1.746,0.782-1.746,1.748v2.354
		c-0.348,0.124-0.687,0.265-1.016,0.422L8.824,3.882C8.142,3.2,7.035,3.2,6.354,3.882L3.883,6.353c-0.682,0.682-0.682,1.788,0,2.47
		l1.666,1.666c-0.156,0.33-0.298,0.668-0.421,1.016H2.771c-0.965,0-1.746,0.782-1.746,1.747v3.494c0,0.965,0.781,1.747,1.746,1.747
		h2.356c0.123,0.349,0.265,0.686,0.422,1.016l-1.667,1.668c-0.683,0.681-0.683,1.79,0,2.47l2.47,2.473
		c0.683,0.68,1.789,0.68,2.471-0.002l1.667-1.667c0.33,0.157,0.668,0.298,1.016,0.421v2.357c-0.001,0.965,0.782,1.748,1.747,1.746
		l3.494,0.002c0.965-0.002,1.747-0.783,1.747-1.748V24.87c0.348-0.123,0.686-0.264,1.016-0.421l1.667,1.667
		c0.681,0.682,1.788,0.682,2.47,0l2.471-2.471c0.682-0.682,0.682-1.789,0-2.47l-1.667-1.668c0.157-0.33,0.298-0.667,0.423-1.016
		h2.355c0.965,0,1.746-0.782,1.746-1.747v-3.494C28.975,12.287,28.193,11.504,27.229,11.504z M27.229,15.872
		c0,0.482-0.391,0.873-0.873,0.873h-2.797c-0.226,1.115-0.666,2.151-1.273,3.067l1.98,1.98c0.341,0.341,0.341,0.894,0,1.235
		l-1.236,1.234c-0.342,0.342-0.895,0.342-1.235,0l-1.979-1.979c-0.917,0.605-1.953,1.047-3.067,1.273v2.797
		c0,0.482-0.391,0.873-0.874,0.873h-1.746c-0.483,0-0.874-0.391-0.874-0.873v-2.797c-1.114-0.227-2.15-0.668-3.067-1.273l-1.98,1.98
		c-0.341,0.342-0.894,0.341-1.235,0l-1.234-1.235c-0.342-0.343-0.342-0.896,0-1.236l1.98-1.98c-0.607-0.916-1.049-1.952-1.274-3.067
		H3.646c-0.483,0-0.874-0.391-0.874-0.873v-1.747c0-0.483,0.391-0.874,0.874-0.874h2.796c0.226-1.115,0.667-2.15,1.273-3.067
		L5.736,8.206c-0.343-0.341-0.342-0.894,0-1.235l1.235-1.235c0.342-0.341,0.894-0.342,1.235,0l1.979,1.979
		c0.916-0.607,1.953-1.048,3.067-1.274V3.646c-0.001-0.484,0.391-0.874,0.874-0.874h1.746c0.483,0,0.874,0.39,0.874,0.874v2.794
		c1.114,0.226,2.151,0.667,3.067,1.274l1.979-1.979c0.342-0.342,0.895-0.341,1.235,0l1.235,1.235c0.341,0.341,0.342,0.893,0,1.235
		l-1.979,1.978c0.607,0.917,1.048,1.953,1.273,3.067h2.797c0.482,0,0.873,0.391,0.873,0.874V15.872z"/>
	<path fill="#5A6F8A" d="M15,9.758c-2.895,0-5.24,2.346-5.24,5.241c0,2.894,2.346,5.24,5.24,5.24s5.24-2.347,5.24-5.24
		C20.24,12.104,17.895,9.758,15,9.758z M15,18.492c-1.93,0-3.494-1.564-3.494-3.493c0-1.93,1.564-3.495,3.494-3.495
		s3.494,1.564,3.494,3.495C18.494,16.928,16.93,18.492,15,18.492z"/>
</g>
</svg>
