<?xml version="1.0" encoding="utf-8"?>
<!-- Generator: Adobe Illustrator 16.0.0, SVG Export Plug-In . SVG Version: 6.00 Build 0)  -->
<!DOCTYPE svg PUBLIC "-//W3C//DTD SVG 1.1//EN" "http://www.w3.org/Graphics/SVG/1.1/DTD/svg11.dtd">
<svg version="1.1" id="Layer_1" xmlns="http://www.w3.org/2000/svg" xmlns:xlink="http://www.w3.org/1999/xlink" x="0px" y="0px"
	 width="20px" height="20px" viewBox="0 0 20 20" enable-background="new 0 0 20 20" xml:space="preserve">
<circle fill="#6A66CC" cx="10" cy="10" r="9"/>
<circle fill="#6A66CC" cx="10" cy="10" r="9"/>
<g>
	<g>
		<g>
			<path fill="#FFFFFF" d="M8.282,15.082L8.282,15.082c-0.106,0-0.208-0.043-0.284-0.119c-0.098-0.096-0.14-0.236-0.118-0.383
				l0.003-0.021h0.001c0.001-0.014,0.004-0.031,0.009-0.061c0,0.002-0.003,0.025,0.002,0.063l0,0
				C7.891,14.46,7.901,14.303,7.92,14.02l0.01-0.146l-0.147,0.01c-0.122,0.008-0.243,0.012-0.342,0.012
				c-0.153,0-0.327,0-0.459-0.132c-0.122-0.122-0.156-0.255-0.119-0.802l0.01-0.146l-0.147,0.01
				c-0.122,0.008-0.243,0.013-0.343,0.013c-0.152,0-0.326,0-0.458-0.132c-0.122-0.123-0.156-0.256-0.12-0.801l0.01-0.146
				l-0.148,0.009c-0.096,0.007-0.417,0.028-0.482,0.028c-0.001,0-0.003,0-0.005,0c-0.023,0.004-0.039,0.006-0.051,0.008
				c-0.006,0-0.013,0.002-0.021,0.002c-0.155,0.025-0.288-0.021-0.384-0.115c-0.186-0.188-0.159-0.409,0.079-0.661
				c0.059-0.063,0.142-0.147,0.234-0.239l5.4-5.401c0.162-0.162,0.377-0.251,0.607-0.251s0.445,0.089,0.607,0.251l2.646,2.647
				c0.162,0.161,0.251,0.377,0.251,0.607c0,0.229-0.089,0.444-0.251,0.606l-5.4,5.401C8.533,15.015,8.466,15.082,8.282,15.082z
				 M7.936,13.071c0.226,0,0.433,0.088,0.583,0.249c0.101,0.107,0.167,0.238,0.195,0.381l5.018-5.018
				c0.014-0.014,0.018-0.03,0.018-0.041c0-0.012-0.004-0.027-0.018-0.041l-2.647-2.648c-0.026-0.026-0.054-0.027-0.081,0
				l-5.017,5.019c0.16,0.032,0.305,0.112,0.417,0.232c0.15,0.162,0.225,0.377,0.209,0.604l-0.01,0.149
				c-0.002,0.023-0.003,0.048-0.004,0.07c0.024-0.002,0.047-0.002,0.071-0.004l0.149-0.01c0.25-0.017,0.478,0.072,0.642,0.248
				c0.151,0.16,0.226,0.375,0.21,0.604l-0.01,0.148c-0.002,0.025-0.003,0.049-0.004,0.072c0.023-0.002,0.047-0.004,0.071-0.005
				l0.149-0.01C7.896,13.071,7.916,13.071,7.936,13.071z M4.9,11.68c0.019,0.021,0.041,0.038,0.065,0.053v-0.001
				C4.941,11.717,4.919,11.699,4.9,11.68z"/>
		</g>
	</g>
	<g>
		<g>
			<path fill="#FFFFFF" d="M4.737,15.667L4.737,15.667c-0.219,0-0.414-0.087-0.548-0.243c-0.138-0.162-0.195-0.377-0.159-0.605
				l0.474-3.007c0.078-0.492,0.116-0.739,0.427-0.789l0.074-0.012c0.002,0,0.003,0,0.004-0.001c0.003,0,0.007,0,0.012-0.002
				l0.043-0.006c0.05-0.008,0.093-0.012,0.134-0.009c0.048-0.003,0.196-0.011,0.416-0.025l0.149-0.011
				c0.249-0.016,0.478,0.073,0.642,0.248c0.15,0.162,0.225,0.377,0.209,0.604l-0.01,0.149c-0.002,0.023-0.003,0.048-0.004,0.07
				c0.024-0.002,0.047-0.002,0.071-0.004l0.149-0.01c0.25-0.017,0.478,0.072,0.642,0.248c0.151,0.16,0.226,0.375,0.21,0.604
				l-0.01,0.148c-0.002,0.025-0.003,0.049-0.004,0.072c0.023-0.002,0.047-0.004,0.071-0.005l0.149-0.01
				c0.249-0.017,0.478,0.073,0.642,0.247c0.151,0.162,0.226,0.376,0.21,0.604l-0.01,0.149c-0.014,0.218-0.023,0.366-0.026,0.417
				c0.003,0.057-0.003,0.105-0.009,0.133l-0.007,0.049c-0.001,0.004-0.002,0.008-0.002,0.013l-0.012,0.073
				c-0.047,0.309-0.295,0.348-0.788,0.426l-3.007,0.474C4.825,15.664,4.78,15.667,4.737,15.667z M4.737,14.867v0.399V14.867
				L4.737,14.867z M5.319,11.789c-0.008,0.043-0.016,0.093-0.024,0.147l-0.46,2.915l2.916-0.459c0.056-0.01,0.104-0.018,0.148-0.025
				c0.004-0.089,0.012-0.201,0.022-0.348l0.01-0.146l-0.147,0.01c-0.122,0.008-0.243,0.012-0.342,0.012c-0.001,0-0.002,0-0.002,0
				c-0.153,0-0.326,0-0.458-0.132c-0.122-0.122-0.156-0.255-0.119-0.802l0.01-0.146l-0.147,0.01
				c-0.122,0.008-0.243,0.013-0.343,0.013c-0.152,0-0.326,0-0.458-0.132c-0.122-0.123-0.156-0.256-0.12-0.801l0.01-0.146
				l-0.148,0.009C5.604,11.771,5.441,11.781,5.319,11.789z M4.9,11.68c0.019,0.021,0.041,0.038,0.065,0.053l0,0
				C4.941,11.717,4.919,11.699,4.9,11.68z M5.243,10.998c0.042,0.008,0.083,0.021,0.122,0.041
				C5.319,11.016,5.277,11.004,5.243,10.998z"/>
		</g>
	</g>
	<g>
		<g>
			<path fill="#FFFFFF" d="M5.624,15.533c-0.102,0-0.204-0.039-0.283-0.117l-1.07-1.07c-0.157-0.156-0.157-0.41,0-0.566
				c0.156-0.156,0.41-0.156,0.566,0l1.07,1.07c0.157,0.156,0.157,0.41,0,0.566C5.829,15.494,5.727,15.533,5.624,15.533z"/>
		</g>
	</g>
	<g>
		<g>
			<path fill="#FFFFFF" d="M6.191,12.77c-0.088,0-0.176-0.033-0.243-0.101c-0.134-0.134-0.134-0.351,0-0.485l5.898-5.898
				c0.134-0.134,0.351-0.134,0.485,0c0.133,0.134,0.133,0.352,0,0.485l-5.899,5.898C6.366,12.736,6.278,12.77,6.191,12.77z"/>
		</g>
	</g>
	<g>
		<g>
			<path fill="#FFFFFF" d="M7.261,13.84c-0.088,0-0.175-0.034-0.243-0.102c-0.134-0.133-0.134-0.352,0-0.484l5.898-5.899
				c0.135-0.134,0.352-0.134,0.485,0c0.135,0.134,0.135,0.352,0,0.485l-5.897,5.898C7.436,13.806,7.349,13.84,7.261,13.84z"/>
		</g>
	</g>
	<g>
		<g>
			<path fill="#FFFFFF" d="M14.34,8.853c-0.229,0-0.445-0.09-0.607-0.251l-2.647-2.648c-0.334-0.334-0.334-0.879,0-1.214
				l0.927-0.926c0.162-0.162,0.377-0.25,0.607-0.25c0.229,0,0.444,0.089,0.606,0.25l2.646,2.647
				c0.162,0.162,0.251,0.377,0.251,0.607c0,0.229-0.089,0.445-0.251,0.607l-0.927,0.926C14.785,8.763,14.569,8.853,14.34,8.853z
				 M12.619,4.364c-0.012,0-0.027,0.003-0.041,0.017l-0.926,0.926c-0.022,0.021-0.022,0.059,0,0.081l2.646,2.647
				c0.027,0.026,0.055,0.026,0.081,0l0.927-0.926c0.014-0.014,0.016-0.03,0.016-0.041c0-0.011-0.002-0.027-0.016-0.041l-2.647-2.647
				C12.645,4.367,12.629,4.364,12.619,4.364z"/>
		</g>
	</g>
</g>
</svg>
