<?xml version="1.0" encoding="utf-8"?>
<!-- Generator: Adobe Illustrator 16.0.0, SVG Export Plug-In . SVG Version: 6.00 Build 0)  -->
<!DOCTYPE svg PUBLIC "-//W3C//DTD SVG 1.1//EN" "http://www.w3.org/Graphics/SVG/1.1/DTD/svg11.dtd">
<svg version="1.1" id="Layer_1" xmlns="http://www.w3.org/2000/svg" xmlns:xlink="http://www.w3.org/1999/xlink" x="0px" y="0px"
	 width="26.563px" height="28.875px" viewBox="-2.063 0.875 26.563 28.875" enable-background="new -2.063 0.875 26.563 28.875"
	 xml:space="preserve">
<g id="_x37__2_">
	<g>
		<path fill="#FFFFFF" d="M23.775,15.308c-0.753-0.755-1.979-0.755-2.734,0l-7.968,7.969V2.808c0-1.068-0.865-1.933-1.934-1.933
			c-1.066,0-1.934,0.864-1.934,1.933v20.469l-7.968-7.969c-0.756-0.755-1.979-0.755-2.734,0c-0.755,0.756-0.755,1.979,0,2.734
			L9.44,28.979c0.465,0.464,1.099,0.607,1.699,0.502c0.601,0.105,1.235-0.038,1.699-0.502l10.937-10.937
			C24.53,17.287,24.53,16.063,23.775,15.308z"/>
	</g>
</g>
</svg>
