<?xml version="1.0" encoding="utf-8"?>
<!-- Generator: Adobe Illustrator 16.0.0, SVG Export Plug-In . SVG Version: 6.00 Build 0)  -->
<!DOCTYPE svg PUBLIC "-//W3C//DTD SVG 1.1//EN" "http://www.w3.org/Graphics/SVG/1.1/DTD/svg11.dtd">
<svg version="1.1" id="Layer_1" xmlns="http://www.w3.org/2000/svg" xmlns:xlink="http://www.w3.org/1999/xlink" x="0px" y="0px"
	 width="72.965px" height="75px" viewBox="0 0 72.965 75" enable-background="new 0 0 72.965 75" xml:space="preserve">
<g>
	<g>
		<g>
			
				<line fill="#E1F4FD" stroke="#3E3B3A" stroke-linecap="round" stroke-linejoin="round" stroke-miterlimit="10" x1="4.557" y1="69.265" x2="11.846" y2="69.18"/>
			
				<line fill="#E1F4FD" stroke="#3E3B3A" stroke-linecap="round" stroke-linejoin="round" stroke-miterlimit="10" x1="8.244" y1="72.866" x2="8.159" y2="65.577"/>
		</g>
		<g>
			
				<line fill="#E1F4FD" stroke="#3E3B3A" stroke-linecap="round" stroke-linejoin="round" stroke-miterlimit="10" x1="12.876" y1="70.205" x2="18.109" y2="70.145"/>
			
				<line fill="#E1F4FD" stroke="#3E3B3A" stroke-linecap="round" stroke-linejoin="round" stroke-miterlimit="10" x1="15.523" y1="72.791" x2="15.462" y2="67.559"/>
		</g>
		<path fill="#28AAE2" stroke="#3E3B3A" stroke-linecap="round" stroke-linejoin="round" stroke-miterlimit="10" d="M2.513,63.238
			l0.001,0.138c0.008,0.647,0.617,1.261,1.323,1.223c0.708-0.038,1.302-0.56,1.294-1.254l-0.002-0.137
			c-0.007-0.648-0.616-1.262-1.322-1.224C3.098,62.022,2.505,62.544,2.513,63.238z"/>
	</g>
	<g>
		<g>
			
				<line fill="#E1F4FD" stroke="#3E3B3A" stroke-linecap="round" stroke-linejoin="round" stroke-miterlimit="10" x1="62.356" y1="3.458" x2="65.24" y2="3.425"/>
			
				<line fill="#E1F4FD" stroke="#3E3B3A" stroke-linecap="round" stroke-linejoin="round" stroke-miterlimit="10" x1="63.815" y1="4.883" x2="63.782" y2="2"/>
		</g>
		<g>
			
				<line fill="#E1F4FD" stroke="#3E3B3A" stroke-linecap="round" stroke-linejoin="round" stroke-miterlimit="10" x1="64.827" y1="8.461" x2="70.594" y2="8.394"/>
			
				<line fill="#E1F4FD" stroke="#3E3B3A" stroke-linecap="round" stroke-linejoin="round" stroke-miterlimit="10" x1="67.744" y1="11.311" x2="67.677" y2="5.544"/>
		</g>
	</g>
	<g>
		<g>
			<g>
				<path fill="none" stroke="#3E3B3A" stroke-linecap="round" stroke-linejoin="round" stroke-miterlimit="10" d="M10.311,57.704
					v4.43c0,1.403,1.138,2.54,2.541,2.54h45.722c1.402,0,2.54-1.137,2.54-2.54V11.331c0-1.402-1.138-2.54-2.54-2.54H12.851
					c-1.402,0-2.54,1.138-2.54,2.54v4.181"/>
				
					<line fill="none" stroke="#3E3B3A" stroke-linecap="round" stroke-linejoin="round" stroke-miterlimit="10" x1="10.311" y1="25.148" x2="10.311" y2="18.938"/>
				
					<line fill="none" stroke="#3E3B3A" stroke-linecap="round" stroke-linejoin="round" stroke-miterlimit="10" x1="10.311" y1="48.013" x2="10.311" y2="54.367"/>
				
					<line fill="none" stroke="#3E3B3A" stroke-linecap="round" stroke-linejoin="round" stroke-miterlimit="10" x1="10.311" y1="38.648" x2="10.311" y2="44.835"/>
				
					<line fill="none" stroke="#3E3B3A" stroke-linecap="round" stroke-linejoin="round" stroke-miterlimit="10" x1="10.311" y1="28.733" x2="10.311" y2="34.919"/>
				<g>
					<path fill="#28AAE2" stroke="#3E3B3A" stroke-linecap="round" stroke-linejoin="round" stroke-miterlimit="10" d="
						M51.216,11.82h4.652c1.449,0,2.768,0.979,3.059,2.397c0.399,1.95-1.091,3.67-2.975,3.67h-4.736V11.82z"/>
					<path fill="none" stroke="#3E3B3A" stroke-linecap="round" stroke-linejoin="round" stroke-miterlimit="10" d="M51.216,27.431
						h1.793c1.658,0,3.168-1.121,3.501-2.746c0.457-2.233-1.249-4.203-3.407-4.203h-1.887V27.431z"/>
					<path fill="none" stroke="#3E3B3A" stroke-linecap="round" stroke-linejoin="round" stroke-miterlimit="10" d="M53.103,29.142
						h-1.887v6.95h1.79c1.659,0,3.17-1.121,3.504-2.746C56.968,31.113,55.261,29.142,53.103,29.142z"/>
					<path fill="none" stroke="#3E3B3A" stroke-linecap="round" stroke-linejoin="round" stroke-miterlimit="10" d="M53.103,37.803
						h-1.887v6.95h1.791c1.659,0,3.17-1.121,3.503-2.746C56.968,39.773,55.261,37.803,53.103,37.803z"/>
					<path fill="none" stroke="#3E3B3A" stroke-linecap="round" stroke-linejoin="round" stroke-miterlimit="10" d="M53.103,46.463
						h-1.887v6.95h1.79c1.659,0,3.17-1.12,3.504-2.746C56.968,48.435,55.261,46.463,53.103,46.463z"/>
					<path fill="none" stroke="#3E3B3A" stroke-linecap="round" stroke-linejoin="round" stroke-miterlimit="10" d="M53.103,55.124
						h-1.887v6.95h1.793c1.658,0,3.168-1.121,3.501-2.747C56.967,57.094,55.261,55.124,53.103,55.124z"/>
				</g>
				<g>
					<path fill="none" stroke="#3E3B3A" stroke-linecap="round" stroke-linejoin="round" stroke-miterlimit="10" d="M7.466,48.013
						c-0.854,0-1.475-0.668-1.475-1.588c0-0.417,0.131-0.805,0.369-1.094c0.268-0.324,0.65-0.496,1.106-0.496h5.643
						c0.855,0,1.476,0.669,1.476,1.59c0,0.415-0.131,0.803-0.369,1.093c-0.268,0.323-0.65,0.495-1.106,0.495H7.466z"/>
					<path fill="none" stroke="#3E3B3A" stroke-linecap="round" stroke-linejoin="round" stroke-miterlimit="10" d="M7.466,57.704
						c-0.854,0-1.475-0.668-1.475-1.589c0-0.416,0.131-0.804,0.369-1.092c0.268-0.325,0.65-0.496,1.106-0.496h5.643
						c0.855,0,1.476,0.667,1.476,1.588c0,0.417-0.131,0.805-0.369,1.094c-0.268,0.324-0.65,0.495-1.106,0.495H7.466z"/>
					<path fill="none" stroke="#3E3B3A" stroke-linecap="round" stroke-linejoin="round" stroke-miterlimit="10" d="M7.466,38.321
						c-0.854,0-1.475-0.669-1.475-1.59c0-0.415,0.131-0.803,0.369-1.092c0.268-0.324,0.65-0.496,1.106-0.496h5.643
						c0.855,0,1.476,0.668,1.476,1.588c0,0.417-0.131,0.805-0.369,1.094c-0.268,0.324-0.65,0.496-1.106,0.496H7.466z"/>
					<path fill="none" stroke="#3E3B3A" stroke-linecap="round" stroke-linejoin="round" stroke-miterlimit="10" d="M7.466,28.629
						c-0.854,0-1.475-0.667-1.475-1.588c0-0.417,0.131-0.805,0.369-1.093c0.268-0.325,0.65-0.496,1.106-0.496h5.643
						c0.855,0,1.476,0.668,1.476,1.589c0,0.416-0.131,0.804-0.369,1.093c-0.268,0.324-0.65,0.495-1.106,0.495H7.466z"/>
					<path fill="none" stroke="#3E3B3A" stroke-linecap="round" stroke-linejoin="round" stroke-miterlimit="10" d="M7.466,18.938
						c-0.854,0-1.475-0.669-1.475-1.589c0-0.416,0.131-0.804,0.369-1.093c0.268-0.324,0.65-0.496,1.106-0.496h5.643
						c0.855,0,1.476,0.668,1.476,1.589c0,0.416-0.131,0.804-0.369,1.094c-0.268,0.323-0.65,0.495-1.106,0.495H7.466z"/>
				</g>
				<g>
					
						<rect x="18.397" y="51.232" fill="none" stroke="#3E3B3A" stroke-linecap="round" stroke-linejoin="round" stroke-miterlimit="10" width="32.818" height="13.441"/>
					
						<rect x="18.397" y="22.232" fill="none" stroke="#3E3B3A" stroke-linecap="round" stroke-linejoin="round" stroke-miterlimit="10" width="32.818" height="29"/>
					
						<rect x="18.397" y="8.791" fill="none" stroke="#3E3B3A" stroke-linecap="round" stroke-linejoin="round" stroke-miterlimit="10" width="32.818" height="13.441"/>
				</g>
			</g>
			<g>
				<path fill="#28AAE2" d="M39.378,58.401h-1.793c-0.248,0-0.448-0.201-0.448-0.448c0-0.248,0.201-0.448,0.448-0.448h1.793
					c0.247,0,0.447,0.2,0.447,0.448C39.825,58.2,39.625,58.401,39.378,58.401z M35.793,58.401H34c-0.248,0-0.448-0.201-0.448-0.448
					c0-0.248,0.2-0.448,0.448-0.448h1.792c0.248,0,0.448,0.2,0.448,0.448C36.241,58.2,36.041,58.401,35.793,58.401z M32.208,58.401
					h-1.792c-0.248,0-0.448-0.201-0.448-0.448c0-0.248,0.2-0.448,0.448-0.448h1.792c0.248,0,0.448,0.2,0.448,0.448
					C32.656,58.2,32.456,58.401,32.208,58.401z"/>
			</g>
			<g>
				
					<line fill="#E1F4FD" stroke="#3E3B3A" stroke-linecap="round" stroke-linejoin="round" stroke-miterlimit="10" x1="22.196" y1="15.42" x2="47.597" y2="15.42"/>
				
					<line fill="#E1F4FD" stroke="#3E3B3A" stroke-linecap="round" stroke-linejoin="round" stroke-miterlimit="10" x1="22.196" y1="12.88" x2="33.257" y2="12.88"/>
				
					<line fill="#E1F4FD" stroke="#3E3B3A" stroke-linecap="round" stroke-linejoin="round" stroke-miterlimit="10" x1="22.196" y1="17.96" x2="47.597" y2="17.96"/>
			</g>
		</g>
		<g>
			<path fill="none" stroke="#3E3B3A" stroke-linecap="round" stroke-linejoin="round" stroke-miterlimit="10" d="M46.019,34.418
				c0,6.173-5.004,11.177-11.176,11.177c-6.173,0-11.177-5.004-11.177-11.177"/>
			<g>
				
					<circle fill="none" stroke="#3E3B3A" stroke-linecap="round" stroke-linejoin="round" stroke-miterlimit="10" cx="34.843" cy="33.716" r="5.512"/>
				<g>
					<path fill="none" stroke="#3E3B3A" stroke-linecap="round" stroke-linejoin="round" stroke-miterlimit="10" d="M34.843,39.228
						c-2.906,0-5.386,1.801-6.399,4.346c1.813,1.271,4.017,2.021,6.399,2.021c2.382,0,4.585-0.751,6.398-2.021
						C40.229,41.028,37.749,39.228,34.843,39.228z"/>
				</g>
			</g>
		</g>
	</g>
</g>
</svg>
