<?xml version="1.0" encoding="utf-8"?>
<!-- Generator: Adobe Illustrator 16.0.0, SVG Export Plug-In . SVG Version: 6.00 Build 0)  -->
<!DOCTYPE svg PUBLIC "-//W3C//DTD SVG 1.1//EN" "http://www.w3.org/Graphics/SVG/1.1/DTD/svg11.dtd">
<svg version="1.1" id="Layer_1" xmlns="http://www.w3.org/2000/svg" xmlns:xlink="http://www.w3.org/1999/xlink" x="0px" y="0px"
	 width="376.5px" height="100.5px" viewBox="0 0 376.5 100.5" enable-background="new 0 0 376.5 100.5" xml:space="preserve">
<g>
	<path fill="#00558E" d="M107.432,72.112l0.511-1.273l1.658-1.85c0.851-1.402,1.552-2.231,2.106-2.484
		c0.084-0.342,0.212-0.66,0.383-0.957c0.169-0.297,0.296-0.764,0.382-1.402l0.574-1.02c0.169-0.17,0.255-0.297,0.255-0.383
		s-0.171-0.34-0.511-0.764l-0.318-1.339c0-0.341-1.127-1.466-3.38-3.378h-0.511l-4.594-2.232l-0.255-0.637l-0.509-0.129
		l-0.639,0.255h-0.128l-2.168-0.636c-1.745-0.469-2.893-0.83-3.446-1.086c-0.085,0.089-0.212,0.129-0.382,0.129l-2.553-0.572
		c-0.723-0.17-1.159-0.352-1.308-0.543c-0.149-0.189-0.51-0.383-1.084-0.574c-0.575-0.189-0.947-0.371-1.117-0.541
		c-0.17-0.169-0.511-0.255-1.021-0.255l-1.595,0.383c0-0.128-0.596-0.341-1.786-0.638c-0.171-0.425-0.299-0.637-0.384-0.637
		l-1.85,0.256c-1.233-0.595-1.872-0.894-1.913-0.894c-0.213,0-0.958-0.118-2.233-0.351c-1.274-0.234-2.103-0.478-2.486-0.732
		c-0.382-0.256-0.956-0.511-1.721-0.767l-0.382-0.38c-0.086-0.086-0.319-0.17-0.702-0.256h-1.146c-0.254,0-0.605-0.214-1.052-0.639
		s-1.02-0.85-1.721-1.274c-0.702-0.425-1.317-1.093-1.848-2.008c-0.532-0.914-0.819-1.837-0.86-2.772
		c-0.086-0.084-0.127-0.169-0.127-0.255l0.382-2.038c0.382-2.593,1.593-4.994,3.633-7.204c0.339-1.147,1.041-1.975,2.103-2.485
		l0.255-0.894c1.232-1.061,2.113-1.911,2.645-2.549c0.531-0.636,1.137-1.157,1.816-1.562c0.679-0.402,1.211-0.774,1.594-1.115
		l1.153-0.511c-0.042-0.38,0.905-1.284,2.843-2.708c1.937-1.425,3.449-2.36,4.532-2.805c1.084-0.446,1.806-0.776,2.167-0.988
		c0.361-0.212,1.412-0.532,3.155-0.957c0.424-1.146,1.105-1.721,2.04-1.721h0.957l1.274-1.274l1.722,0.128
		c0.083-0.086,0.318-0.351,0.7-0.796c0.382-0.446,1.02-0.669,1.912-0.669l7.712-2.358h0.51l0.51,0.127
		c0.339,0,0.775-0.298,1.307-0.893c0.53-0.594,1.221-0.891,2.072-0.891c0.168,0,0.488,0.169,0.956,0.508
		c0,0.086,0.042,0.127,0.127,0.127l1.658-0.51l1.975,0.128l2.486-0.637c1.572,0,2.954,0.384,4.143,1.148l0.128-0.256V5.442
		c0-0.722,0.403-1.083,1.211-1.083c0.34,0,0.551,0.086,0.637,0.255l0.766,0.446h0.445c0.086,0,0.637,0.256,1.658,0.764
		c0.637-0.424,1.041-0.636,1.211-0.636c0.807,0,1.444,0.341,1.911,1.019l1.084-0.126c0.34-0.339,0.552-0.511,0.637-0.511
		c0.255,0,0.594,0.341,1.02,1.02L137,6.718h1.593c0.085,0,0.255,0.127,0.51,0.382l0.701,0.574c0.34,0.341,0.574,0.616,0.702,0.827
		c0.127,0.214,0.276,0.406,0.445,0.575c1.105-0.467,1.699-0.702,1.785-0.702c0.425,0,0.743,0.363,0.957,1.084
		c0,0.597,0.371,1.179,1.116,1.752c0.743,0.574,1.115,1.18,1.115,1.817c0.934,0.427,1.402,1.106,1.402,2.04l1.211,3.122
		l-0.255,1.086c0.339,0.678,0.51,1.06,0.51,1.146l-0.255,2.358l0.255,2.487c0,1.316-0.617,2.442-1.85,3.375
		c-0.254,0-0.669,0.182-1.242,0.543c-0.574,0.361-0.904,0.543-0.988,0.543c-1.105,0-1.839-0.265-2.199-0.798
		c-0.362-0.531-0.712-0.925-1.052-1.179c-0.341-0.255-0.51-0.594-0.51-1.019c0-0.978,0.659-1.935,1.977-2.87
		c0.594,0,1.019-0.189,1.274-0.572c0-0.894-0.191-1.508-0.574-1.849c-0.382-0.339-0.797-0.806-1.243-1.402
		c-0.446-0.594-0.924-1.074-1.435-1.435c-0.509-0.36-0.924-0.818-1.243-1.37c-0.318-0.552-0.605-0.83-0.86-0.83l-0.893,0.129
		l-1.848-0.384c-1.955-0.253-3.741-0.701-5.354-1.338h-1.275l-3.441-0.508c-0.595,0.255-1.446,0.38-2.549,0.38l-4.208,0.639
		l-1.72-0.128c-0.128,0-1.297,0.361-3.506,1.083l-0.637,0.127h-1.721c-0.086,0-0.627,0.214-1.625,0.639
		c-0.999,0.425-1.839,0.721-2.518,0.891l-0.574,0.255c-0.085,0.087-0.214,0.129-0.383,0.129l-1.02-0.129l-5.609,2.741l-0.892-0.509
		c-0.723-0.341-1.126-0.51-1.211-0.51c-0.595,0-0.893,0.298-0.893,0.892l-0.126,1.212c-0.553,0.339-0.915,0.595-1.084,0.764
		c-0.17,0.171-0.382,0.296-0.637,0.382H94.36c-0.51,0-0.988,0.222-1.434,0.669c-0.447,0.446-0.839,0.692-1.179,0.734
		c-0.341,0.042-0.828,0.233-1.466,0.574c-0.085,0.169-0.425,0.342-1.02,0.509c-0.596,0.169-1.052,0.565-1.371,1.181
		c-0.318,0.617-0.691,0.924-1.115,0.924L85.5,27.497l-0.702,1.274c-0.892,0.213-1.403,0.341-1.529,0.382
		c-0.553,0.724-1.105,1.274-1.657,1.657c-0.553,0.384-1.094,0.796-1.625,1.243c-0.532,0.447-0.915,0.903-1.147,1.37
		c-0.233,0.468-0.584,0.84-1.051,1.115c-0.469,0.277-0.871,0.84-1.211,1.69l-0.637,0.638c-1.063,0.894-1.594,1.849-1.594,2.868
		c0,0.724,0.51,1.253,1.529,1.593c1.02,0.342,1.658,0.617,1.913,0.831c0.254,0.211,0.638,0.317,1.147,0.317
		c0.509,0,0.998,0.108,1.465,0.318c0.467,0.214,1.253,0.553,2.358,1.019c0.212,0.68,0.424,1.022,0.637,1.022
		c0.086,0,0.256-0.169,0.511-0.511c0.255-0.338,0.636-0.511,1.146-0.511c0.552,0,1.083,0.342,1.594,1.022l0.509-0.383h0.255
		l0.828,0.255h0.128l0.765-0.383c0.084-0.083,0.211-0.127,0.381-0.127c0.128,0,0.786,0.213,1.977,0.638h0.127
		c0.084,0,0.424-0.086,1.019-0.255c0.637,0.169,0.998,0.297,1.084,0.383l0.891,0.509c0,0.127,0.085,0.191,0.255,0.191
		c0.17,0,0.425-0.096,0.765-0.287c0.34-0.189,0.658-0.286,0.957-0.286c0.339,0,0.721,0.234,1.146,0.7
		c0.68-0.297,1.062-0.445,1.147-0.445c0.381,0,1.04,0.318,1.975,0.956l1.211,0.256h1.402l2.102,0.381
		c0.593,0.638,1.21,1.127,1.846,1.466c0.086-0.467,0.383-0.7,0.894-0.7c0.679,0,1.718,0.278,3.121,0.827l0.51,0.129l0.509,0.382
		c0.723-0.17,1.169-0.255,1.338-0.255c0.849,0,1.274,0.299,1.274,0.894c0,0.509-0.126,1.168-0.382,1.975
		c0.085,0,0.212,0.086,0.382,0.255c0.212-0.255,0.447-0.424,0.702-0.508l1.02-0.575c0.169-0.169,0.296-0.255,0.382-0.255
		c0.976,0,2.357,0.68,4.141,2.041c1.786,1.359,2.806,2.91,3.061,4.652c0,0.508,0.168,1.104,0.51,1.785l-0.254,0.827l0.126,1.02
		c0,0.085-0.085,0.382-0.255,0.894l-0.127,0.955c-0.085,0.17-0.214,0.319-0.383,0.446c-0.17,0.128-0.298,0.277-0.382,0.445
		l0.382,1.085v0.252c0,0.173-0.159,0.408-0.477,0.703c-0.319,0.299-0.521,0.574-0.606,0.83c-0.085,0.253-0.234,0.52-0.446,0.795
		c-0.212,0.277-0.361,0.604-0.446,0.99c-0.085,0.38-0.5,0.816-1.243,1.303c-0.744,0.492-1.116,0.863-1.116,1.117
		c0,0.256,0.085,0.383,0.256,0.383c0.509,0,1.049-0.244,1.622-0.733c0.574-0.486,1.009-0.776,1.305-0.859
		c0.296-0.086,0.806-0.339,1.529-0.766l5.984-2.805c4.456-2.124,6.937-3.187,7.447-3.187c0.679,0,1.019,0.341,1.019,1.02
		c0,0.255-0.298,0.744-0.893,1.465c-0.085,1.998-0.957,3.168-2.613,3.507c-0.638,0.427-1.127,0.87-1.465,1.339h-0.511
		c-1.063,1.189-2.273,1.784-3.632,1.784h-0.383c-1.572,1.573-3.485,2.446-5.736,2.612c-1.487,1.49-2.72,2.232-3.696,2.232
		l-1.021,0.255c-1.062,0.425-1.805,0.636-2.23,0.636c-0.086,0-0.255,0.172-0.51,0.511l-0.955,0.702
		c-0.808,0.17-1.679,0.637-2.613,1.402c-0.936,0.764-1.647,1.201-2.136,1.307c-0.489,0.105-1.01,0.287-1.561,0.542
		c-0.552,0.253-2.784,1.698-6.692,4.331l-0.828,0.258c-1.657,0.764-2.699,1.392-3.123,1.879c-0.426,0.489-0.935,0.903-1.529,1.242
		h-0.254c-0.977,0-2.125,0.639-3.442,1.914c-0.085,0.212-1.01,0.563-2.772,1.052c-1.764,0.487-3.454,1.243-5.067,2.262
		c-1.019,0.255-2.273,0.595-3.76,1.021c-1.488,0.424-2.572,0.679-3.251,0.764l-4.46,0.956c-0.978,0.17-2.104,0.425-3.377,0.766
		c-0.766-0.255-1.423-0.383-1.976-0.383l-1.147,0.128c-0.171,0-0.437-0.148-0.797-0.447c-0.361-0.297-0.84-0.584-1.434-0.859
		c-0.594-0.277-0.892-1.011-0.892-2.199c0-1.064,1.169-2.111,3.508-3.154c2.338-1.041,3.87-1.774,4.593-2.199
		c0.34-0.469,0.924-0.744,1.754-0.83c0.83-0.084,1.542-0.338,2.137-0.764c0.595-0.424,1.51-0.807,2.744-1.146l2.551-1.34
		c0.128-0.084,0.233-0.128,0.319-0.128h0.894c0.296,0,0.743-0.231,1.339-0.7c0.596-0.467,1.212-0.808,1.85-1.021h0.766
		c0.084,0,0.212-0.105,0.382-0.316c0.171-0.213,0.554-0.488,1.149-0.83l0.191-0.127h0.637c0.469-0.381,1.021-0.699,1.659-0.955
		c0.638-0.256,1.255-0.594,1.85-1.02l4.976-1.912l1.149,0.127c0.254,0,0.584-0.201,0.987-0.605s1.351-0.818,2.839-1.243
		c0.212-0.339,0.658-0.741,1.339-1.211c0.681-0.466,1.488-1.148,2.424-2.04L107.432,72.112z M85.194,88.048l-0.895-0.127
		c-0.598,0.341-1.184,0.529-1.757,0.572c-0.575,0.043-1.47,0.437-2.684,1.178c-1.214,0.746-2.61,1.456-4.186,2.137
		c-1.575,0.68-2.363,1.127-2.363,1.338c2.088-0.256,4.26-0.828,6.518-1.721l4.599-1.275c0.596-0.169,1.011-0.339,1.246-0.51
		c0.235-0.168,0.692-0.403,1.374-0.699l1.022-0.768c0.212-0.082,0.68-0.252,1.404-0.508c0.725-0.256,1.087-0.511,1.087-0.766
		c0-0.17-0.086-0.254-0.255-0.254c-1.534,0-2.747,0.234-3.642,0.699C85.768,87.814,85.278,88.048,85.194,88.048z"/>
	<path fill="#00558E" d="M139.919,62.106l1.339-1.084c1.018-0.084,1.57-0.615,1.654-1.594c0.084-0.977,0.786-1.825,2.104-2.549
		l0.764-1.084c0.637-0.638,2.377-1.465,5.223-2.486c0.722-0.423,1.21-0.806,1.466-1.146c0.084-0.086,0.169-0.129,0.253-0.129
		l1.02,0.256c0.551,0,1.262-0.147,2.132-0.447c0.872-0.297,1.711-0.443,2.518-0.443l2.675-0.128c0.169,0,0.521,0.128,1.051,0.381
		c0.53,0.255,1.178,0.382,1.942,0.382c0.934,0,1.794,0.426,2.58,1.275c0.785,0.85,1.178,1.637,1.178,2.359
		c0,1.316-0.678,2.656-2.034,4.015c-1.358,1.36-2.439,2.126-3.245,2.296c-0.722,0.722-1.273,1.178-1.654,1.37
		c-0.383,0.19-0.775,0.489-1.178,0.892c-0.402,0.404-0.731,0.605-0.986,0.605c-0.17,0-0.297-0.053-0.382-0.158
		c-0.084-0.107-0.212-0.16-0.381-0.16c-0.679,0-1.421,0.828-2.226,2.484l-1.146-0.127c-0.721,0.469-1.188,0.979-1.4,1.531
		c-0.212,0.551-0.657,0.828-1.335,0.828c-1.57,1.57-2.631,2.357-3.181,2.357c-0.086,0-0.384-0.084-0.893-0.254
		c-0.339,0.425-0.508,0.87-0.508,1.338c0,0.51-0.339,0.807-1.018,0.893l-0.827,0.764l-0.637-0.128l-1.271,1.341
		c-0.636,0-1.294,0.213-1.972,0.636c-0.086,0.511-0.213,1.159-0.382,1.944c-0.17,0.788-0.255,1.223-0.255,1.307
		c0,1.232,1.125,1.849,3.377,1.849l3.061-0.447c0.807,0,1.562-0.21,2.263-0.636c0.701-0.426,1.456-0.639,2.264-0.639
		c0.255,0,0.637-0.084,1.147-0.255l0.637,0.255c0.297-0.638,0.849-1.211,1.657-1.721c0.807-0.509,1.445-0.764,1.913-0.764
		l0.638-0.383c0.169-0.511,0.424-0.85,0.764-1.021l0.51-0.444c0.34-0.339,0.658-0.511,0.956-0.511h0.892l0.256-0.128
		c0.51-1.104,1.221-1.753,2.136-1.942c0.915-0.191,1.488-0.501,1.722-0.926c0.232-0.424,0.646-0.678,1.243-0.764
		c0.595-0.086,1.093-0.371,1.497-0.861c0.404-0.489,0.903-0.943,1.498-1.37c0.596-0.423,1.009-0.743,1.244-0.955
		c0.232-0.212,0.436-0.319,0.605-0.319c0.255,0,0.383,0.191,0.383,0.574s0.084,0.572,0.255,0.572c0.169,0,0.255-0.084,0.255-0.255
		c0-0.168-0.043-0.382-0.127-0.636v-0.447c0-0.637,0.34-1.062,1.02-1.275l2.867-1.848c0.086-0.893,0.33-1.412,0.734-1.563
		c0.403-0.147,0.711-0.318,0.924-0.509s0.446-0.286,0.701-0.286c0.552,0,0.83,0.318,0.83,0.955l-0.32,1.657l0.32,1.722
		c0,0.254-0.203,0.605-0.607,1.051c-0.404,0.446-0.712,1.127-0.924,2.04c-0.214,0.913-0.49,1.414-0.83,1.497h-0.383
		c-0.766,0.809-1.372,1.285-1.818,1.436c-0.446,0.148-0.797,0.414-1.053,0.795l-2.168,2.486c-0.426,0.426-0.788,0.809-1.085,1.147
		c-0.299,0.341-0.532,0.511-0.702,0.511l-0.51-0.511c0-0.084-0.086-0.128-0.254-0.128c-0.427,0-0.692,0.256-0.797,0.766
		c-0.107,0.509-0.331,0.956-0.672,1.339c-1.276,0.595-2.105,1.146-2.488,1.657l-0.381,0.127h-1.148
		c-0.554,0-0.936,0.413-1.148,1.244c-0.214,0.826-0.82,1.306-1.818,1.434c-1,0.127-1.711,0.383-2.137,0.764
		c-0.086,0.086-0.277,0.171-0.575,0.255c-0.298,0.085-0.894,0.425-1.787,1.019l-5.357,1.914c-0.427,0.212-0.703,0.318-0.83,0.318
		l-1.786,0.255c-0.255,0-0.51-0.169-0.765-0.511c-0.255-0.339-0.425-0.51-0.511-0.51l-1.147,0.383
		c-0.851,0.255-1.66,0.383-2.424,0.383c-0.426,0-0.895-0.147-1.404-0.447c-0.51-0.295-0.915-0.509-1.212-0.635
		c-1.233,0-2.105-0.958-2.614-2.871l-0.767,0.127c-0.169,0-0.743-1.505-1.721-4.524c-0.255-0.339-0.659-0.583-1.211-0.731
		c-0.553-0.148-0.829-0.563-0.829-1.243c0-1.913,0.415-3.196,1.244-3.856c0.828-0.659,1.285-1.158,1.37-1.498l0.892-3.313
		c0.168-0.129,0.383-0.554,0.637-1.277l1.465-2.676C138.943,64.038,139.325,63.296,139.919,62.106z M153.398,58.282l-0.764,0.383
		c-0.17,0.085-0.67,0.457-1.499,1.114c-0.828,0.66-1.635,1.19-2.421,1.594c-0.787,0.405-1.593,1.456-2.422,3.155
		s-1.244,2.676-1.244,2.932s0.128,0.383,0.383,0.383l2.167-0.957c0.807-0.381,1.561-0.871,2.263-1.467
		c0.7-0.594,1.71-1.316,3.027-2.166l0.51-0.51c0.085-0.17,0.479-0.479,1.18-0.926c0.7-0.444,1.22-0.879,1.561-1.305l0.638-0.255
		c0.721-1.147,1.454-1.849,2.198-2.104c0.743-0.254,1.116-0.51,1.116-0.764c0-0.51-0.406-0.766-1.211-0.766
		c-0.341,0-0.851,0.214-1.529,0.639h-1.466c-0.171,0-0.638,0.252-1.403,0.764L153.398,58.282z"/>
	<path fill="#00558E" d="M179.688,72.94v-0.444c0-0.597,0.041-1.063,0.127-1.403c-0.255-0.68-0.383-1.296-0.383-1.848
		c0-0.084,0.212-0.681,0.637-1.785l0.574-1.977c0.297-0.764,0.467-1.167,0.511-1.211c-0.257-0.678-0.383-1.061-0.383-1.146
		c0-0.977,0.276-1.785,0.827-2.424c0.551-0.635,1.021-1.527,1.402-2.676l1.274-3.887l2.101-5.101
		c0.042-0.127,0.245-0.466,0.605-1.019c0.359-0.553,0.658-1.031,0.892-1.436c0.231-0.402,0.563-0.988,0.988-1.751l0.638-0.128
		c0.168-0.169,0.254-0.339,0.254-0.51c0-0.084-0.086-0.425-0.254-1.019l2.23-3.698l1.338-2.74c0.426-0.723,0.893-1.188,1.402-1.403
		c0.85-1.57,1.594-2.526,2.231-2.867c0.255-0.808,0.722-1.68,1.403-2.613l1.209-0.127c0.213-0.594,0.426-1.041,0.639-1.338
		l0.127-1.277c0,0.255,0.105,0.182,0.317-0.223c0.214-0.403,0.532-1.158,0.958-2.262l1.72-1.977l0.51-0.891
		c0.212-0.298,0.552-0.872,1.02-1.721c0.638-0.255,1.169-0.723,1.595-1.403l1.338-1.084c-0.085-0.466,0.424-1.509,1.53-3.123
		c0.722-0.296,1.38-0.68,1.975-1.147l0.894-0.255c0-1.486,0.53-2.507,1.594-3.061l0.764-0.508c0.68-0.341,1.061-0.511,1.146-0.511
		l0.447-0.126c0.51-0.17,1.104-0.255,1.785-0.255c1.571,0,2.996,0.584,4.27,1.752c1.274,1.17,1.912,2.498,1.912,3.986
		c0,0.594-0.318,1.21-0.957,1.846l-0.253,0.51c-0.597,2.338-1.021,3.506-1.274,3.506c-0.172,0-0.404,0.128-0.701,0.384
		c-0.088,1.402-0.17,2.187-0.257,2.356c-0.764,0.128-1.146,1.083-1.146,2.869c-0.085,0.255-0.392,0.692-0.926,1.306
		c-0.53,0.616-0.944,1.466-1.241,2.551c-0.298,1.083-0.617,1.625-0.956,1.625h-0.702l0.191,0.956c0,0.596-0.287,1.178-0.859,1.752
		c-0.574,0.573-0.925,1.179-1.053,1.815c-0.126,0.638-0.637,1.404-1.528,2.295l-0.638,1.022c-0.256,0.425-0.596,0.871-1.02,1.338
		c-0.426,0.466-0.787,1.188-1.084,2.166l-1.657,3.06c-1.147,2.082-2.019,3.082-2.614,2.996c-0.381,1.656-0.637,2.614-0.764,2.867
		c-0.127,0.255-0.426,0.491-0.892,0.701c-0.469,0.215-0.829,0.585-1.085,1.115c-0.254,0.533-0.532,0.924-0.828,1.179l-1.148,2.36
		c-0.68,0.296-1.168,0.85-1.465,1.656c-0.681,0.17-1.105,0.744-1.275,1.722c-0.17,0.17-0.383,0.553-0.637,1.147l-2.23,2.229
		c-1.146,0.808-1.764,1.733-1.85,2.774c-0.085,1.041-0.637,1.561-1.656,1.561c-0.723,0-1.785-0.318-3.188-0.957h-0.127
		c-0.127,0.598-0.426,1.255-0.893,1.977l0.256,1.721c0,0.214-0.341,1.553-1.02,4.016c0.338,0.638,0.509,1.083,0.509,1.34l-0.128,1.4
		l0.318,1.721c0.214,1.404,0.723,2.104,1.531,2.104l1.528,0.255c0.085,0,0.616-0.318,1.592-0.955l2.358-1.276
		c0.083,0,0.125,0.044,0.125,0.128c0.425,0.172,0.764,0.255,1.02,0.255c0.426,0,0.638-0.339,0.638-1.019v-0.83
		c0.255-0.424,0.563-0.679,0.924-0.764c0.36-0.086,0.689-0.275,0.987-0.574c0.297-0.298,0.53-0.445,0.699-0.445h0.638
		c0.638,0,0.956-0.743,0.956-2.231c0.17-0.086,0.383-0.255,0.637-0.511h0.764c0.34,0,0.711-0.412,1.115-1.242
		c0.402-0.828,0.689-1.328,0.859-1.498c0.764-0.084,1.295-0.211,1.594-0.384c1.358-2.463,2.398-3.694,3.121-3.694h0.382
		c0.722-0.681,1.114-1.287,1.177-1.816c0.064-0.531,0.278-0.883,0.638-1.054c0.36-0.168,0.689-0.382,0.989-0.636
		c0.295-0.256,0.485-0.383,0.572-0.383c0.637,0,0.955,0.234,0.955,0.701l-0.191,1.783l0.447,1.912c0,0.172-0.183,0.501-0.543,0.989
		c-0.359,0.489-0.541,1.031-0.541,1.626c0,1.232-0.214,1.891-0.637,1.975c-0.424,0.086-0.775,0.373-1.051,0.861
		c-0.276,0.488-0.732,0.936-1.37,1.338s-1.126,0.988-1.464,1.754l-1.084,0.253l-0.637,0.383c-0.508,1.317-1.051,2.126-1.625,2.423
		c-0.572,0.298-1.284,1.188-2.132,2.677c-0.129,0-0.192,0.044-0.192,0.128l-1.019-0.128c-0.382,0.68-0.765,1.083-1.147,1.211
		c-0.383,0.126-0.699,0.372-0.955,0.733s-0.711,0.668-1.369,0.924c-0.658,0.255-1.072,0.553-1.242,0.891
		c-0.171,0.342-0.424,0.533-0.765,0.574c-0.34,0.043-0.658,0.203-0.954,0.479c-0.298,0.277-0.553,0.413-0.766,0.413
		c-0.084,0-0.381-0.041-0.891-0.129h-0.255c-0.723,0.512-1.317,0.767-1.784,0.767c-0.553,0-0.955,0.086-1.209,0.255
		c-0.255-0.169-0.648-0.297-1.18-0.383c-0.531-0.084-1.137-0.297-1.815-0.639c-0.722,0.172-1.169,0.258-1.337,0.258
		c-0.724,0-1.636-0.711-2.739-2.136c-1.104-1.424-1.656-2.814-1.656-4.175c0-0.043-0.245-0.371-0.733-0.988
		c-0.488-0.616-0.732-1.284-0.732-2.007v-0.638l0.127-0.768v-1.209l0.128-0.383c0.638-0.084,0.956-0.168,0.956-0.254L179.688,72.94z
		 M192.621,56.05l1.338-0.764c0.17-0.681,0.723-1.498,1.657-2.453c0.935-0.958,1.594-1.434,1.976-1.434h0.512
		c0-0.297,0.063-0.596,0.19-0.895c0.128-0.297,0.19-0.699,0.19-1.21c0-0.256,0.573-0.956,1.721-2.104l0.51-1.146
		c0.384-1.105,1.34-2.018,2.868-2.741c0.595-1.231,1.041-1.848,1.339-1.848l0.51-0.128c0.17-0.635,0.51-1.21,1.021-1.72l0.253-0.381
		v-1.021c0-0.084,0.288-0.435,0.86-1.052c0.574-0.617,0.988-1.188,1.244-1.721c0.255-0.53,0.605-0.946,1.051-1.242
		c0.446-0.298,0.754-0.831,0.924-1.595l1.021-0.127c0-0.553,0.042-0.914,0.128-1.085l0.128-0.636c0.211-0.51,0.955-1.85,2.229-4.015
		l1.019-2.36c0-0.255,0.183-0.562,0.543-0.923s0.542-0.882,0.542-1.562l0.511-2.103c0-0.978-0.171-1.466-0.511-1.466
		c-0.426,0.296-0.819,0.51-1.178,0.638c-0.363,0.126-0.715,0.892-1.054,2.293c-1.274,0.297-2.007,0.903-2.197,1.817
		c-0.192,0.914-0.712,1.69-1.562,2.325l-0.447,0.766c-0.086,0.469-0.488,0.956-1.211,1.466c-0.723,0.509-1.401,1.382-2.04,2.614
		c-2.124,2.931-3.293,4.504-3.505,4.717l-0.637,0.766l-0.957-0.128c0.17,0.681,0.255,1.063,0.255,1.147
		c0,0.255-0.126,0.5-0.382,0.731c-0.256,0.236-0.446,0.522-0.574,0.861c-0.127,0.342-0.381,0.733-0.766,1.179
		c-0.381,0.446-0.731,1.171-1.051,2.167c-0.318,1-0.605,1.584-0.859,1.754l-0.895-0.128c-0.552,0.341-0.828,0.681-0.828,1.019
		l0.192,0.894c0,0.17-0.118,0.371-0.351,0.605c-0.233,0.234-0.457,0.691-0.67,1.369c-0.213,0.681-0.744,1.711-1.593,3.092
		c-0.852,1.383-1.52,2.848-2.007,4.397c-0.49,1.552-0.969,2.541-1.434,2.964c0.082,0.086,0.21,0.127,0.381,0.127
		C191.578,57.771,192.111,57.196,192.621,56.05z"/>
	<path fill="#00558E" d="M214.297,72.94v-0.444c0-0.597,0.041-1.063,0.125-1.403c-0.253-0.68-0.381-1.296-0.381-1.848
		c0-0.084,0.212-0.681,0.637-1.785l0.574-1.977c0.297-0.764,0.467-1.167,0.511-1.211c-0.255-0.678-0.383-1.061-0.383-1.146
		c0-0.977,0.274-1.785,0.828-2.424c0.55-0.635,1.019-1.527,1.401-2.676l1.275-3.887l2.1-5.101c0.041-0.127,0.245-0.466,0.604-1.019
		c0.361-0.553,0.658-1.031,0.894-1.436c0.231-0.402,0.563-0.988,0.987-1.751l0.639-0.128c0.168-0.169,0.253-0.339,0.253-0.51
		c0-0.084-0.085-0.425-0.253-1.019l2.229-3.698l1.339-2.74c0.424-0.723,0.893-1.188,1.401-1.403c0.85-1.57,1.594-2.526,2.231-2.867
		c0.256-0.808,0.723-1.68,1.402-2.613l1.211-0.127c0.213-0.594,0.425-1.041,0.638-1.338l0.128-1.277
		c0,0.255,0.105,0.182,0.317-0.223c0.214-0.403,0.532-1.158,0.958-2.262l1.72-1.977l0.509-0.891
		c0.213-0.298,0.553-0.872,1.021-1.721c0.637-0.255,1.168-0.723,1.594-1.403l1.338-1.084c-0.086-0.466,0.425-1.509,1.53-3.123
		c0.722-0.296,1.38-0.68,1.974-1.147l0.895-0.255c0-1.486,0.529-2.507,1.592-3.061l0.765-0.508c0.681-0.341,1.063-0.511,1.149-0.511
		l0.444-0.126c0.511-0.17,1.104-0.255,1.785-0.255c1.571,0,2.995,0.584,4.271,1.752c1.274,1.17,1.911,2.498,1.911,3.986
		c0,0.594-0.318,1.21-0.955,1.846l-0.256,0.51c-0.596,2.338-1.019,3.506-1.274,3.506c-0.171,0-0.404,0.128-0.702,0.384
		c-0.086,1.402-0.169,2.187-0.254,2.356c-0.765,0.128-1.148,1.083-1.148,2.869c-0.086,0.255-0.393,0.692-0.923,1.306
		c-0.532,0.616-0.947,1.466-1.243,2.551c-0.299,1.083-0.615,1.625-0.957,1.625h-0.699l0.191,0.956c0,0.596-0.287,1.178-0.862,1.752
		c-0.573,0.573-0.923,1.179-1.051,1.815c-0.128,0.638-0.638,1.404-1.529,2.295l-0.639,1.022c-0.255,0.425-0.595,0.871-1.019,1.338
		c-0.426,0.466-0.789,1.188-1.083,2.166l-1.658,3.06c-1.147,2.082-2.019,3.082-2.614,2.996c-0.381,1.656-0.637,2.614-0.764,2.867
		c-0.128,0.255-0.425,0.491-0.892,0.701c-0.468,0.215-0.83,0.585-1.085,1.115c-0.256,0.533-0.533,0.924-0.827,1.179l-1.149,2.36
		c-0.68,0.296-1.169,0.85-1.467,1.656c-0.68,0.17-1.104,0.744-1.273,1.722c-0.17,0.17-0.383,0.553-0.637,1.147l-2.231,2.229
		c-1.146,0.808-1.763,1.733-1.849,2.774s-0.637,1.561-1.657,1.561c-0.722,0-1.784-0.318-3.188-0.957h-0.125
		c-0.128,0.598-0.427,1.255-0.894,1.977l0.255,1.721c0,0.214-0.341,1.553-1.019,4.016c0.339,0.638,0.508,1.083,0.508,1.34
		l-0.127,1.4l0.319,1.721c0.213,1.404,0.722,2.104,1.529,2.104l1.529,0.255c0.084,0,0.615-0.318,1.593-0.955l2.357-1.276
		c0.082,0,0.125,0.044,0.125,0.128c0.424,0.172,0.764,0.255,1.019,0.255c0.425,0,0.639-0.339,0.639-1.019v-0.83
		c0.255-0.424,0.562-0.679,0.923-0.764c0.361-0.086,0.69-0.275,0.988-0.574c0.297-0.298,0.529-0.445,0.699-0.445h0.639
		c0.636,0,0.955-0.743,0.955-2.231c0.168-0.086,0.383-0.255,0.637-0.511h0.764c0.339,0,0.711-0.412,1.115-1.242
		c0.402-0.828,0.689-1.328,0.859-1.498c0.764-0.084,1.295-0.211,1.593-0.384c1.358-2.463,2.399-3.694,3.121-3.694h0.383
		c0.72-0.681,1.113-1.287,1.177-1.816c0.064-0.531,0.277-0.883,0.639-1.054c0.359-0.168,0.688-0.382,0.987-0.636
		c0.298-0.256,0.487-0.383,0.573-0.383c0.635,0,0.955,0.234,0.955,0.701l-0.192,1.783l0.447,1.912c0,0.172-0.182,0.501-0.542,0.989
		c-0.359,0.489-0.541,1.031-0.541,1.626c0,1.232-0.213,1.891-0.637,1.975c-0.425,0.086-0.775,0.373-1.051,0.861
		c-0.277,0.488-0.732,0.936-1.37,1.338s-1.125,0.988-1.464,1.754l-1.083,0.253l-0.639,0.383c-0.508,1.317-1.051,2.126-1.622,2.423
		c-0.575,0.298-1.287,1.188-2.135,2.677c-0.127,0-0.191,0.044-0.191,0.128l-1.02-0.128c-0.381,0.68-0.764,1.083-1.146,1.211
		c-0.383,0.126-0.701,0.372-0.955,0.733c-0.256,0.361-0.713,0.668-1.368,0.924c-0.66,0.255-1.073,0.553-1.243,0.891
		c-0.172,0.342-0.424,0.533-0.766,0.574c-0.34,0.043-0.658,0.203-0.955,0.479c-0.295,0.277-0.551,0.413-0.764,0.413
		c-0.086,0-0.381-0.041-0.892-0.129h-0.253c-0.725,0.512-1.318,0.767-1.785,0.767c-0.553,0-0.956,0.086-1.209,0.255
		c-0.256-0.169-0.648-0.297-1.181-0.383c-0.53-0.084-1.136-0.297-1.815-0.639c-0.722,0.172-1.168,0.258-1.338,0.258
		c-0.723,0-1.635-0.711-2.738-2.136c-1.104-1.424-1.655-2.814-1.655-4.175c0-0.043-0.245-0.371-0.733-0.988
		c-0.489-0.616-0.732-1.284-0.732-2.007v-0.638l0.127-0.768v-1.209l0.128-0.383c0.636-0.084,0.956-0.168,0.956-0.254L214.297,72.94z
		 M227.229,56.05l1.34-0.764c0.168-0.681,0.723-1.498,1.658-2.453c0.933-0.958,1.593-1.434,1.974-1.434h0.511
		c0-0.297,0.064-0.596,0.191-0.895c0.128-0.297,0.191-0.699,0.191-1.21c0-0.256,0.572-0.956,1.721-2.104l0.51-1.146
		c0.383-1.105,1.34-2.018,2.867-2.741c0.598-1.231,1.041-1.848,1.34-1.848l0.51-0.128c0.169-0.635,0.51-1.21,1.021-1.72l0.252-0.381
		v-1.021c0-0.084,0.288-0.435,0.861-1.052c0.574-0.617,0.988-1.188,1.242-1.721c0.257-0.53,0.607-0.946,1.053-1.242
		c0.445-0.298,0.753-0.831,0.924-1.595l1.021-0.127c0-0.553,0.041-0.914,0.128-1.085l0.127-0.636c0.211-0.51,0.955-1.85,2.229-4.015
		l1.021-2.36c0-0.255,0.179-0.562,0.54-0.923s0.543-0.882,0.543-1.562l0.511-2.103c0-0.978-0.173-1.466-0.511-1.466
		c-0.426,0.296-0.817,0.51-1.179,0.638c-0.361,0.126-0.712,0.892-1.051,2.293c-1.276,0.297-2.009,0.903-2.2,1.817
		c-0.191,0.914-0.713,1.69-1.563,2.325l-0.445,0.766c-0.087,0.469-0.489,0.956-1.211,1.466c-0.723,0.509-1.402,1.382-2.041,2.614
		c-2.123,2.931-3.293,4.504-3.504,4.717l-0.639,0.766l-0.954-0.128c0.169,0.681,0.253,1.063,0.253,1.147
		c0,0.255-0.125,0.5-0.381,0.731c-0.256,0.236-0.447,0.522-0.574,0.861c-0.128,0.342-0.383,0.733-0.764,1.179
		c-0.383,0.446-0.734,1.171-1.054,2.167c-0.317,1-0.604,1.584-0.86,1.754l-0.893-0.128c-0.553,0.341-0.827,0.681-0.827,1.019
		l0.19,0.894c0,0.17-0.117,0.371-0.351,0.605s-0.456,0.691-0.668,1.369c-0.214,0.681-0.744,1.711-1.594,3.092
		c-0.851,1.383-1.519,2.848-2.009,4.397c-0.488,1.552-0.967,2.541-1.434,2.964c0.084,0.086,0.211,0.127,0.383,0.127
		C226.188,57.771,226.72,57.196,227.229,56.05z"/>
	<path fill="#00558E" d="M251.333,62.106l1.338-1.084c1.02-0.084,1.572-0.615,1.655-1.594c0.084-0.977,0.786-1.825,2.102-2.549
		l0.766-1.084c0.637-0.638,2.376-1.465,5.223-2.486c0.722-0.423,1.21-0.806,1.465-1.146c0.086-0.086,0.17-0.129,0.256-0.129
		l1.02,0.256c0.553,0,1.262-0.147,2.131-0.447c0.873-0.297,1.712-0.443,2.518-0.443l2.677-0.128c0.17,0,0.519,0.128,1.051,0.381
		c0.531,0.255,1.177,0.382,1.942,0.382c0.934,0,1.793,0.426,2.579,1.275s1.179,1.637,1.179,2.359c0,1.316-0.678,2.656-2.034,4.015
		c-1.358,1.36-2.439,2.126-3.245,2.296c-0.723,0.722-1.271,1.178-1.656,1.37c-0.383,0.19-0.773,0.489-1.176,0.892
		c-0.402,0.404-0.731,0.605-0.984,0.605c-0.172,0-0.3-0.053-0.383-0.158c-0.086-0.107-0.214-0.16-0.382-0.16
		c-0.68,0-1.423,0.828-2.226,2.484L266,66.886c-0.721,0.469-1.188,0.979-1.4,1.531c-0.211,0.551-0.656,0.828-1.334,0.828
		c-1.57,1.57-2.631,2.357-3.182,2.357c-0.086,0-0.383-0.084-0.891-0.254c-0.34,0.425-0.51,0.87-0.51,1.338
		c0,0.51-0.34,0.807-1.019,0.893l-0.825,0.764l-0.637-0.128l-1.272,1.341c-0.638,0-1.294,0.213-1.972,0.636
		c-0.086,0.511-0.214,1.159-0.383,1.944c-0.17,0.788-0.256,1.223-0.256,1.307c0,1.232,1.127,1.849,3.379,1.849l3.061-0.447
		c0.807,0,1.562-0.21,2.262-0.636c0.701-0.426,1.456-0.639,2.264-0.639c0.256,0,0.639-0.084,1.146-0.255l0.639,0.255
		c0.297-0.638,0.85-1.211,1.657-1.721c0.806-0.509,1.444-0.764,1.913-0.764l0.637-0.383c0.17-0.511,0.424-0.85,0.765-1.021
		l0.511-0.444c0.34-0.339,0.658-0.511,0.955-0.511h0.895l0.255-0.128c0.509-1.104,1.22-1.753,2.134-1.942
		c0.916-0.191,1.488-0.501,1.721-0.926c0.233-0.424,0.648-0.678,1.245-0.764c0.595-0.086,1.093-0.371,1.497-0.861
		c0.402-0.489,0.901-0.943,1.498-1.37c0.595-0.423,1.01-0.743,1.242-0.955c0.233-0.212,0.438-0.319,0.607-0.319
		c0.255,0,0.383,0.191,0.383,0.574s0.084,0.572,0.255,0.572c0.167,0,0.255-0.084,0.255-0.255c0-0.168-0.043-0.382-0.127-0.636
		v-0.447c0-0.637,0.338-1.062,1.019-1.275l2.868-1.848c0.086-0.893,0.33-1.412,0.734-1.563c0.402-0.147,0.709-0.318,0.924-0.509
		c0.213-0.19,0.445-0.286,0.701-0.286c0.551,0,0.828,0.318,0.828,0.955l-0.317,1.657l0.317,1.722c0,0.254-0.201,0.605-0.607,1.051
		c-0.402,0.446-0.712,1.127-0.922,2.04c-0.215,0.913-0.49,1.414-0.83,1.497h-0.383c-0.767,0.809-1.373,1.285-1.819,1.436
		c-0.445,0.148-0.798,0.414-1.054,0.795l-2.168,2.486c-0.424,0.426-0.787,0.809-1.085,1.147c-0.297,0.341-0.53,0.511-0.699,0.511
		l-0.511-0.511c0-0.084-0.086-0.128-0.255-0.128c-0.425,0-0.692,0.256-0.798,0.766c-0.105,0.509-0.329,0.956-0.671,1.339
		c-1.276,0.595-2.106,1.146-2.487,1.657l-0.383,0.127h-1.148c-0.552,0-0.936,0.413-1.148,1.244
		c-0.212,0.826-0.818,1.306-1.816,1.434c-1,0.127-1.712,0.383-2.137,0.764c-0.086,0.086-0.277,0.171-0.576,0.255
		c-0.297,0.085-0.894,0.425-1.785,1.019l-5.357,1.914c-0.426,0.212-0.701,0.318-0.83,0.318l-1.785,0.255
		c-0.256,0-0.511-0.169-0.768-0.511c-0.254-0.339-0.424-0.51-0.508-0.51l-1.148,0.383c-0.852,0.255-1.66,0.383-2.424,0.383
		c-0.426,0-0.895-0.147-1.406-0.447c-0.508-0.295-0.912-0.509-1.21-0.635c-1.235,0-2.104-0.958-2.614-2.871l-0.767,0.127
		c-0.171,0-0.743-1.505-1.722-4.524c-0.254-0.339-0.66-0.583-1.212-0.731s-0.827-0.563-0.827-1.243c0-1.913,0.414-3.196,1.242-3.856
		c0.828-0.659,1.285-1.158,1.37-1.498l0.892-3.313c0.17-0.129,0.383-0.554,0.639-1.277l1.464-2.676
		C250.355,64.038,250.738,63.296,251.333,62.106z M264.813,58.282l-0.766,0.383c-0.169,0.085-0.668,0.457-1.497,1.114
		c-0.828,0.66-1.636,1.19-2.422,1.594c-0.788,0.405-1.594,1.456-2.423,3.155c-0.828,1.699-1.242,2.676-1.242,2.932
		s0.127,0.383,0.383,0.383l2.166-0.957c0.807-0.381,1.562-0.871,2.263-1.467c0.7-0.594,1.71-1.316,3.028-2.166l0.51-0.51
		c0.084-0.17,0.478-0.479,1.179-0.926c0.7-0.444,1.222-0.879,1.562-1.305l0.637-0.255c0.723-1.147,1.456-1.849,2.2-2.104
		c0.743-0.254,1.114-0.51,1.114-0.764c0-0.51-0.404-0.766-1.211-0.766c-0.34,0-0.85,0.214-1.529,0.639h-1.466
		c-0.169,0-0.638,0.252-1.401,0.764L264.813,58.282z"/>
	<path fill="#00558E" d="M296.945,57.135l0.955-0.255l0.383-0.83c2.08-1.23,3.568-2.399,4.461-3.504
		c0.086-0.17,0.277-0.342,0.574-0.512c0.298-0.168,0.614-0.466,0.955-0.891c1.572-1.572,3.443-2.359,5.611-2.359
		c2.549,0,3.908,1.551,4.078,4.652l0.383,0.957c0.339,0.596,0.817,1.807,1.434,3.633c0.614,1.826,0.924,2.953,0.924,3.379
		c0,1.146-0.361,2.293-1.082,3.441c-0.598,0.298-2.02,1.892-4.271,4.781l-0.638,0.445c-0.341,0.766-0.788,1.529-1.339,2.295
		c-0.852,0.297-1.273,0.616-1.273,0.955v1.146c0,0.086-0.096,0.256-0.287,0.511c-0.192,0.256-0.457,0.744-0.799,1.466l-0.508,0.766
		c-0.172,0.17-0.342,0.521-0.511,1.051c-0.17,0.533-0.415,1.01-0.731,1.435c-0.319,0.425-0.479,0.767-0.479,1.019
		c0,0.639,0.827,0.958,2.484,0.958c0.086,0,0.402-0.128,0.957-0.383l0.892,0.255c0.087,0,0.297-0.137,0.639-0.414
		c0.339-0.275,0.858-0.498,1.562-0.668c0.7-0.172,1.316-0.425,1.849-0.767c0.528-0.339,1.167-0.638,1.911-0.892
		c0.742-0.255,1.453-0.67,2.133-1.244c0.681-0.572,1.352-0.987,2.009-1.242c0.658-0.254,1.274-0.646,1.849-1.179
		c0.574-0.53,1.221-1.031,1.945-1.499c0.722-0.465,1.868-1.487,3.439-3.059c1.02-0.806,1.721-1.252,2.105-1.338
		c0.082,0,0.453-0.563,1.113-1.689c0.657-1.125,1.412-1.689,2.265-1.689c0.892,0,1.337,0.425,1.337,1.274
		c0,0.47-0.213,0.915-0.639,1.339v0.383l0.129,1.021c0.084,0.126,0.126,0.316,0.126,0.573c0,0.171-0.157,0.424-0.478,0.766
		c-0.316,0.338-0.541,0.773-0.669,1.304c-0.128,0.532-0.531,0.884-1.208,1.054c-0.256,0.935-0.586,1.465-0.99,1.594
		c-0.402,0.127-0.965,0.552-1.688,1.273c-0.723,0.724-1.742,1.573-3.061,2.551c-1.316,0.978-2.221,1.731-2.709,2.262
		c-0.488,0.532-0.817,0.798-0.986,0.798c-0.084,0-0.256-0.086-0.51-0.255c-0.254-0.17-0.427-0.256-0.51-0.256
		c-0.256,0-0.425,0.297-0.509,0.892l-0.255,0.638c-0.553,0.342-0.872,0.509-0.956,0.509l-0.383-0.128h-0.255
		c-0.512,0-0.764,0.192-0.764,0.575l0.381,0.638v0.128c0,0.595-0.34,0.892-1.02,0.892c-0.469,0-1.827,0.787-4.078,2.359l-1.85,0.381
		l-1.527,0.83c-0.51-0.297-0.83-0.447-0.957-0.447l-1.02,0.319l-1.849,0.128c-0.042,0-0.817-0.426-2.326-1.274
		c-1.507-0.85-2.411-1.699-2.708-2.552c-0.297-0.847-0.68-1.709-1.146-2.58c-0.469-0.871-0.702-1.477-0.702-1.816
		c0-2.039,0.17-3.494,0.511-4.366c0.339-0.872,0.553-1.521,0.638-1.944c0.084-0.422,0.327-0.881,0.732-1.371
		c0.402-0.488,0.733-1.284,0.989-2.389c1.23-2.465,2.08-3.973,2.549-4.527c0.467-0.55,0.828-1.23,1.082-2.038l0.83-1.147
		c0.084-0.085,0.212-0.414,0.381-0.988c0.17-0.572,0.383-0.902,0.639-0.988c0.339-0.594,0.508-0.977,0.508-1.146
		c0-1.232-0.552-1.848-1.654-1.848c-0.213,0-0.447,0.223-0.703,0.67c-0.254,0.444-0.839,0.881-1.752,1.306
		c-0.914,0.425-1.477,0.744-1.689,0.955c-0.211,0.214-0.67,0.479-1.371,0.798s-1.306,0.818-1.816,1.496l-1.083,0.511
		c-0.341,0.808-0.638,1.255-0.894,1.339c-0.254,0.085-1.043,0.299-2.359,0.637c-0.085,0.043-0.297,0.298-0.639,0.765
		c-0.34,0.468-0.826,0.702-1.465,0.702c-0.508,0.51-1.021,1.104-1.53,1.785c-0.171,0-0.618,0.169-1.34,0.511l-1.274,0.317
		c-0.341,0.254-0.712,0.658-1.115,1.211c-0.404,0.553-1.158,0.828-2.264,0.828c-0.638,0-0.957-0.51-0.957-1.529
		c0-2.082,0.734-3.737,2.2-4.973c1.466-1.232,2.536-1.891,3.219-1.976c0.681-0.084,1.104-0.339,1.274-0.765
		c0.17-0.424,0.584-0.773,1.244-1.053c0.658-0.275,1.422-0.892,2.293-1.846c0.871-0.958,1.818-1.604,2.837-1.945L296.945,57.135z"/>
	<path fill="#00558E" d="M328.393,30.795l-0.511-3.124c-0.042-0.296,0.073-0.658,0.351-1.084c0.275-0.423,0.457-0.784,0.543-1.083
		c0.084-0.297,0.233-0.563,0.445-0.796c0.213-0.233,0.584-0.894,1.116-1.976c0.53-1.083,1.497-1.709,2.899-1.881
		c0.425-0.423,1.02-0.637,1.785-0.637c1.02,0,2.24,0.956,3.664,2.869c1.424,1.91,2.136,3.122,2.136,3.631
		c0,0.725-0.488,1.511-1.466,2.36c0,1.402-0.415,2.603-1.242,3.6c-0.83,0.999-1.37,1.764-1.626,2.295
		c-0.255,0.532-0.446,0.839-0.573,0.923c-0.129,0.086-0.904,1.117-2.326,3.091c-1.426,1.977-2.541,2.967-3.348,2.967
		c-0.127,0-0.756-0.256-1.88-0.767c-1.127-0.51-1.689-0.806-1.689-0.892c0-1.104,0.595-2.2,1.785-3.283
		c1.188-1.084,1.868-2.199,2.04-3.347c-0.213-0.085-0.615-0.616-1.21-1.593L328.393,30.795z"/>
	<path fill="#00558E" d="M341.99,57.644l0.891-1.594c0.256-0.381,0.584-0.773,0.99-1.18c0.406-0.402,0.842-1.443,1.31-3.121
		c0.47-1.68,0.987-2.837,1.562-3.476c0.575-0.636,1.414-0.955,2.521-0.955c0.639,0,1.478,0.31,2.519,0.926
		c1.042,0.616,2.063,2.476,3.063,5.575c1,3.102,1.5,5.291,1.5,6.566c0,0.509,0.147,1.156,0.446,1.943
		c0.298,0.787,0.489,1.391,0.573,1.816c-0.34,0.721-0.509,1.127-0.509,1.211l0.128,2.613l-0.764,2.104v1.529
		c-0.514,0.851-0.769,1.382-0.769,1.594c0,0.255,0.088,0.51,0.255,0.766c1.997-0.85,3.207-1.54,3.632-2.072
		c0.423-0.531,0.837-0.859,1.239-0.988c0.402-0.127,1.07-0.68,2.006-1.656l1.209-0.639c0.425-0.508,0.783-0.966,1.08-1.37
		c0.298-0.402,0.646-0.69,1.051-0.86c0.402-0.169,0.881-0.468,1.431-0.893c0.55-0.423,1.358-0.914,2.419-1.466l0.637-0.765
		c0.636-0.721,1.388-1.296,2.26-1.721c0.869-0.425,1.346-0.638,1.43-0.638c0.297,0,0.604,0.392,0.924,1.18
		c0.316,0.786,0.477,1.561,0.477,2.326c0,0.724-0.416,1.433-1.24,2.134c-0.83,0.702-1.393,1.223-1.689,1.564
		c-0.295,0.338-0.975,0.636-2.036,0.891c-0.086,0.044-0.786,0.914-2.103,2.613l-1.272,0.766l-0.636,0.828
		c-0.086,0.168-0.66,0.34-1.719,0.51c-0.043,0-0.139,0.213-0.288,0.637c-0.149,0.426-0.606,0.725-1.37,0.894
		c-1.525,1.401-2.313,2.188-2.355,2.356l-1.336,0.256c-0.256,0.809-0.467,1.297-0.637,1.466c-1.02,0.255-1.593,0.681-1.721,1.276
		c-0.127,0.084-0.339,0.169-0.637,0.253l-0.254,0.192c-0.977,0.766-1.932,1.232-2.865,1.401l-1.463,0.383l-0.511,0.764
		c0,0.214-0.521,0.489-1.561,0.83c-1.038,0.342-1.814,0.764-2.323,1.274l-1.085,0.828c-1.314,0.51-2.144,0.979-2.481,1.404h-0.893
		c-0.593,0-1.527,0.437-2.801,1.306c-1.273,0.871-2.293,1.306-3.057,1.306c-2.461,0-4.15-0.307-5.063-0.923s-1.665-1.382-2.26-2.295
		c-0.594-0.915-1.135-1.647-1.625-2.2c-0.486-0.551-0.729-0.998-0.729-1.338c0-0.297,0.201-0.595,0.604-0.892
		c0.403-0.298,0.841-0.903,1.308-1.817c0.466-0.914,1.652-1.498,3.563-1.753c0.086,0,0.393-0.128,0.926-0.383
		c0.528-0.253,0.963-0.381,1.305-0.381c0.423,0,0.955,0.381,1.592,1.146c0,0.085,0.086,0.128,0.255,0.128l1.019-0.128
		c0.467,0.342,0.784,0.511,0.955,0.511c1.018,0,2.098-0.511,3.248-1.529l0.253-0.128h0.511c0.127,0,0.341-0.362,0.637-1.085
		l1.08-2.229l2.231-2.868v-0.639c0-0.127,0.126-0.508,0.382-1.146v-0.955c0-0.383,0.253-0.629,0.764-0.734
		c0.508-0.105,0.766-0.371,0.766-0.795l-0.13-0.512c-0.339-0.467-0.509-0.829-0.509-1.082l0.639-1.277l-0.13-1.338l0.255-0.508
		c-0.171-0.597-0.255-0.936-0.255-1.021l0.255-1.594c0-0.042-0.117-0.444-0.351-1.211c-0.235-0.764-0.415-1.146-0.542-1.146
		c-0.256,0-1.064,0.66-2.424,1.977c-1.363,1.316-2.172,2.252-2.427,2.804c-0.253,0.554-0.798,1.052-1.626,1.499
		c-0.832,0.445-1.394,0.945-1.693,1.496c-0.299,0.554-0.658,0.872-1.082,0.956l-4.275,3.442l-4.66,3.442
		c-0.341,0.38-0.555,0.572-0.638,0.572c-1.574,0-2.362-0.87-2.362-2.612c0-0.553,0.32-1.553,0.956-2.996
		c0.299-0.17,0.522-0.297,0.673-0.383c0.146-0.084,0.223-0.146,0.223-0.189s-0.042-0.065-0.127-0.065l0.38,0.255h0.13
		c1.573-1.061,2.595-1.678,3.062-1.849c0.469-0.167,0.894-0.636,1.276-1.401l2.68-1.912c0.682-0.51,1.722-1.443,3.126-2.804
		C340.713,59.28,341.607,58.282,341.99,57.644z"/>
</g>
<g>
	<path fill="#00558E" d="M5.561,10.104l0.339-0.279l0.399,0.04c0.226,0,0.419-0.06,0.579-0.18c0.16-0.12,0.289-0.186,0.389-0.199
		c0.099-0.014,0.219-0.081,0.358-0.201c0.14-0.119,0.342-0.202,0.608-0.248c0.266-0.047,0.459-0.13,0.579-0.25
		c0.12-0.12,0.256-0.195,0.409-0.229c0.152-0.033,0.329-0.089,0.528-0.17l1.814-0.558c0.027,0,0.1,0.027,0.219,0.081h0.08
		c0.16,0,0.316-0.063,0.469-0.19c0.153-0.125,0.335-0.189,0.548-0.189c0.133,0,0.392-0.08,0.778-0.239l0.12,0.12
		c0.212-0.24,0.392-0.36,0.539-0.36h0.12c0.026,0,0.146,0.027,0.358,0.08c0.332-0.106,0.605-0.159,0.818-0.159l0.459-0.04
		c0.026,0,0.066,0.014,0.119,0.04c0.106-0.12,0.252-0.192,0.439-0.22h0.219l0.817-0.199l0.239,0.08c0.16-0.133,0.406-0.2,0.738-0.2
		h0.2l0.2,0.04c0.027,0,0.149-0.04,0.369-0.119s0.754-0.12,1.605-0.12l0.519,0.08c0.332-0.132,0.511-0.199,0.538-0.199l0.559,0.119
		l0.219-0.08h0.08c0.026,0,0.093,0.027,0.199,0.08h0.04l1.436-0.199c0.027,0,0.08,0.014,0.159,0.04
		c0.107-0.093,0.187-0.14,0.24-0.14l0.379,0.1c0.107,0,0.293-0.072,0.559-0.219l0.12,0.12l1.356-0.159l0.499,0.04l0.439-0.08
		c0.438,0,0.768,0.116,0.987,0.349c0.219,0.233,0.329,0.469,0.329,0.709l0.08,0.618l-0.12,0.338l-0.04,0.399
		c-0.066,0.16-0.166,0.266-0.298,0.319c0,0.027-0.06,0.057-0.18,0.089c-0.12,0.034-0.239,0.09-0.359,0.169
		c-0.12,0.081-0.512,0.12-1.176,0.12c-0.332,0-0.545-0.103-0.638-0.309c-0.093-0.206-0.193-0.322-0.299-0.349L25.783,7.83
		c-0.027-0.026-0.106-0.04-0.239-0.04h-0.16l-0.817,0.08c-0.027,0-0.1-0.013-0.22-0.04c-0.172,0.081-0.266,0.12-0.279,0.12
		l-1.475-0.08L21.996,7.91L21.577,7.83c-0.053,0-0.146,0.021-0.279,0.06c-0.132,0.04-0.412,0.073-0.837,0.099
		c-0.425,0.027-0.637,0.16-0.637,0.399c0,0.147,0.057,0.307,0.169,0.479c0.112,0.173,0.169,0.312,0.169,0.418
		c-0.2,0.279-0.299,0.459-0.299,0.54c-0.053,0.04-0.146,0.126-0.279,0.259c-0.132,0.133-0.379,0.342-0.737,0.628
		s-0.605,0.548-0.738,0.788c-0.132,0.239-0.292,0.359-0.478,0.359c-0.239,0.226-0.406,0.432-0.499,0.618l-0.159,0.159
		c-0.027,0.026-0.04,0.086-0.04,0.179c0,0.08-0.04,0.16-0.12,0.24l-0.18,0.479c-0.093,0.04-0.365,0.386-0.817,1.037l-0.239,0.12
		l-0.238,0.279H15.06c-0.12,0-0.179,0.08-0.179,0.24l0.08,0.578c-0.2,0.173-0.359,0.406-0.479,0.698l-0.239,0.399
		c-0.279,0.279-0.418,0.432-0.418,0.459c0,0.066-0.133,0.352-0.399,0.857l-0.04,0.2c0,0.226-0.465,0.877-1.395,1.954
		c-0.132,0.253-0.212,0.639-0.239,1.157c-0.398,0.786-0.67,1.164-0.816,1.137c-0.027,0.506-0.11,0.918-0.25,1.236
		c-0.14,0.319-0.319,0.788-0.538,1.406c-0.22,0.618-0.449,1.06-0.688,1.327l-0.08,0.16c-0.053,0.106-0.12,0.212-0.199,0.318
		c-0.027,0.359-0.153,0.931-0.379,1.715l-0.12,0.857l-0.398,1.116c-0.04,0.081-0.06,0.16-0.06,0.24c0,0.053,0.043,0.157,0.13,0.309
		c0.086,0.153,0.129,0.296,0.129,0.429c0,0.187-0.034,0.336-0.1,0.449c-0.067,0.113-0.1,0.262-0.1,0.449
		c0,0.412-0.22,0.685-0.658,0.817h-0.16l-0.419,0.041c-0.558,0-1.064-0.266-1.516-0.797c-0.452-0.532-0.678-1.264-0.678-2.194
		c0-0.053,0.04-0.256,0.12-0.608c0.08-0.353,0.126-0.583,0.14-0.688c0.013-0.106,0.046-0.216,0.1-0.329
		c0.052-0.113,0.08-0.276,0.08-0.489c0-0.652,0.162-1.217,0.488-1.695c0.326-0.479,0.542-0.825,0.648-1.038
		c0.026-0.092,0.073-0.152,0.14-0.179c-0.04-0.106-0.06-0.239-0.06-0.399c0-0.385,0.166-0.698,0.499-0.938
		c0.026-0.106,0.073-0.229,0.139-0.368c0.066-0.141,0.206-0.479,0.419-1.018c0.212-0.539,0.492-0.854,0.837-0.947
		c-0.013-0.027,0.066-0.134,0.239-0.32l-0.08-0.698c0-0.106,0.12-0.286,0.359-0.539l0.339-0.559
		c0.053-0.226,0.226-0.432,0.519-0.618c0.08-0.133,0.166-0.212,0.259-0.239c0.013-0.053,0.07-0.22,0.169-0.5
		c0.1-0.279,0.313-0.627,0.638-1.047c0.325-0.418,0.638-0.854,0.937-1.306c0.299-0.451,0.572-0.684,0.818-0.698
		c0.246-0.013,0.382-0.153,0.409-0.419l0.119-0.738c0.386-0.332,0.619-0.564,0.699-0.698l0.279-0.319
		c0.053-0.187,0.123-0.31,0.209-0.37c0.086-0.06,0.196-0.182,0.329-0.368c0.133-0.187,0.299-0.353,0.499-0.499
		c0.173-0.545,0.565-1.018,1.177-1.417l0.319-0.339c0.226-0.319,0.412-0.536,0.559-0.648c0.146-0.112,0.256-0.262,0.329-0.449
		c0.073-0.186,0.216-0.325,0.429-0.419c0.212-0.092,0.319-0.199,0.319-0.318c0-0.053-0.054-0.081-0.16-0.081
		c-0.106,0-0.286,0.04-0.539,0.12h-0.159l-0.359,0.08h-0.12l-0.339-0.08c-0.239,0.08-0.426,0.12-0.559,0.12
		c-0.027,0.027-0.113,0.086-0.259,0.179h-0.438l-0.239,0.239l-0.18,0.041l-0.519-0.081c-0.159,0-0.352,0.081-0.578,0.24
		c0,0.027-0.217,0.073-0.648,0.139c-0.433,0.066-0.841,0.19-1.227,0.37c-0.386,0.179-0.619,0.269-0.698,0.269l-0.359-0.081h-0.04
		c-0.173,0-0.332,0.087-0.479,0.26s-0.359,0.279-0.638,0.319H9.499c-0.2,0-0.469,0.08-0.809,0.24
		c-0.338,0.159-0.522,0.239-0.548,0.239l-0.359-0.04c-0.16,0.107-0.296,0.18-0.41,0.219c-0.113,0.04-0.223,0.104-0.329,0.19
		c-0.107,0.086-0.213,0.149-0.319,0.189c-0.106,0.041-0.23,0.114-0.37,0.22c-0.14,0.106-0.25,0.159-0.33,0.159h-0.08l-0.239-0.04
		c-0.094,0-0.213,0.083-0.359,0.249c-0.146,0.167-0.283,0.269-0.41,0.309c-0.126,0.041-0.246,0.104-0.358,0.189
		c-0.114,0.087-0.23,0.137-0.351,0.15c-0.066,0.067-0.159,0.213-0.279,0.439s-0.273,0.421-0.46,0.587
		c-0.186,0.167-0.31,0.296-0.369,0.389c-0.06,0.094-0.117,0.141-0.169,0.141c-0.653,0-0.979-0.406-0.979-1.217l0.399-0.857
		c0.279-0.678,0.705-1.09,1.275-1.237c0.146,0,0.525-0.146,1.137-0.438L5.561,10.104z"/>
	<path fill="#00558E" d="M29.838,8.847l0.258-0.08c0.187,0,0.385-0.112,0.599-0.339c0.054,0,0.126-0.027,0.219-0.08h0.319
		c0.2-0.2,0.419-0.309,0.658-0.329c0.24-0.021,0.529-0.07,0.869-0.15c0.339-0.08,0.598-0.126,0.777-0.14
		c0.179-0.013,0.315-0.042,0.408-0.09c0.093-0.046,0.153-0.069,0.18-0.069l0.499,0.08c0.358,0,0.604,0.069,0.736,0.21
		c0.132,0.139,0.375,0.338,0.727,0.598c0.352,0.26,0.528,0.821,0.528,1.686v0.039l-0.081,0.459l0.041,0.32
		c0,0.08-0.054,0.179-0.16,0.299l-0.079,0.24c0,0.265-0.083,0.521-0.25,0.767c-0.166,0.247-0.262,0.469-0.289,0.668l-0.239,0.319
		l-0.319,0.778L34.74,14.69l-0.358,0.738l-0.419,0.478l-0.04,0.12c-0.094,0.253-0.227,0.379-0.399,0.379v0.359
		c0,0.134-0.091,0.35-0.27,0.648c-0.179,0.299-0.282,0.535-0.309,0.708l-0.199,0.359c0.133,0.107,0.292,0.159,0.479,0.159
		c0.04,0,0.206-0.066,0.499-0.199c0.293-0.132,0.526-0.199,0.699-0.199l1.874-0.379c0.041,0,0.12,0.047,0.239,0.14
		c0.08-0.146,0.132-0.219,0.16-0.219l0.497-0.2c0.185,0.053,0.291,0.08,0.318,0.08c0.437,0,0.914-0.106,1.432-0.318
		c0.834-0.226,1.649-0.339,2.445-0.339l1.631-0.359c0.092-0.106,0.176-0.29,0.248-0.548c0.074-0.259,0.18-0.429,0.319-0.509
		s0.234-0.19,0.289-0.329c0.052-0.141,0.146-0.302,0.278-0.489l0.199-0.539l0.497-0.897l0.12-0.438
		c0.053-0.173,0.245-0.445,0.577-0.818v-0.119c0-0.28,0.119-0.473,0.358-0.579l0.039-0.081v-0.538c0-0.173,0.152-0.293,0.458-0.36
		l0.159-0.258l-0.04-0.639c0-0.146,0.054-0.271,0.159-0.378c0.106-0.106,0.165-0.212,0.179-0.318c0.014-0.106,0.08-0.286,0.199-0.54
		l0.081-0.438c0-0.08,0.021-0.156,0.061-0.229c0.04-0.072,0.061-0.242,0.061-0.509c0-0.903,0.423-1.355,1.27-1.355
		c0.256,0,0.547,0.169,0.876,0.509c0.329,0.339,0.493,0.634,0.493,0.887c0,0.786-0.066,1.33-0.199,1.636
		c-0.027,0.054-0.083,0.21-0.17,0.469c-0.086,0.259-0.33,0.728-0.729,1.406l-0.219,0.36h-0.279l-0.039,0.04l0.079,0.539l-0.2,0.199
		v0.259c-0.053,0.053-0.1,0.141-0.14,0.259c-0.039,0.12-0.137,0.27-0.289,0.449c-0.153,0.18-0.229,0.296-0.229,0.35v0.239
		l-0.08,0.16c-0.252,0.519-0.385,0.834-0.399,0.948c-0.013,0.113-0.086,0.249-0.219,0.409c0,0.213-0.146,0.473-0.439,0.777
		c0.027,0.027,0.04,0.054,0.04,0.081l-0.16,0.578c0.053,0.026,0.606,0.04,1.656,0.04l0.38-0.04l0.797,0.16
		c0.094,0,0.193,0.013,0.299,0.039l0.081,0.24c0.412,0.027,0.619,0.179,0.619,0.458c0,0.425-0.153,0.805-0.459,1.136
		c-0.306,0.333-0.657,0.499-1.057,0.499c-0.107,0-0.233-0.05-0.38-0.149c-0.146-0.1-0.266-0.149-0.359-0.149l-0.519,0.079
		l-0.499-0.159l-0.319,0.04l-0.3-0.04l-0.318,0.04l-0.24-0.04c-0.159,0-0.326,0.066-0.499,0.199h-0.36
		c-0.027,0-0.226,0.39-0.599,1.167c-0.372,0.777-0.638,1.36-0.797,1.745c-0.027,0.053-0.121,0.119-0.281,0.199
		c-0.106,0.466-0.312,0.738-0.618,0.818l0.04,0.28c-0.079,0.173-0.125,0.338-0.139,0.499c-0.014,0.159-0.13,0.322-0.35,0.488
		c-0.219,0.166-0.349,0.409-0.389,0.728c-0.04,0.319-0.146,0.678-0.319,1.078c-0.173,0.399-0.29,0.635-0.35,0.707
		c-0.059,0.074-0.173,0.233-0.338,0.479c-0.167,0.246-0.323,0.428-0.469,0.548c-0.147,0.12-0.22,0.206-0.22,0.258l0.12,0.28
		c-0.067,0.465-0.199,0.698-0.399,0.698v0.24c0,0.146-0.153,0.286-0.459,0.418c0.08,0.16,0.119,0.267,0.119,0.319
		c0,0.227-0.053,0.393-0.16,0.5c-0.187,0.026-0.28,0.079-0.28,0.159l0.121,0.239c0.027,0.027,0.04,0.08,0.04,0.16
		c0,0.067-0.067,0.398-0.2,0.997c0.267,0.173,0.4,0.359,0.4,0.558l-0.04,0.26c0.2,0.186,0.299,0.292,0.299,0.319l-0.139,0.458
		c-0.041,0.173-0.16,0.316-0.361,0.429c-0.199,0.113-0.486,0.169-0.859,0.169c-0.333,0-0.561-0.046-0.68-0.141
		c-0.121-0.092-0.27-0.185-0.451-0.279c-0.18-0.093-0.283-0.188-0.309-0.289c-0.027-0.101-0.134-0.272-0.32-0.518
		c-0.187-0.247-0.28-0.569-0.28-0.968v-0.26l-0.039-0.558v-0.179l0.12-0.858l-0.081-0.718c0-0.053,0.027-0.13,0.08-0.229
		c0.053-0.099,0.094-0.19,0.12-0.269c-0.133-0.546-0.2-0.871-0.2-0.978L35.542,25.6c-0.014-0.066,0.067-0.206,0.24-0.418
		c-0.426-0.08-0.667-0.189-0.727-0.329s-0.116-0.229-0.169-0.269c-0.052-0.04-0.105-0.113-0.159-0.219l-2.449-1.177
		c-0.012-0.013-0.049-0.073-0.109-0.179c-0.06-0.106-0.185-0.173-0.378-0.2c-0.192-0.026-0.315-0.066-0.367-0.119l-0.2-0.16
		l-0.895-0.079l-0.419,0.239c0,0.107-0.083,0.267-0.249,0.479c-0.166,0.212-0.342,0.558-0.527,1.037
		c-0.12,0.32-0.266,0.479-0.438,0.479l-0.08,0.18v0.478c0,0.133-0.07,0.243-0.209,0.329c-0.139,0.087-0.262,0.169-0.368,0.25
		c0.026,0.027,0.053,0.106,0.079,0.24v0.079l-0.159,0.3c-0.026,0.026-0.053,0.146-0.079,0.358c-0.027,0.213-0.206,0.446-0.538,0.698
		l-0.278,0.319v0.419l-0.258,0.738c-0.173,0.572-0.36,1.004-0.56,1.297c-0.16,0.026-0.24,0.092-0.24,0.199l0.08,0.259
		c0.027,0.026,0.041,0.067,0.041,0.12c0,0.239-0.11,0.366-0.33,0.379c-0.22,0.013-0.343,0.073-0.37,0.179
		c0.12,0.386,0.179,0.585,0.179,0.599c0,0.12-0.113,0.226-0.339,0.318h-0.041l0.121,0.758c-0.307,0.293-0.46,0.539-0.46,0.738
		c0.04,0.027,0.073,0.127,0.1,0.299v0.159c0,0.519-0.219,0.779-0.658,0.779c-0.174,0-0.536-0.313-1.088-0.938
		c-0.552-0.625-0.828-1.269-0.828-1.935l0.14-0.957c0.093-0.692,0.192-1.11,0.299-1.257c0.106-0.146,0.202-0.336,0.289-0.569
		c0.086-0.232,0.163-0.385,0.229-0.459c0.066-0.072,0.14-0.188,0.219-0.349l0.2-0.319l0.08-0.339l0.16-0.358
		c0.306-0.493,0.446-0.752,0.419-0.779c0-0.132,0.097-0.285,0.29-0.458c0.192-0.173,0.289-0.392,0.289-0.659
		c0-0.239,0.173-0.532,0.519-0.877l0.12-0.219c0.612-1.25,1.038-1.954,1.277-2.114c-0.106-0.306-0.2-0.458-0.279-0.458
		c-0.067,0-0.153,0.017-0.26,0.05c-0.106,0.033-0.206,0.05-0.299,0.05c-0.093,0-0.209,0.021-0.349,0.06
		c-0.14,0.039-0.356,0.06-0.649,0.06c-0.106,0-0.259,0.027-0.458,0.08h-0.04c-0.054,0-0.157-0.05-0.31-0.149
		c-0.153-0.1-0.229-0.163-0.229-0.189c0-0.292,0.237-0.604,0.709-0.938c0.472-0.333,1.041-0.591,1.706-0.778
		c0.12,0,0.272-0.085,0.458-0.259c0.187-0.173,0.486-0.26,0.898-0.26l0.279-0.159l0.199,0.04c0.306-0.385,0.552-0.744,0.739-1.077
		V18.4c0-0.053,0.143-0.25,0.429-0.589c0.287-0.338,0.442-0.534,0.468-0.587v-0.339c0.24-0.253,0.413-0.529,0.519-0.828
		c0.107-0.299,0.346-0.635,0.719-1.007l0.279-0.578c0.307-0.572,0.602-1.06,0.888-1.466c0.286-0.406,0.482-0.774,0.589-1.106
		l0.319-0.399l0.219-0.579c0.252-0.571,0.438-0.923,0.558-1.057c-0.026-0.412-0.107-0.618-0.239-0.618l-1.516,0.299l-0.358-0.041
		c-0.306,0.16-0.595,0.26-0.868,0.3s-0.583,0.212-0.927,0.519l-0.419-0.06c-0.093,0-0.209,0.053-0.349,0.159
		c-0.14,0.106-0.515,0.26-1.127,0.459c-0.053,0.187-0.106,0.299-0.16,0.339h-0.438l-0.658,0.558
		c-0.386,0.226-0.665,0.419-0.838,0.578c-0.173,0.16-0.319,0.239-0.438,0.239c-0.226,0-0.698,0.598-1.416,1.795l-0.259,0.18
		l-0.2,0.319c-0.093,0.026-0.226,0.053-0.399,0.08c-0.252,0.279-0.458,0.419-0.618,0.419c-0.12,0-0.369-0.103-0.748-0.309
		c-0.379-0.206-0.569-0.582-0.569-1.127c0-0.598,0.878-1.336,2.633-2.214l0.479-0.319c0.133-0.026,0.325-0.053,0.578-0.079
		c0.399-0.346,0.791-0.602,1.176-0.769c0.386-0.166,0.665-0.319,0.838-0.458c0.173-0.14,0.465-0.27,0.877-0.389
		c0.413-0.12,0.685-0.27,0.818-0.449c0.133-0.18,0.213-0.27,0.239-0.27l0.419,0.04L29.838,8.847z M26.7,21.352
		c0.106,0.027,0.252,0.04,0.439,0.04c0.106,0,0.159-0.046,0.159-0.14c0-0.08-0.04-0.12-0.12-0.12
		C26.965,21.132,26.806,21.206,26.7,21.352z M33.911,22.648l0.278,0.24c0.052-0.027,0.112-0.04,0.179-0.04
		c0.212,0,0.596,0.183,1.154,0.548c0.557,0.365,0.875,0.625,0.955,0.777c0.08,0.153,0.196,0.367,0.349,0.639
		c0.152,0.272,0.289,0.615,0.407,1.026c0.12,0.413,0.232,0.672,0.338,0.779c0.093-0.172,0.181-0.379,0.26-0.619l0.741-1.715
		c0-0.027,0.067-0.12,0.201-0.279l0.159-0.3l0.2-0.04c-0.026-0.053-0.04-0.132-0.04-0.24c0-0.159,0.167-0.404,0.5-0.737l0.201-0.618
		l0.5-0.638c0.054-0.24,0.16-0.491,0.32-0.759c0.16-0.265,0.252-0.398,0.28-0.398l0.16-0.08c0.093-0.492,0.219-0.818,0.379-0.978
		l0.04-0.119c-0.053,0.027-0.093,0.041-0.12,0.041c-0.025-0.027-0.106-0.053-0.239-0.081h-0.1c-0.132,0-0.305,0.04-0.518,0.12h-0.2
		c-0.026,0-0.099-0.026-0.219-0.08h-0.08l-0.558,0.239h-0.06l-0.2-0.16c-0.16,0.027-0.319,0.04-0.479,0.04
		c-0.053,0-0.183,0.04-0.389,0.12c-0.206,0.08-0.402,0.12-0.587,0.12l-0.958,0.12l-0.479-0.041h-0.458l-0.399-0.159
		c-0.252,0.306-0.538,0.458-0.857,0.458l-0.16,0.041h-0.04l-0.418-0.119c-0.08,0-0.133-0.051-0.16-0.15
		c-0.026-0.1-0.066-0.15-0.119-0.15c-0.172,0.385-0.416,0.599-0.727,0.639c-0.313,0.04-0.576,0.126-0.788,0.259
		c-0.332,0.093-0.551,0.14-0.658,0.14c-0.027,0-0.08-0.02-0.16-0.06c-0.571,0.892-0.857,1.356-0.857,1.397
		c0,0.079,0.206,0.119,0.617,0.119l0.279,0.12c0.08,0.067,0.229,0.119,0.448,0.16c0.218,0.04,0.448,0.099,0.686,0.179l0.3-0.08
		c0.026,0,0.152,0.034,0.377,0.1L33.911,22.648z"/>
	<path fill="#00558E" d="M46.748,31.563l-0.279-0.779c0-0.025,0.052-0.139,0.159-0.339c-0.134-0.106-0.2-0.185-0.2-0.239
		c0-0.133,0.052-0.313,0.159-0.539c-0.107-0.106-0.159-0.212-0.159-0.319l0.119-0.419c0.081-0.292,0.187-0.478,0.32-0.559l0.04-0.12
		c-0.106-0.079-0.16-0.152-0.16-0.219c0-0.026,0.067-0.159,0.2-0.399l0.04-0.279c0.026-0.279,0.193-0.499,0.499-0.658
		c0-0.611,0.137-1.018,0.409-1.216c0.272-0.2,0.472-0.413,0.599-0.639c0.126-0.226,0.416-0.644,0.869-1.256
		c0.252-0.16,0.512-0.306,0.778-0.439c0.092-0.345,0.219-0.548,0.378-0.608c0.16-0.06,0.391-0.272,0.69-0.638
		c0.298-0.366,0.668-0.568,1.106-0.609l0.2-0.079c0.067-0.212,0.252-0.422,0.558-0.628c0.307-0.206,0.579-0.355,0.819-0.449
		c0.239-0.092,0.438-0.202,0.6-0.329c0.159-0.127,0.358-0.243,0.598-0.35l0.32-0.159c0.092-0.067,0.219-0.187,0.378-0.36
		l0.159-0.039h0.16c0.133,0,0.302-0.06,0.51-0.18c0.206-0.12,0.308-0.239,0.308-0.359l-0.279,0.16h-0.139l-0.719,0.259l-0.997,0.12
		c-0.16-0.146-0.32-0.233-0.48-0.26c-0.598-0.133-0.897-0.618-0.897-1.456c0-0.611,0.13-1.073,0.389-1.387
		c0.259-0.312,0.439-0.621,0.54-0.926c0.099-0.307,0.282-0.599,0.548-0.878c0.266-0.28,0.411-0.485,0.438-0.618
		c0-0.053,0.081-0.12,0.24-0.2s0.276-0.206,0.35-0.378c0.072-0.173,0.302-0.373,0.688-0.599c-0.067-0.093,0.272-0.392,1.017-0.898
		c0.054-0.052,0.12-0.156,0.201-0.308c0.08-0.152,0.132-0.229,0.159-0.229c0.252,0,0.512-0.133,0.779-0.399l0.698-0.619
		C59.701,9.518,60,9.326,60.36,9.167c0.159-0.345,0.339-0.519,0.54-0.519c0.025,0,0.12,0.04,0.279,0.12h0.08
		c0.026,0,0.156-0.123,0.389-0.369c0.233-0.246,0.442-0.421,0.628-0.528c0.305,0.107,0.485,0.16,0.539,0.16V7.949
		c0-0.026,0.013-0.08,0.041-0.159l0.817-0.499l0.4,0.04c0.359-0.266,0.731-0.399,1.118-0.399c0.027,0,0.119,0.027,0.279,0.081
		c0.16-0.146,0.406-0.219,0.739-0.219c0.053,0,0.133,0.036,0.24,0.109c0.106,0.073,0.185,0.11,0.239,0.11
		c0.066,0,0.126-0.014,0.179-0.041c0.053-0.026,0.106-0.04,0.16-0.04c0.186,0,0.349,0.067,0.489,0.199
		c0.139,0.133,0.308,0.207,0.508,0.22c0.199,0.013,0.396,0.236,0.588,0.668c0.192,0.432,0.289,0.841,0.289,1.227l-0.039,0.418
		l0.039,0.319c-0.173,0.319-0.269,0.595-0.289,0.828c-0.02,0.233-0.129,0.488-0.329,0.768l-0.159,0.539
		c-0.187,0.159-0.307,0.293-0.36,0.399l-0.039,0.04c-0.04,0.413-0.207,0.618-0.499,0.618h-0.159c-0.333,0-0.586-0.142-0.759-0.429
		c-0.173-0.285-0.259-0.535-0.259-0.748c0-0.279,0.135-0.541,0.409-0.788c0.272-0.246,0.555-0.369,0.848-0.369l0.08-0.04
		c-0.027-0.052-0.04-0.132-0.04-0.239c0-0.106,0.066-0.186,0.199-0.239l0.141-0.1c0.012-0.093,0.05-0.203,0.109-0.329
		c0.06-0.126,0.089-0.216,0.089-0.27c0-0.172-0.086-0.428-0.259-0.768c-0.173-0.339-0.333-0.508-0.479-0.508
		c-0.053,0-0.106,0.014-0.159,0.039c-0.053,0.027-0.093,0.041-0.12,0.041l-0.339-0.041c-0.452,0-1.077,0.233-1.876,0.699
		l-0.239,0.08h-0.459c-0.027,0-0.081,0.066-0.16,0.199c-0.187,0.067-0.357,0.219-0.51,0.459c-0.153,0.239-0.385,0.428-0.699,0.568
		s-0.522,0.263-0.628,0.369l-0.339,0.12c-0.161,0.053-0.3,0.17-0.419,0.349c-0.12,0.18-0.413,0.449-0.878,0.808
		c-0.573,0.572-0.912,0.964-1.019,1.177l-0.259,0.16l-0.519,0.698c-0.334,0.665-0.661,1.084-0.979,1.256
		c-0.054,0-0.197,0.29-0.43,0.868c-0.233,0.579-0.4,0.895-0.5,0.947c-0.1,0.054-0.15,0.107-0.15,0.16
		c0,0.027,0.017,0.08,0.049,0.159c0.252-0.08,0.468-0.175,0.647-0.289c0.18-0.113,0.31-0.169,0.389-0.169
		c0.081,0,0.24-0.081,0.48-0.24h0.119c0.12,0,0.26-0.08,0.419-0.24h0.279c0.081-0.092,0.233-0.192,0.459-0.299
		c0.226-0.106,0.548-0.271,0.967-0.499c0.418-0.226,0.907-0.422,1.465-0.588c0.56-0.166,1.06-0.309,1.506-0.429
		c0.445-0.119,0.708-0.179,0.788-0.179c0.744,0,1.117,0.187,1.117,0.559c0,0.678-0.296,1.283-0.887,1.814
		c-0.593,0.532-0.955,0.797-1.088,0.797l-0.318-0.04l-1.437,0.339c-0.146,0.027-0.266,0.08-0.358,0.159l-1.556,0.858l-0.698,0.518
		l-0.36,0.1c-0.412,0.372-0.71,0.572-0.897,0.598l-0.339,0.08c-0.239,0.518-0.452,0.778-0.637,0.778c-0.067,0-0.167-0.053-0.3-0.159
		c-0.027,0.026-0.054,0.079-0.081,0.159c-0.026,0.08-0.137,0.247-0.329,0.499c-0.193,0.252-0.353,0.399-0.479,0.438
		c-0.127,0.04-0.25,0.087-0.369,0.14c-0.054,0.478-0.18,0.718-0.379,0.718l-0.36-0.04v0.259c0,0.133-0.103,0.247-0.309,0.339
		c-0.206,0.093-0.33,0.173-0.369,0.24c-0.04,0.067-0.087,0.1-0.14,0.1l-0.279-0.159l-0.04,0.079c0.053,0.108,0.08,0.193,0.08,0.26
		c0,0.053-0.047,0.133-0.14,0.239c-0.094,0.107-0.213,0.313-0.359,0.619c-0.146,0.053-0.24,0.093-0.279,0.119
		c-0.107,0.214-0.233,0.434-0.379,0.659c-0.107,0-0.206,0.093-0.299,0.279c-0.094,0.187-0.167,0.39-0.221,0.609
		c-0.053,0.219-0.167,0.368-0.339,0.449c-0.119,0.159-0.242,0.392-0.369,0.697c-0.126,0.307-0.209,0.643-0.249,1.008
		s-0.146,0.682-0.319,0.947c0.026,0.027,0.04,0.054,0.04,0.08l-0.04,0.539c0.013,0.014,0.063,0.16,0.15,0.439
		c0.086,0.279,0.192,0.438,0.318,0.478c0.127,0.04,0.229,0.127,0.309,0.259c0.054,0,0.207,0.041,0.459,0.12l0.2-0.12
		c0.132,0,0.251,0.041,0.359,0.12h0.08l0.339-0.08l0.2,0.08c0.106,0,0.239-0.053,0.398-0.16c0-0.026,0.021-0.04,0.06-0.04
		l0.279,0.16c0.266-0.16,0.462-0.246,0.588-0.259c0.126-0.014,0.226-0.081,0.299-0.201c0.074-0.119,0.156-0.179,0.25-0.179
		c0.026,0,0.106,0.04,0.239,0.12h0.06c0.026,0,0.093-0.05,0.2-0.149c0.106-0.1,0.255-0.177,0.449-0.229
		c0.192-0.053,0.342-0.12,0.449-0.199c0.106-0.081,0.292-0.187,0.558-0.32c0.252-0.026,0.458-0.113,0.618-0.259l0.199-0.08
		c0.12-0.026,0.223-0.106,0.309-0.239c0.087-0.134,0.436-0.406,1.047-0.819l0.419-0.318c0.385-0.333,0.808-0.615,1.267-0.848
		c0.459-0.232,0.741-0.468,0.848-0.707l0.159-0.24c0.531-0.053,0.844-0.206,0.937-0.459c0.2-0.212,0.419-0.359,0.658-0.438
		c0.067-0.226,0.106-0.352,0.12-0.379l0.339-0.08l0.081-0.08c0.053-0.319,0.146-0.501,0.279-0.549
		c0.132-0.046,0.315-0.169,0.548-0.368c0.232-0.2,0.456-0.359,0.668-0.479l0.977-0.957c0.066-0.066,0.193-0.166,0.379-0.299
		c0.026-0.106,0.132-0.187,0.319-0.24l0.219-0.219c0.028-0.053,0.1-0.113,0.219-0.18c0.12-0.066,0.296-0.243,0.529-0.529
		c0.232-0.285,0.501-0.429,0.807-0.429c0.081,0,0.12,0.04,0.12,0.12c0,0.891-0.14,1.48-0.419,1.765
		c-0.279,0.287-0.758,0.708-1.436,1.267c-0.026,0-0.113,0.099-0.259,0.3c-0.146,0.199-0.273,0.312-0.379,0.339
		c-0.04,0.04-0.133,0.159-0.279,0.358c-0.146,0.201-0.272,0.3-0.378,0.3c-0.12,0-0.272,0.14-0.459,0.419l-0.478,0.319l-0.379,0.418
		c-0.107,0.081-0.206,0.133-0.299,0.16c-0.094,0.026-0.161,0.1-0.2,0.219c-0.04,0.12-0.137,0.229-0.29,0.33
		c-0.152,0.099-0.396,0.308-0.728,0.627l-0.837,0.758c-0.12,0.12-0.259,0.219-0.419,0.299l-0.857,0.857
		c-0.187,0.252-0.419,0.379-0.699,0.379h-0.319c-0.027-0.027-0.094-0.081-0.2-0.16l-0.12-0.041c-0.119,0-0.179,0.028-0.179,0.081
		l0.04,0.518c-0.081,0.054-0.147,0.08-0.2,0.08l-0.119,0.04c-0.213,0.373-0.462,0.666-0.749,0.878
		c-0.286,0.212-0.449,0.339-0.489,0.378c-0.04,0.039-0.117,0.074-0.229,0.099c-0.113,0.027-0.229,0.087-0.349,0.18
		c-0.119,0.093-0.309,0.19-0.568,0.289c-0.26,0.1-0.465,0.196-0.618,0.29c-0.154,0.093-0.243,0.139-0.27,0.139
		c-0.107,0-0.239-0.052-0.399-0.159c-0.173,0.187-0.292,0.369-0.359,0.548c-0.066,0.18-0.153,0.27-0.259,0.27
		c-0.08,0-0.416,0.104-1.008,0.309c-0.591,0.207-0.934,0.363-1.027,0.469l-0.499-0.12c-0.199,0.106-0.406,0.159-0.619,0.159
		l-0.359-0.08c-0.252,0.08-0.391,0.119-0.418,0.119l-1.675-0.777c-0.159-0.08-0.253-0.146-0.279-0.199
		c-0.028-0.053-0.067-0.081-0.12-0.081c-0.438-0.226-0.729-0.479-0.868-0.758s-0.316-0.492-0.528-0.638L46.748,31.563z"/>
</g>
</svg>
