<?xml version="1.0" encoding="utf-8"?>
<!-- Generator: Adobe Illustrator 16.0.0, SVG Export Plug-In . SVG Version: 6.00 Build 0)  -->
<!DOCTYPE svg PUBLIC "-//W3C//DTD SVG 1.1//EN" "http://www.w3.org/Graphics/SVG/1.1/DTD/svg11.dtd">
<svg version="1.1" id="Layer_1" xmlns="http://www.w3.org/2000/svg" xmlns:xlink="http://www.w3.org/1999/xlink" x="0px" y="0px"
	 width="300px" height="80px" viewBox="0 0 300 80" enable-background="new 0 0 300 80" xml:space="preserve">
<g>
	<g>
		<path fill="#00558F" d="M89.042,57.452l0.399-0.995l1.294-1.444c0.664-1.093,1.212-1.741,1.644-1.938
			c0.067-0.267,0.165-0.516,0.299-0.748c0.132-0.23,0.23-0.597,0.297-1.095l0.449-0.796c0.132-0.133,0.2-0.232,0.2-0.299
			c0-0.067-0.134-0.266-0.399-0.597l-0.25-1.045c0-0.267-0.88-1.146-2.639-2.638h-0.399l-3.586-1.743l-0.199-0.498l-0.399-0.1
			l-0.499,0.199h-0.1l-1.693-0.497c-1.362-0.366-2.257-0.648-2.689-0.848c-0.067,0.069-0.167,0.1-0.299,0.1l-1.993-0.446
			c-0.566-0.133-0.905-0.274-1.022-0.424c-0.115-0.147-0.399-0.3-0.846-0.447c-0.449-0.149-0.74-0.289-0.873-0.424
			c-0.132-0.132-0.399-0.197-0.796-0.197l-1.247,0.297c0-0.1-0.464-0.265-1.394-0.496c-0.134-0.332-0.234-0.497-0.299-0.497
			l-1.444,0.199c-0.965-0.464-1.461-0.697-1.494-0.697c-0.167,0-0.748-0.093-1.745-0.274c-0.995-0.183-1.642-0.372-1.941-0.572
			c-0.297-0.199-0.746-0.399-1.342-0.598l-0.299-0.297c-0.067-0.067-0.249-0.132-0.546-0.199h-0.897
			c-0.197,0-0.472-0.167-0.821-0.499c-0.349-0.332-0.796-0.664-1.342-0.996c-0.548-0.332-1.03-0.854-1.444-1.567
			c-0.416-0.713-0.638-1.434-0.671-2.165c-0.067-0.065-0.1-0.132-0.1-0.199l0.297-1.592c0.299-2.025,1.245-3.899,2.838-5.625
			c0.265-0.896,0.811-1.542,1.642-1.941l0.199-0.698c0.961-0.828,1.649-1.492,2.065-1.988c0.415-0.497,0.886-0.903,1.417-1.22
			c0.531-0.314,0.945-0.604,1.245-0.871l0.901-0.399c-0.033-0.297,0.706-1.003,2.219-2.115s2.694-1.841,3.54-2.19
			c0.846-0.347,1.41-0.604,1.691-0.771c0.282-0.165,1.103-0.415,2.464-0.746c0.33-0.896,0.861-1.344,1.592-1.344h0.746l0.996-0.996
			l1.344,0.1c0.067-0.067,0.249-0.274,0.546-0.621c0.299-0.349,0.798-0.523,1.494-0.523l6.021-1.841h0.399l0.397,0.1
			c0.267,0,0.606-0.232,1.02-0.696c0.415-0.464,0.955-0.696,1.619-0.696c0.132,0,0.382,0.132,0.746,0.397c0,0.067,0.033,0.1,0.1,0.1
			l1.294-0.399l1.542,0.1l1.941-0.497c1.227,0,2.305,0.299,3.235,0.896l0.1-0.2V5.396c0-0.564,0.314-0.846,0.945-0.846
			c0.265,0,0.431,0.067,0.499,0.199l0.596,0.349h0.349c0.065,0,0.497,0.199,1.294,0.596c0.497-0.332,0.812-0.497,0.945-0.497
			c0.629,0,1.126,0.265,1.492,0.796l0.846-0.1c0.265-0.265,0.432-0.399,0.499-0.399c0.2,0,0.464,0.267,0.796,0.796l0.299,0.1h1.243
			c0.067,0,0.199,0.1,0.399,0.299l0.548,0.447c0.265,0.267,0.447,0.481,0.546,0.646c0.1,0.167,0.217,0.316,0.349,0.449
			c0.861-0.364,1.325-0.548,1.393-0.548c0.332,0,0.579,0.284,0.746,0.848c0,0.466,0.292,0.92,0.873,1.369
			c0.579,0.447,0.871,0.921,0.871,1.417c0.729,0.333,1.095,0.865,1.095,1.593l0.945,2.438l-0.199,0.848
			c0.265,0.529,0.399,0.829,0.399,0.896l-0.2,1.841l0.2,1.94c0,1.028-0.481,1.908-1.444,2.637c-0.199,0-0.523,0.142-0.97,0.424
			c-0.449,0.282-0.706,0.424-0.771,0.424c-0.865,0-1.437-0.207-1.718-0.624c-0.282-0.414-0.554-0.723-0.819-0.92
			c-0.267-0.199-0.399-0.464-0.399-0.796c0-0.763,0.514-1.509,1.542-2.24c0.464,0,0.796-0.148,0.995-0.447
			c0-0.698-0.149-1.178-0.449-1.444c-0.297-0.265-0.621-0.629-0.97-1.095c-0.347-0.464-0.719-0.838-1.118-1.12
			s-0.723-0.639-0.97-1.07c-0.25-0.431-0.474-0.648-0.673-0.648l-0.696,0.1l-1.444-0.297c-1.526-0.199-2.918-0.546-4.179-1.045
			h-0.997l-2.687-0.397c-0.466,0.2-1.128,0.297-1.991,0.297l-3.285,0.499l-1.342-0.1c-0.1,0-1.013,0.282-2.739,0.844l-0.497,0.1
			h-1.344c-0.067,0-0.489,0.167-1.27,0.499c-0.779,0.332-1.435,0.564-1.966,0.696l-0.447,0.199c-0.067,0.067-0.167,0.1-0.299,0.1
			l-0.795-0.1l-4.38,2.14l-0.696-0.397c-0.565-0.267-0.88-0.398-0.945-0.398c-0.466,0-0.698,0.232-0.698,0.696l-0.1,0.947
			c-0.431,0.265-0.713,0.464-0.846,0.597c-0.132,0.134-0.297,0.232-0.497,0.299h-0.598c-0.397,0-0.771,0.172-1.12,0.521
			c-0.347,0.349-0.654,0.539-0.92,0.571c-0.265,0.035-0.646,0.184-1.145,0.449c-0.067,0.132-0.332,0.267-0.796,0.397
			c-0.464,0.132-0.821,0.441-1.07,0.922c-0.25,0.481-0.539,0.721-0.871,0.721l-0.996-0.199L71.37,23.61
			c-0.698,0.167-1.095,0.267-1.195,0.299c-0.432,0.565-0.863,0.995-1.294,1.294c-0.432,0.299-0.854,0.621-1.27,0.97
			c-0.414,0.349-0.713,0.706-0.896,1.07c-0.182,0.365-0.457,0.654-0.821,0.869c-0.366,0.217-0.681,0.656-0.945,1.319l-0.497,0.499
			c-0.83,0.698-1.244,1.444-1.244,2.24c0,0.566,0.396,0.98,1.194,1.245c0.796,0.265,1.292,0.479,1.492,0.646
			c0.199,0.165,0.499,0.247,0.896,0.247c0.399,0,0.779,0.084,1.145,0.25c0.364,0.167,0.978,0.432,1.841,0.796
			c0.165,0.531,0.332,0.798,0.499,0.798c0.065,0,0.2-0.132,0.397-0.399c0.2-0.265,0.497-0.399,0.896-0.399
			c0.432,0,0.846,0.267,1.245,0.798l0.397-0.299h0.2l0.646,0.2h0.1l0.596-0.299c0.067-0.065,0.167-0.1,0.299-0.1
			c0.1,0,0.614,0.167,1.542,0.499h0.1c0.067,0,0.332-0.067,0.796-0.2c0.497,0.132,0.778,0.232,0.846,0.299l0.696,0.397
			c0,0.1,0.067,0.149,0.2,0.149s0.332-0.075,0.596-0.224c0.265-0.148,0.514-0.223,0.748-0.223c0.263,0,0.562,0.182,0.894,0.547
			c0.531-0.232,0.831-0.349,0.896-0.349c0.299,0,0.813,0.249,1.542,0.748l0.945,0.2h1.095l1.642,0.297
			c0.464,0.499,0.945,0.88,1.442,1.145c0.067-0.364,0.299-0.546,0.698-0.546c0.529,0,1.34,0.216,2.438,0.646l0.397,0.1l0.397,0.3
			c0.563-0.133,0.913-0.199,1.045-0.199c0.664,0,0.996,0.233,0.996,0.697c0,0.397-0.1,0.911-0.299,1.54
			c0.067,0,0.167,0.067,0.299,0.199c0.167-0.199,0.349-0.331,0.548-0.396l0.794-0.449c0.132-0.132,0.232-0.199,0.299-0.199
			c0.763,0,1.841,0.531,3.233,1.594c1.394,1.063,2.19,2.272,2.39,3.634c0,0.397,0.132,0.863,0.399,1.393l-0.2,0.646l0.1,0.796
			c0,0.067-0.067,0.299-0.2,0.698l-0.1,0.746c-0.067,0.132-0.167,0.249-0.299,0.349s-0.232,0.217-0.297,0.347l0.297,0.848v0.198
			c0,0.134-0.123,0.318-0.372,0.548c-0.249,0.234-0.406,0.449-0.474,0.648c-0.067,0.197-0.182,0.406-0.347,0.621
			c-0.167,0.217-0.284,0.472-0.349,0.771c-0.067,0.297-0.389,0.639-0.97,1.018c-0.581,0.384-0.871,0.674-0.871,0.873
			s0.065,0.299,0.2,0.299c0.397,0,0.819-0.191,1.266-0.573c0.449-0.38,0.788-0.605,1.02-0.671c0.23-0.067,0.629-0.265,1.193-0.599
			l4.671-2.188c3.479-1.658,5.418-2.488,5.816-2.488c0.529,0,0.796,0.266,0.796,0.795c0,0.2-0.234,0.582-0.698,1.146
			c-0.067,1.561-0.746,2.472-2.041,2.736c-0.499,0.334-0.878,0.681-1.143,1.045h-0.399c-0.83,0.931-1.776,1.395-2.836,1.395h-0.299
			c-1.228,1.229-2.721,1.91-4.478,2.04c-1.162,1.162-2.125,1.743-2.886,1.743l-0.798,0.198c-0.828,0.331-1.409,0.498-1.741,0.498
			c-0.067,0-0.199,0.133-0.399,0.397l-0.744,0.548c-0.631,0.133-1.312,0.497-2.04,1.096c-0.731,0.596-1.287,0.938-1.668,1.02
			c-0.382,0.083-0.789,0.225-1.218,0.424c-0.432,0.198-2.175,1.327-5.226,3.383l-0.646,0.2c-1.294,0.596-2.108,1.087-2.439,1.467
			c-0.332,0.382-0.73,0.706-1.193,0.971H80.45c-0.764,0-1.659,0.498-2.687,1.493c-0.067,0.167-0.79,0.441-2.165,0.823
			c-1.377,0.379-2.696,0.97-3.956,1.763c-0.796,0.2-1.776,0.465-2.936,0.798c-1.162,0.33-2.008,0.529-2.539,0.599l-3.483,0.744
			c-0.763,0.135-1.642,0.334-2.637,0.599c-0.598-0.2-1.112-0.3-1.542-0.3l-0.897,0.1c-0.132,0-0.339-0.114-0.621-0.349
			c-0.282-0.23-0.656-0.456-1.12-0.671c-0.464-0.215-0.696-0.79-0.696-1.719c0-0.828,0.913-1.646,2.739-2.461
			c1.826-0.812,3.022-1.385,3.586-1.717c0.267-0.366,0.723-0.581,1.369-0.648c0.648-0.064,1.205-0.264,1.67-0.596
			c0.464-0.332,1.178-0.631,2.142-0.896l1.993-1.046c0.1-0.064,0.182-0.1,0.25-0.1h0.696c0.232,0,0.581-0.182,1.047-0.546
			c0.464-0.364,0.945-0.631,1.444-0.798h0.596c0.067,0,0.167-0.083,0.299-0.248c0.134-0.166,0.434-0.381,0.897-0.647l0.15-0.1h0.499
			c0.364-0.298,0.796-0.547,1.294-0.746c0.499-0.2,0.978-0.465,1.444-0.796l3.885-1.494l0.897,0.1c0.2,0,0.457-0.157,0.771-0.474
			c0.314-0.314,1.055-0.637,2.217-0.969c0.165-0.267,0.514-0.581,1.045-0.945s1.162-0.897,1.893-1.594L89.042,57.452z
			 M71.676,69.894l-0.698-0.1c-0.466,0.267-0.924,0.414-1.373,0.446c-0.449,0.035-1.147,0.342-2.094,0.921
			c-0.949,0.583-2.039,1.137-3.268,1.668c-1.231,0.531-1.847,0.881-1.847,1.045c1.63-0.199,3.327-0.646,5.09-1.344l3.592-0.995
			c0.466-0.133,0.788-0.265,0.972-0.399c0.184-0.13,0.541-0.314,1.072-0.546l0.799-0.599c0.165-0.065,0.531-0.197,1.097-0.396
			c0.564-0.2,0.848-0.399,0.848-0.599c0-0.133-0.067-0.197-0.2-0.197c-1.196,0-2.144,0.182-2.844,0.546
			C72.125,69.711,71.744,69.894,71.676,69.894z"/>
		<path fill="#00558F" d="M114.407,49.639l1.045-0.848c0.796-0.065,1.228-0.479,1.292-1.243c0.065-0.763,0.614-1.425,1.642-1.99
			l0.599-0.846c0.497-0.499,1.854-1.145,4.077-1.942c0.564-0.33,0.946-0.629,1.145-0.896c0.065-0.067,0.132-0.1,0.198-0.1
			l0.796,0.199c0.431,0,0.985-0.115,1.667-0.35c0.679-0.231,1.334-0.347,1.963-0.347l2.09-0.1c0.132,0,0.405,0.1,0.821,0.297
			c0.415,0.199,0.919,0.3,1.517,0.3c0.729,0,1.4,0.331,2.014,0.995c0.612,0.663,0.92,1.279,0.92,1.843
			c0,1.027-0.531,2.073-1.59,3.136c-1.061,1.061-1.904,1.658-2.533,1.791c-0.564,0.563-0.993,0.92-1.292,1.07
			c-0.297,0.149-0.604,0.381-0.918,0.695c-0.315,0.316-0.572,0.474-0.769,0.474c-0.134,0-0.234-0.042-0.299-0.124
			c-0.067-0.083-0.167-0.125-0.297-0.125c-0.531,0-1.11,0.646-1.737,1.94l-0.896-0.1c-0.562,0.366-0.928,0.764-1.093,1.195
			c-0.167,0.432-0.514,0.646-1.043,0.646c-1.226,1.227-2.054,1.841-2.484,1.841c-0.067,0-0.299-0.065-0.696-0.198
			c-0.265,0.332-0.397,0.68-0.397,1.046c0,0.396-0.265,0.629-0.794,0.696l-0.646,0.596l-0.497-0.1l-0.993,1.047
			c-0.499,0-1.011,0.165-1.54,0.497c-0.067,0.398-0.167,0.903-0.299,1.517c-0.132,0.616-0.199,0.955-0.199,1.021
			c0,0.963,0.88,1.444,2.637,1.444l2.391-0.35c0.629,0,1.22-0.165,1.767-0.496c0.548-0.332,1.137-0.499,1.766-0.499
			c0.199,0,0.499-0.065,0.897-0.199l0.497,0.199c0.232-0.498,0.664-0.945,1.294-1.344c0.631-0.397,1.128-0.597,1.494-0.597
			l0.499-0.298c0.132-0.398,0.332-0.663,0.596-0.798l0.397-0.347c0.267-0.265,0.514-0.398,0.746-0.398h0.698l0.199-0.101
			c0.399-0.862,0.953-1.369,1.667-1.517c0.715-0.149,1.162-0.391,1.344-0.723c0.183-0.332,0.506-0.529,0.973-0.597
			c0.464-0.067,0.853-0.289,1.167-0.673c0.315-0.382,0.706-0.736,1.17-1.07c0.466-0.33,0.788-0.579,0.972-0.744
			c0.181-0.167,0.34-0.249,0.472-0.249c0.199,0,0.299,0.149,0.299,0.446c0,0.3,0.065,0.447,0.2,0.447
			c0.132,0,0.199-0.065,0.199-0.197c0-0.133-0.034-0.3-0.1-0.497V53.67c0-0.497,0.265-0.829,0.796-0.995l2.238-1.444
			c0.067-0.696,0.259-1.103,0.574-1.22c0.316-0.115,0.556-0.249,0.723-0.397c0.165-0.149,0.347-0.224,0.547-0.224
			c0.431,0,0.646,0.249,0.646,0.746l-0.248,1.294l0.248,1.345c0,0.199-0.157,0.474-0.472,0.82c-0.316,0.35-0.556,0.879-0.723,1.592
			c-0.167,0.713-0.381,1.104-0.648,1.17h-0.297c-0.598,0.631-1.072,1.003-1.421,1.12c-0.347,0.116-0.622,0.324-0.821,0.621
			l-1.693,1.942c-0.332,0.332-0.616,0.629-0.848,0.896c-0.232,0.265-0.414,0.397-0.546,0.397l-0.399-0.397
			c0-0.066-0.067-0.1-0.2-0.1c-0.332,0-0.539,0.199-0.623,0.597c-0.083,0.396-0.257,0.746-0.523,1.045
			c-0.996,0.464-1.644,0.896-1.941,1.295l-0.299,0.1h-0.897c-0.432,0-0.729,0.322-0.896,0.971c-0.167,0.646-0.641,1.02-1.419,1.119
			c-0.781,0.1-1.337,0.3-1.668,0.597c-0.067,0.067-0.217,0.134-0.449,0.199c-0.234,0.067-0.698,0.332-1.396,0.796l-4.183,1.492
			c-0.332,0.167-0.547,0.249-0.646,0.249l-1.396,0.2c-0.2,0-0.399-0.133-0.599-0.399c-0.197-0.265-0.33-0.398-0.396-0.398
			l-0.898,0.299c-0.663,0.199-1.294,0.299-1.891,0.299c-0.333,0-0.7-0.115-1.097-0.349c-0.398-0.23-0.715-0.397-0.947-0.497
			c-0.962,0-1.642-0.746-2.041-2.239l-0.598,0.1c-0.132,0-0.581-1.176-1.344-3.534c-0.2-0.265-0.516-0.455-0.945-0.572
			c-0.432-0.114-0.648-0.438-0.648-0.97c0-1.492,0.324-2.495,0.97-3.011c0.648-0.515,1.003-0.903,1.072-1.17l0.694-2.587
			c0.132-0.1,0.299-0.432,0.499-0.996l1.143-2.09C113.644,51.148,113.943,50.567,114.407,49.639z M124.932,46.653l-0.597,0.3
			c-0.132,0.064-0.521,0.354-1.169,0.868c-0.646,0.517-1.277,0.931-1.891,1.245c-0.616,0.316-1.245,1.137-1.891,2.464
			c-0.648,1.327-0.971,2.091-0.971,2.29s0.1,0.299,0.297,0.299l1.693-0.748c0.629-0.297,1.22-0.679,1.766-1.145
			c0.547-0.464,1.335-1.028,2.365-1.691l0.397-0.398c0.067-0.133,0.374-0.374,0.92-0.724c0.548-0.347,0.953-0.687,1.22-1.019
			l0.499-0.199c0.564-0.896,1.135-1.442,1.716-1.642s0.871-0.398,0.871-0.597c0-0.398-0.316-0.598-0.945-0.598
			c-0.267,0-0.664,0.167-1.195,0.498h-1.145c-0.132,0-0.497,0.198-1.095,0.597L124.932,46.653z"/>
		<path fill="#00558F" d="M145.459,58.098v-0.347c0-0.467,0.032-0.831,0.1-1.096c-0.2-0.531-0.299-1.013-0.299-1.443
			c0-0.065,0.165-0.531,0.497-1.393l0.449-1.544c0.232-0.597,0.365-0.911,0.399-0.945c-0.199-0.529-0.299-0.828-0.299-0.896
			c0-0.764,0.215-1.395,0.646-1.893c0.432-0.497,0.796-1.193,1.095-2.089l0.993-3.036l1.642-3.98c0.033-0.1,0.19-0.364,0.472-0.796
			c0.282-0.432,0.514-0.806,0.696-1.122c0.184-0.314,0.441-0.771,0.773-1.367l0.496-0.1c0.133-0.133,0.199-0.265,0.199-0.399
			c0-0.065-0.066-0.332-0.199-0.796l1.742-2.886l1.045-2.14c0.332-0.564,0.697-0.928,1.096-1.095
			c0.662-1.228,1.244-1.973,1.742-2.238c0.199-0.631,0.564-1.312,1.096-2.041l0.945-0.1c0.164-0.464,0.332-0.813,0.496-1.045
			l0.1-0.997c0,0.199,0.082,0.142,0.248-0.174c0.166-0.315,0.416-0.903,0.748-1.767l1.344-1.542l0.396-0.696
			c0.168-0.232,0.432-0.681,0.799-1.344c0.496-0.2,0.91-0.564,1.244-1.095l1.045-0.848c-0.066-0.362,0.33-1.175,1.193-2.436
			c0.564-0.232,1.078-0.531,1.541-0.897l0.699-0.199c0-1.161,0.414-1.956,1.244-2.39l0.596-0.397
			c0.531-0.267,0.828-0.399,0.896-0.399l0.35-0.1c0.398-0.132,0.861-0.198,1.393-0.198c1.227,0,2.338,0.457,3.334,1.368
			c0.994,0.913,1.494,1.95,1.494,3.112c0,0.464-0.25,0.945-0.748,1.442l-0.197,0.397c-0.467,1.825-0.799,2.738-0.996,2.738
			c-0.135,0-0.316,0.1-0.549,0.299c-0.066,1.095-0.133,1.708-0.199,1.841c-0.596,0.1-0.895,0.846-0.895,2.238
			c-0.068,0.2-0.309,0.541-0.723,1.021c-0.414,0.481-0.738,1.145-0.969,1.992c-0.232,0.846-0.482,1.27-0.746,1.27h-0.549
			l0.148,0.746c0,0.464-0.223,0.919-0.67,1.368c-0.449,0.447-0.723,0.92-0.822,1.417c-0.1,0.499-0.498,1.097-1.193,1.793
			l-0.498,0.798c-0.201,0.332-0.465,0.681-0.797,1.045c-0.332,0.364-0.615,0.928-0.846,1.689l-1.295,2.389
			c-0.895,1.626-1.576,2.407-2.039,2.339c-0.301,1.295-0.498,2.041-0.598,2.24c-0.1,0.197-0.332,0.382-0.695,0.547
			c-0.367,0.167-0.648,0.456-0.848,0.87c-0.199,0.416-0.416,0.722-0.646,0.921l-0.898,1.843c-0.529,0.232-0.91,0.664-1.143,1.295
			c-0.531,0.132-0.863,0.579-0.994,1.342c-0.135,0.133-0.301,0.432-0.5,0.896l-1.74,1.741c-0.896,0.631-1.377,1.354-1.445,2.167
			c-0.066,0.813-0.496,1.218-1.291,1.218c-0.564,0-1.395-0.247-2.49-0.746h-0.1c-0.1,0.465-0.332,0.979-0.696,1.542l0.2,1.345
			c0,0.167-0.267,1.212-0.796,3.136c0.265,0.498,0.397,0.846,0.397,1.047l-0.101,1.093l0.25,1.343
			c0.166,1.097,0.564,1.644,1.195,1.644l1.193,0.199c0.066,0,0.48-0.249,1.244-0.746l1.838-0.997c0.068,0,0.1,0.034,0.1,0.1
			c0.332,0.134,0.598,0.199,0.797,0.199c0.332,0,0.496-0.265,0.496-0.796V61.93c0.199-0.33,0.439-0.529,0.721-0.597
			c0.283-0.065,0.539-0.215,0.771-0.447c0.232-0.231,0.414-0.347,0.547-0.347h0.498c0.498,0,0.746-0.581,0.746-1.743
			c0.133-0.067,0.299-0.199,0.498-0.399h0.596c0.264,0,0.557-0.322,0.871-0.97c0.314-0.646,0.539-1.038,0.67-1.17
			c0.598-0.065,1.014-0.165,1.246-0.3c1.061-1.923,1.873-2.884,2.438-2.884h0.297c0.563-0.531,0.869-1.005,0.92-1.419
			s0.217-0.688,0.496-0.823c0.283-0.13,0.539-0.297,0.773-0.496c0.23-0.199,0.379-0.3,0.447-0.3c0.496,0,0.746,0.185,0.746,0.549
			l-0.15,1.393l0.348,1.493c0,0.135-0.141,0.392-0.422,0.771c-0.281,0.382-0.422,0.806-0.422,1.27c0,0.963-0.168,1.477-0.498,1.542
			c-0.33,0.066-0.605,0.291-0.82,0.673c-0.217,0.382-0.572,0.73-1.07,1.045s-0.879,0.771-1.143,1.369l-0.848,0.198l-0.496,0.299
			c-0.396,1.028-0.82,1.659-1.268,1.891c-0.449,0.232-1.006,0.929-1.666,2.091c-0.1,0-0.15,0.034-0.15,0.1l-0.795-0.1
			c-0.299,0.531-0.598,0.846-0.896,0.945s-0.547,0.291-0.746,0.573s-0.555,0.521-1.068,0.721c-0.516,0.2-0.838,0.432-0.971,0.696
			c-0.133,0.267-0.33,0.414-0.598,0.449c-0.264,0.032-0.512,0.157-0.744,0.372c-0.232,0.217-0.432,0.322-0.596,0.322
			c-0.068,0-0.299-0.031-0.697-0.099h-0.199c-0.564,0.397-1.027,0.597-1.393,0.597c-0.432,0-0.746,0.067-0.945,0.199
			c-0.197-0.132-0.506-0.231-0.92-0.299c-0.414-0.065-0.888-0.232-1.417-0.497c-0.563,0.133-0.913,0.2-1.045,0.2
			c-0.564,0-1.275-0.557-2.138-1.667c-0.861-1.112-1.292-2.197-1.292-3.26c0-0.035-0.192-0.29-0.574-0.773
			c-0.381-0.48-0.571-1.003-0.571-1.566v-0.497l0.1-0.598v-0.945l0.1-0.3c0.497-0.064,0.746-0.13,0.746-0.197L145.459,58.098z
			 M155.557,44.91l1.045-0.596c0.133-0.531,0.564-1.17,1.293-1.916c0.73-0.748,1.244-1.12,1.545-1.12h0.398
			c0-0.232,0.049-0.464,0.148-0.696s0.15-0.547,0.15-0.945c0-0.199,0.447-0.746,1.342-1.644l0.396-0.896
			c0.301-0.863,1.049-1.576,2.24-2.14c0.467-0.963,0.814-1.442,1.045-1.442l0.4-0.1c0.131-0.497,0.396-0.945,0.795-1.344
			l0.199-0.297v-0.798c0-0.065,0.225-0.339,0.672-0.821c0.449-0.481,0.773-0.928,0.971-1.344c0.199-0.414,0.473-0.738,0.82-0.97
			c0.35-0.232,0.588-0.646,0.723-1.245l0.797-0.098c0-0.432,0.031-0.713,0.1-0.848l0.1-0.497c0.164-0.399,0.746-1.444,1.74-3.136
			l0.797-1.841c0-0.2,0.141-0.439,0.424-0.721c0.281-0.282,0.424-0.688,0.424-1.22l0.396-1.644c0-0.763-0.133-1.145-0.396-1.145
			c-0.334,0.232-0.641,0.399-0.922,0.499c-0.283,0.098-0.557,0.696-0.822,1.791c-0.994,0.232-1.566,0.706-1.717,1.419
			c-0.148,0.713-0.555,1.317-1.219,1.814l-0.35,0.598c-0.066,0.366-0.381,0.746-0.945,1.145c-0.563,0.397-1.092,1.08-1.592,2.041
			c-1.658,2.29-2.57,3.517-2.736,3.682l-0.498,0.599l-0.746-0.1c0.133,0.531,0.199,0.83,0.199,0.896c0,0.199-0.1,0.391-0.299,0.571
			c-0.199,0.184-0.35,0.409-0.449,0.673c-0.1,0.267-0.297,0.571-0.596,0.92c-0.297,0.349-0.572,0.913-0.822,1.691
			c-0.248,0.78-0.471,1.237-0.67,1.369l-0.699-0.1c-0.432,0.267-0.645,0.531-0.645,0.796l0.148,0.698
			c0,0.132-0.092,0.29-0.273,0.472c-0.184,0.184-0.357,0.541-0.523,1.07c-0.166,0.531-0.58,1.337-1.244,2.414
			c-0.664,1.078-1.186,2.223-1.568,3.433c-0.381,1.213-0.754,1.985-1.119,2.315c0.066,0.067,0.166,0.1,0.299,0.1
			C154.745,46.254,155.159,45.805,155.557,44.91z"/>
		<path fill="#00558F" d="M172.481,58.098v-0.347c0-0.467,0.033-0.831,0.1-1.096c-0.199-0.531-0.299-1.013-0.299-1.443
			c0-0.065,0.166-0.531,0.496-1.393l0.449-1.544c0.232-0.597,0.365-0.911,0.398-0.945c-0.199-0.529-0.299-0.828-0.299-0.896
			c0-0.764,0.215-1.395,0.646-1.893c0.43-0.497,0.797-1.193,1.096-2.089l0.994-3.036l1.641-3.98c0.033-0.1,0.191-0.364,0.471-0.796
			c0.283-0.432,0.516-0.806,0.699-1.122c0.18-0.314,0.439-0.771,0.771-1.367l0.498-0.1c0.131-0.133,0.197-0.265,0.197-0.399
			c0-0.065-0.066-0.332-0.197-0.796l1.74-2.886l1.043-2.14c0.332-0.564,0.699-0.928,1.096-1.095
			c0.664-1.228,1.244-1.973,1.744-2.238c0.199-0.631,0.563-1.312,1.094-2.041l0.945-0.1c0.168-0.464,0.332-0.813,0.5-1.045
			l0.1-0.997c0,0.199,0.082,0.142,0.246-0.174c0.168-0.315,0.414-0.903,0.746-1.767l1.346-1.542l0.396-0.696
			c0.166-0.232,0.432-0.681,0.797-1.344c0.498-0.2,0.914-0.564,1.246-1.095l1.045-0.848c-0.068-0.362,0.332-1.175,1.193-2.436
			c0.564-0.232,1.076-0.531,1.541-0.897l0.697-0.199c0-1.161,0.414-1.956,1.244-2.39l0.598-0.397
			c0.531-0.267,0.83-0.399,0.896-0.399l0.348-0.1c0.398-0.132,0.863-0.198,1.395-0.198c1.225,0,2.338,0.457,3.334,1.368
			c0.996,0.913,1.492,1.95,1.492,3.112c0,0.464-0.248,0.945-0.746,1.442l-0.199,0.397c-0.465,1.825-0.795,2.738-0.994,2.738
			c-0.135,0-0.316,0.1-0.549,0.299c-0.068,1.095-0.133,1.708-0.199,1.841c-0.598,0.1-0.896,0.846-0.896,2.238
			c-0.066,0.2-0.307,0.541-0.721,1.021c-0.414,0.481-0.738,1.145-0.969,1.992c-0.234,0.846-0.48,1.27-0.748,1.27h-0.547l0.15,0.746
			c0,0.464-0.225,0.919-0.674,1.368c-0.447,0.447-0.721,0.92-0.82,1.417c-0.1,0.499-0.498,1.097-1.195,1.793l-0.498,0.798
			c-0.199,0.332-0.465,0.681-0.795,1.045c-0.332,0.364-0.615,0.928-0.846,1.689l-1.293,2.389c-0.898,1.626-1.576,2.407-2.043,2.339
			c-0.297,1.295-0.496,2.041-0.596,2.24c-0.1,0.197-0.332,0.382-0.697,0.547c-0.365,0.167-0.648,0.456-0.848,0.87
			c-0.199,0.416-0.414,0.722-0.646,0.921l-0.895,1.843c-0.531,0.232-0.912,0.664-1.145,1.295c-0.531,0.132-0.863,0.579-0.996,1.342
			c-0.133,0.133-0.299,0.432-0.496,0.896l-1.744,1.741c-0.895,0.631-1.377,1.354-1.443,2.167c-0.064,0.813-0.496,1.218-1.293,1.218
			c-0.563,0-1.395-0.247-2.488-0.746h-0.098c-0.1,0.465-0.334,0.979-0.699,1.542l0.199,1.345c0,0.167-0.266,1.212-0.795,3.136
			c0.264,0.498,0.396,0.846,0.396,1.047l-0.1,1.093l0.25,1.343c0.166,1.097,0.563,1.644,1.193,1.644l1.195,0.199
			c0.066,0,0.48-0.249,1.242-0.746l1.842-0.997c0.064,0,0.098,0.034,0.098,0.1c0.332,0.134,0.596,0.199,0.797,0.199
			c0.33,0,0.498-0.265,0.498-0.796V61.93c0.197-0.33,0.439-0.529,0.721-0.597c0.279-0.065,0.537-0.215,0.77-0.447
			c0.232-0.231,0.414-0.347,0.547-0.347h0.498c0.496,0,0.746-0.581,0.746-1.743c0.133-0.067,0.299-0.199,0.496-0.399h0.596
			c0.266,0,0.557-0.322,0.871-0.97c0.314-0.646,0.539-1.038,0.672-1.17c0.596-0.065,1.012-0.165,1.244-0.3
			c1.061-1.923,1.873-2.884,2.438-2.884h0.299c0.563-0.531,0.869-1.005,0.92-1.419c0.049-0.414,0.217-0.688,0.498-0.823
			c0.279-0.13,0.537-0.297,0.771-0.496c0.23-0.199,0.379-0.3,0.447-0.3c0.496,0,0.744,0.185,0.744,0.549l-0.148,1.393l0.348,1.493
			c0,0.135-0.141,0.392-0.422,0.771c-0.281,0.382-0.424,0.806-0.424,1.27c0,0.963-0.166,1.477-0.496,1.542
			c-0.332,0.066-0.605,0.291-0.82,0.673c-0.217,0.382-0.572,0.73-1.07,1.045s-0.879,0.771-1.143,1.369l-0.846,0.198l-0.5,0.299
			c-0.396,1.028-0.82,1.659-1.268,1.891c-0.447,0.232-1.004,0.929-1.666,2.091c-0.1,0-0.148,0.034-0.148,0.1l-0.797-0.1
			c-0.297,0.531-0.596,0.846-0.895,0.945c-0.301,0.1-0.547,0.291-0.746,0.573s-0.557,0.521-1.068,0.721
			c-0.514,0.2-0.838,0.432-0.971,0.696c-0.133,0.267-0.332,0.414-0.596,0.449c-0.266,0.032-0.516,0.157-0.746,0.372
			c-0.232,0.217-0.43,0.322-0.598,0.322c-0.066,0-0.297-0.031-0.695-0.099h-0.197c-0.566,0.397-1.031,0.597-1.395,0.597
			c-0.432,0-0.746,0.067-0.943,0.199c-0.199-0.132-0.506-0.231-0.922-0.299c-0.416-0.065-0.887-0.232-1.418-0.497
			c-0.564,0.133-0.912,0.2-1.045,0.2c-0.564,0-1.277-0.557-2.139-1.667c-0.863-1.112-1.293-2.197-1.293-3.26
			c0-0.035-0.191-0.29-0.572-0.773c-0.381-0.48-0.572-1.003-0.572-1.566v-0.497l0.1-0.598v-0.945l0.1-0.3
			c0.496-0.064,0.746-0.13,0.746-0.197L172.481,58.098z M182.581,44.91l1.045-0.596c0.131-0.531,0.564-1.17,1.295-1.916
			c0.729-0.748,1.244-1.12,1.541-1.12h0.398c0-0.232,0.051-0.464,0.15-0.696s0.148-0.547,0.148-0.945
			c0-0.199,0.447-0.746,1.344-1.644l0.398-0.896c0.299-0.863,1.045-1.576,2.238-2.14c0.465-0.963,0.813-1.442,1.047-1.442l0.396-0.1
			c0.133-0.497,0.398-0.945,0.799-1.344l0.197-0.297v-0.798c0-0.065,0.225-0.339,0.672-0.821c0.449-0.481,0.771-0.928,0.971-1.344
			c0.199-0.414,0.473-0.738,0.822-0.97c0.346-0.232,0.586-0.646,0.721-1.245l0.795-0.098c0-0.432,0.033-0.713,0.1-0.848l0.1-0.497
			c0.166-0.399,0.746-1.444,1.742-3.136l0.797-1.841c0-0.2,0.141-0.439,0.422-0.721c0.283-0.282,0.424-0.688,0.424-1.22l0.4-1.644
			c0-0.763-0.135-1.145-0.4-1.145c-0.332,0.232-0.639,0.399-0.92,0.499c-0.281,0.098-0.557,0.696-0.82,1.791
			c-0.998,0.232-1.568,0.706-1.719,1.419s-0.557,1.317-1.219,1.814l-0.35,0.598c-0.066,0.366-0.381,0.746-0.943,1.145
			c-0.564,0.397-1.096,1.08-1.594,2.041c-1.658,2.29-2.572,3.517-2.736,3.682l-0.5,0.599l-0.746-0.1
			c0.133,0.531,0.199,0.83,0.199,0.896c0,0.199-0.098,0.391-0.299,0.571c-0.199,0.184-0.346,0.409-0.445,0.673
			c-0.1,0.267-0.301,0.571-0.6,0.92c-0.297,0.349-0.57,0.913-0.82,1.691c-0.248,0.78-0.473,1.237-0.672,1.369l-0.697-0.1
			c-0.432,0.267-0.646,0.531-0.646,0.796l0.15,0.698c0,0.132-0.092,0.29-0.275,0.472c-0.182,0.184-0.355,0.541-0.521,1.07
			c-0.166,0.531-0.58,1.337-1.244,2.414c-0.666,1.078-1.188,2.223-1.566,3.433c-0.383,1.213-0.756,1.985-1.121,2.315
			c0.066,0.067,0.166,0.1,0.301,0.1C181.766,46.254,182.182,45.805,182.581,44.91z"/>
		<path fill="#00558F" d="M201.401,49.639l1.045-0.848c0.795-0.065,1.225-0.479,1.293-1.243c0.064-0.763,0.611-1.425,1.639-1.99
			l0.6-0.846c0.496-0.499,1.854-1.145,4.076-1.942c0.564-0.33,0.945-0.629,1.145-0.896c0.068-0.067,0.133-0.1,0.199-0.1l0.797,0.199
			c0.432,0,0.986-0.115,1.664-0.35c0.682-0.231,1.336-0.347,1.967-0.347l2.088-0.1c0.135,0,0.406,0.1,0.82,0.297
			c0.414,0.199,0.92,0.3,1.518,0.3c0.729,0,1.398,0.331,2.014,0.995c0.613,0.663,0.92,1.279,0.92,1.843
			c0,1.027-0.529,2.073-1.588,3.136c-1.061,1.061-1.904,1.658-2.533,1.791c-0.564,0.563-0.994,0.92-1.293,1.07
			c-0.299,0.149-0.604,0.381-0.918,0.695c-0.314,0.316-0.572,0.474-0.77,0.474c-0.135,0-0.234-0.042-0.299-0.124
			c-0.066-0.083-0.166-0.125-0.299-0.125c-0.529,0-1.109,0.646-1.738,1.94l-0.895-0.1c-0.563,0.366-0.928,0.764-1.094,1.195
			c-0.164,0.432-0.512,0.646-1.041,0.646c-1.227,1.227-2.055,1.841-2.484,1.841c-0.066,0-0.299-0.065-0.695-0.198
			c-0.266,0.332-0.396,0.68-0.396,1.046c0,0.396-0.268,0.629-0.797,0.696l-0.645,0.596l-0.496-0.1l-0.994,1.047
			c-0.498,0-1.01,0.165-1.539,0.497c-0.066,0.398-0.168,0.903-0.299,1.517c-0.133,0.616-0.199,0.955-0.199,1.021
			c0,0.963,0.877,1.444,2.637,1.444l2.391-0.35c0.629,0,1.221-0.165,1.766-0.496c0.547-0.332,1.137-0.499,1.768-0.499
			c0.199,0,0.498-0.065,0.895-0.199l0.5,0.199c0.23-0.498,0.662-0.945,1.293-1.344c0.629-0.397,1.129-0.597,1.492-0.597l0.498-0.298
			c0.133-0.398,0.33-0.663,0.598-0.798l0.398-0.347c0.266-0.265,0.514-0.398,0.746-0.398h0.697l0.201-0.101
			c0.396-0.862,0.953-1.369,1.666-1.517c0.715-0.149,1.162-0.391,1.344-0.723s0.506-0.529,0.971-0.597
			c0.463-0.067,0.854-0.289,1.17-0.673c0.314-0.382,0.703-0.736,1.17-1.07c0.463-0.33,0.787-0.579,0.971-0.744
			c0.182-0.167,0.34-0.249,0.473-0.249c0.199,0,0.299,0.149,0.299,0.446c0,0.3,0.066,0.447,0.199,0.447
			c0.131,0,0.199-0.065,0.199-0.197c0-0.133-0.033-0.3-0.1-0.497V53.67c0-0.497,0.266-0.829,0.795-0.995l2.24-1.444
			c0.066-0.696,0.256-1.103,0.572-1.22c0.314-0.115,0.555-0.249,0.723-0.397c0.166-0.149,0.348-0.224,0.547-0.224
			c0.43,0,0.646,0.249,0.646,0.746l-0.246,1.294l0.246,1.345c0,0.199-0.156,0.474-0.473,0.82c-0.314,0.35-0.557,0.879-0.721,1.592
			c-0.168,0.713-0.383,1.104-0.648,1.17h-0.299c-0.6,0.631-1.07,1.003-1.42,1.12c-0.348,0.116-0.623,0.324-0.822,0.621l-1.693,1.942
			c-0.332,0.332-0.613,0.629-0.848,0.896c-0.23,0.265-0.414,0.397-0.545,0.397l-0.398-0.397c0-0.066-0.068-0.1-0.199-0.1
			c-0.332,0-0.541,0.199-0.625,0.597c-0.082,0.396-0.256,0.746-0.523,1.045c-0.996,0.464-1.645,0.896-1.941,1.295l-0.297,0.1h-0.898
			c-0.432,0-0.73,0.322-0.898,0.971c-0.164,0.646-0.637,1.02-1.418,1.119s-1.334,0.3-1.666,0.597
			c-0.068,0.067-0.217,0.134-0.451,0.199c-0.232,0.067-0.697,0.332-1.395,0.796l-4.182,1.492c-0.334,0.167-0.549,0.249-0.648,0.249
			l-1.395,0.2c-0.199,0-0.398-0.133-0.598-0.399c-0.201-0.265-0.332-0.398-0.398-0.398l-0.896,0.299
			c-0.666,0.199-1.297,0.299-1.893,0.299c-0.332,0-0.699-0.115-1.098-0.349c-0.396-0.23-0.713-0.397-0.945-0.497
			c-0.965,0-1.643-0.746-2.041-2.239l-0.598,0.1c-0.135,0-0.582-1.176-1.344-3.534c-0.199-0.265-0.516-0.455-0.947-0.572
			c-0.432-0.114-0.646-0.438-0.646-0.97c0-1.492,0.324-2.495,0.971-3.011c0.645-0.515,1.002-0.903,1.068-1.17l0.697-2.587
			c0.133-0.1,0.299-0.432,0.498-0.996l1.143-2.09C200.637,51.148,200.936,50.567,201.401,49.639z M211.924,46.653l-0.598,0.3
			c-0.133,0.064-0.521,0.354-1.168,0.868c-0.646,0.517-1.277,0.931-1.891,1.245c-0.615,0.316-1.244,1.137-1.893,2.464
			c-0.646,1.327-0.971,2.091-0.971,2.29s0.1,0.299,0.299,0.299l1.691-0.748c0.631-0.297,1.221-0.679,1.77-1.145
			c0.545-0.464,1.334-1.028,2.361-1.691l0.398-0.398c0.066-0.133,0.373-0.374,0.922-0.724c0.547-0.347,0.953-0.687,1.219-1.019
			l0.496-0.199c0.564-0.896,1.139-1.442,1.719-1.642c0.582-0.199,0.871-0.398,0.871-0.597c0-0.398-0.316-0.598-0.945-0.598
			c-0.268,0-0.664,0.167-1.195,0.498h-1.145c-0.133,0-0.498,0.198-1.096,0.597L211.924,46.653z"/>
		<path fill="#00558F" d="M237.014,45.757l0.746-0.199l0.299-0.648c1.625-0.961,2.787-1.873,3.484-2.736
			c0.068-0.133,0.217-0.267,0.447-0.398c0.232-0.133,0.482-0.365,0.746-0.696c1.229-1.228,2.689-1.841,4.383-1.841
			c1.988,0,3.051,1.212,3.184,3.632l0.299,0.746c0.264,0.466,0.639,1.411,1.119,2.838c0.48,1.425,0.721,2.306,0.721,2.637
			c0,0.896-0.281,1.791-0.846,2.688c-0.465,0.232-1.576,1.477-3.334,3.732l-0.496,0.347c-0.268,0.599-0.617,1.195-1.045,1.793
			c-0.666,0.232-0.996,0.481-0.996,0.746v0.896c0,0.067-0.074,0.2-0.225,0.399s-0.357,0.581-0.623,1.145l-0.396,0.597
			c-0.135,0.132-0.268,0.406-0.4,0.82c-0.131,0.417-0.322,0.789-0.57,1.12c-0.25,0.332-0.375,0.599-0.375,0.796
			c0,0.499,0.646,0.748,1.941,0.748c0.066,0,0.314-0.1,0.748-0.299l0.695,0.199c0.068,0,0.232-0.107,0.5-0.324
			c0.264-0.215,0.67-0.39,1.219-0.521c0.545-0.135,1.025-0.332,1.443-0.599c0.412-0.265,0.91-0.498,1.49-0.696
			c0.58-0.199,1.137-0.523,1.668-0.972c0.531-0.447,1.055-0.77,1.568-0.969c0.514-0.197,0.994-0.504,1.443-0.921
			c0.447-0.414,0.951-0.805,1.518-1.169c0.564-0.364,1.459-1.162,2.686-2.39c0.797-0.629,1.346-0.979,1.645-1.045
			c0.064,0,0.355-0.439,0.871-1.318c0.512-0.878,1.102-1.319,1.766-1.319c0.695,0,1.045,0.332,1.045,0.996
			c0,0.364-0.166,0.713-0.5,1.045v0.297l0.102,0.798c0.064,0.098,0.098,0.247,0.098,0.447c0,0.134-0.123,0.331-0.373,0.598
			c-0.246,0.265-0.422,0.604-0.521,1.019c-0.1,0.416-0.414,0.69-0.945,0.823c-0.197,0.73-0.453,1.145-0.77,1.244
			c-0.314,0.1-0.754,0.432-1.318,0.995c-0.566,0.564-1.361,1.228-2.391,1.991c-1.029,0.763-1.734,1.352-2.115,1.766
			c-0.381,0.416-0.637,0.623-0.771,0.623c-0.064,0-0.197-0.066-0.396-0.199c-0.197-0.132-0.332-0.199-0.398-0.199
			c-0.199,0-0.33,0.232-0.398,0.696l-0.197,0.498c-0.432,0.267-0.68,0.397-0.746,0.397l-0.299-0.1h-0.199
			c-0.398,0-0.596,0.149-0.596,0.448l0.297,0.499v0.1c0,0.464-0.266,0.696-0.797,0.696c-0.365,0-1.426,0.613-3.186,1.841
			l-1.441,0.297l-1.193,0.648c-0.398-0.232-0.648-0.349-0.748-0.349l-0.795,0.249l-1.445,0.1c-0.031,0-0.637-0.332-1.814-0.995
			c-1.178-0.664-1.885-1.327-2.115-1.99c-0.232-0.664-0.531-1.335-0.896-2.016s-0.549-1.153-0.549-1.419
			c0-1.592,0.133-2.729,0.4-3.408c0.264-0.681,0.43-1.188,0.498-1.519c0.064-0.33,0.254-0.688,0.57-1.07
			c0.314-0.382,0.574-1.003,0.773-1.866c0.961-1.926,1.625-3.101,1.99-3.534c0.365-0.43,0.646-0.961,0.846-1.592l0.648-0.896
			c0.066-0.067,0.166-0.324,0.297-0.772c0.133-0.447,0.301-0.704,0.5-0.771c0.264-0.464,0.396-0.763,0.396-0.896
			c0-0.961-0.432-1.442-1.293-1.442c-0.166,0-0.35,0.175-0.549,0.522c-0.199,0.349-0.654,0.688-1.369,1.02
			c-0.713,0.332-1.152,0.581-1.318,0.746c-0.166,0.167-0.523,0.374-1.07,0.623c-0.549,0.25-1.021,0.639-1.42,1.168l-0.846,0.399
			c-0.264,0.631-0.496,0.979-0.695,1.045c-0.199,0.067-0.814,0.233-1.844,0.499c-0.066,0.032-0.232,0.231-0.498,0.596
			c-0.268,0.366-0.646,0.549-1.145,0.549c-0.396,0.396-0.797,0.861-1.195,1.393c-0.133,0-0.48,0.132-1.045,0.398l-0.996,0.247
			c-0.266,0.2-0.555,0.517-0.869,0.945c-0.316,0.434-0.906,0.648-1.77,0.648c-0.498,0-0.746-0.398-0.746-1.194
			c0-1.627,0.572-2.917,1.717-3.882c1.145-0.963,1.98-1.477,2.514-1.544c0.531-0.064,0.863-0.265,0.996-0.596
			c0.133-0.332,0.457-0.604,0.971-0.823c0.514-0.215,1.109-0.696,1.791-1.442c0.678-0.745,1.418-1.25,2.215-1.517L237.014,45.757z"
			/>
		<path fill="#00558F" d="M261.569,25.19l-0.398-2.438c-0.033-0.232,0.057-0.514,0.273-0.848c0.215-0.33,0.357-0.611,0.424-0.846
			c0.066-0.232,0.184-0.439,0.348-0.621c0.166-0.182,0.457-0.698,0.873-1.544c0.414-0.846,1.17-1.334,2.264-1.469
			c0.332-0.33,0.797-0.497,1.393-0.497c0.797,0,1.75,0.746,2.861,2.24c1.113,1.492,1.668,2.439,1.668,2.836
			c0,0.565-0.381,1.179-1.145,1.841c0,1.095-0.324,2.033-0.971,2.812c-0.646,0.78-1.068,1.379-1.27,1.793
			c-0.199,0.416-0.348,0.656-0.447,0.721c-0.098,0.067-0.705,0.873-1.814,2.412c-1.115,1.544-1.984,2.317-2.613,2.317
			c-0.102,0-0.592-0.2-1.471-0.598c-0.877-0.399-1.318-0.629-1.318-0.696c0-0.863,0.463-1.718,1.395-2.562
			c0.928-0.848,1.459-1.718,1.594-2.614c-0.168-0.067-0.482-0.481-0.945-1.245L261.569,25.19z"/>
		<path fill="#00558F" d="M272.188,46.155l0.695-1.245c0.199-0.297,0.457-0.604,0.771-0.92c0.318-0.314,0.658-1.128,1.023-2.439
			c0.367-1.308,0.771-2.213,1.221-2.712c0.447-0.497,1.102-0.746,1.967-0.746c0.498,0,1.154,0.242,1.969,0.724
			c0.813,0.48,1.607,1.931,2.391,4.353c0.781,2.422,1.172,4.131,1.172,5.126c0,0.397,0.115,0.903,0.35,1.52
			c0.23,0.613,0.381,1.085,0.445,1.417c-0.264,0.563-0.396,0.88-0.396,0.945l0.098,2.04l-0.594,1.642v1.195
			c-0.4,0.665-0.602,1.079-0.602,1.244c0,0.199,0.07,0.399,0.201,0.599c1.559-0.664,2.504-1.202,2.836-1.619
			c0.33-0.414,0.654-0.671,0.967-0.771c0.314-0.1,0.836-0.531,1.566-1.294l0.943-0.499c0.332-0.397,0.611-0.752,0.844-1.068
			c0.232-0.314,0.504-0.539,0.82-0.671c0.313-0.133,0.688-0.366,1.117-0.698c0.43-0.33,1.061-0.714,1.887-1.145l0.5-0.597
			c0.494-0.563,1.08-1.013,1.764-1.345c0.678-0.331,1.051-0.498,1.115-0.498c0.23,0,0.473,0.307,0.721,0.922
			c0.246,0.614,0.373,1.218,0.373,1.816c0,0.565-0.326,1.12-0.971,1.667c-0.648,0.548-1.086,0.955-1.318,1.219
			c-0.23,0.267-0.76,0.497-1.588,0.696c-0.07,0.035-0.615,0.714-1.641,2.041l-0.994,0.598l-0.498,0.646
			c-0.066,0.133-0.514,0.267-1.344,0.399c-0.031,0-0.107,0.166-0.221,0.496c-0.117,0.334-0.475,0.566-1.07,0.698
			c-1.193,1.095-1.807,1.709-1.84,1.841l-1.043,0.198c-0.199,0.631-0.365,1.012-0.496,1.145c-0.797,0.199-1.246,0.531-1.346,0.997
			c-0.1,0.065-0.264,0.133-0.496,0.197l-0.199,0.15c-0.762,0.598-1.508,0.962-2.236,1.095l-1.143,0.299l-0.398,0.597
			c0,0.167-0.408,0.382-1.219,0.648s-1.418,0.596-1.814,0.995l-0.848,0.645c-1.025,0.398-1.674,0.765-1.936,1.097h-0.699
			c-0.461,0-1.193,0.341-2.186,1.021c-0.996,0.681-1.791,1.02-2.389,1.02c-1.92,0-3.24-0.239-3.951-0.721
			c-0.713-0.481-1.301-1.08-1.766-1.793c-0.463-0.714-0.885-1.285-1.27-1.717c-0.379-0.43-0.568-0.778-0.568-1.045
			c0-0.232,0.156-0.464,0.471-0.696c0.314-0.231,0.656-0.705,1.021-1.419c0.363-0.714,1.291-1.17,2.781-1.369
			c0.068,0,0.309-0.1,0.725-0.299c0.412-0.198,0.75-0.298,1.018-0.298c0.33,0,0.746,0.298,1.242,0.896c0,0.067,0.068,0.1,0.199,0.1
			l0.797-0.1c0.363,0.267,0.611,0.399,0.746,0.399c0.793,0,1.637-0.399,2.535-1.195l0.197-0.1h0.398c0.1,0,0.268-0.281,0.496-0.846
			l0.844-1.741l1.744-2.24v-0.498c0-0.1,0.098-0.397,0.297-0.896v-0.746c0-0.299,0.197-0.491,0.598-0.573
			c0.396-0.083,0.598-0.29,0.598-0.622l-0.102-0.396c-0.266-0.364-0.396-0.648-0.396-0.846l0.498-0.997l-0.102-1.045l0.199-0.397
			c-0.135-0.466-0.199-0.73-0.199-0.798l0.199-1.244c0-0.033-0.092-0.348-0.273-0.944c-0.186-0.598-0.324-0.896-0.424-0.896
			c-0.201,0-0.832,0.515-1.895,1.542c-1.063,1.028-1.695,1.759-1.895,2.19c-0.197,0.432-0.623,0.82-1.27,1.17
			c-0.648,0.349-1.086,0.738-1.32,1.17c-0.234,0.431-0.514,0.681-0.846,0.746l-3.34,2.687l-3.637,2.688
			c-0.268,0.297-0.434,0.446-0.498,0.446c-1.229,0-1.844-0.679-1.844-2.04c0-0.432,0.25-1.212,0.746-2.34
			c0.234-0.132,0.408-0.231,0.525-0.299c0.115-0.065,0.172-0.115,0.172-0.147c0-0.033-0.031-0.05-0.1-0.05l0.299,0.197h0.1
			c1.23-0.828,2.027-1.308,2.393-1.442c0.365-0.13,0.697-0.496,0.994-1.095l2.096-1.492c0.531-0.398,1.344-1.128,2.439-2.189
			C271.19,47.432,271.889,46.653,272.188,46.155z"/>
	</g>
	<g>
		<path fill="#00558F" d="M12.542,8.866l0.284-0.083l0.206-0.203h0.04l0.182,0.083h0.041c0.326,0,0.615-0.065,0.869-0.194
			c0.253-0.13,0.466-0.22,0.637-0.276c0.17-0.054,0.278-0.094,0.318-0.121c0.042-0.027,0.077-0.04,0.104-0.04l0.33,0.04
			c0.107,0,0.253-0.193,0.438-0.581c0.182-0.385,0.389-0.667,0.619-0.844c0.23-0.176,0.462-0.51,0.692-0.997
			c0.054-0.069,0.115-0.174,0.182-0.316c0.069-0.142,0.123-0.215,0.163-0.215c0.203,0,0.366-0.128,0.489-0.385
			c0.406-0.476,0.738-0.713,0.997-0.713c0.337,0,0.575,0.326,0.711,0.978l0.203,0.772c0,0.014-0.034,0.113-0.102,0.295
			c-0.069,0.184-0.098,0.366-0.092,0.55c0.007,0.183,0,0.305-0.019,0.366c-0.021,0.062-0.031,0.133-0.031,0.213
			c0,0.109,0.115,0.163,0.345,0.163c0.082,0,0.23-0.054,0.449-0.163l0.121-0.04c0.136,0.081,0.251,0.123,0.347,0.123
			c0.027,0,0.221-0.069,0.579-0.203c0.36-0.136,0.587-0.211,0.683-0.224c0.094-0.014,0.257-0.069,0.489-0.163h0.244l0.163,0.061
			c0.054,0,0.167-0.057,0.336-0.174c0.17-0.115,0.493-0.186,0.968-0.213l0.284-0.123h0.083c0.447,0,0.671,0.197,0.671,0.59
			c0,0.083-0.065,0.225-0.194,0.428s-0.234,0.436-0.316,0.692l-0.936,1.181c-0.313,0.407-0.624,0.61-0.936,0.61
			c-0.056,0-0.225-0.182-0.51-0.55c0-0.027-0.027-0.04-0.081-0.04c-0.136,0-0.278,0.029-0.428,0.083
			c-0.149,0.054-0.272,0.08-0.366,0.08c-0.04,0-0.401,0.102-1.08,0.305l-0.487,0.083c-0.055,0-0.184,0.027-0.387,0.081l-1.04,0.205
			c-0.353,0.176-0.631,0.508-0.836,0.997c0,0.027-0.067,0.088-0.203,0.182l-0.917,1.67c-0.299,0.081-0.497,0.257-0.59,0.529
			l-0.083,0.121c-0.149,0.029-0.286,0.113-0.409,0.255c-0.121,0.142-0.238,0.255-0.345,0.335l-0.368,0.551
			c-0.149,0.189-0.299,0.396-0.449,0.621c-0.149,0.223-0.257,0.46-0.326,0.711c-0.067,0.251-0.123,0.397-0.163,0.438
			c-0.041,0.042-0.062,0.117-0.062,0.224l-0.062,0.163c-0.163,0.163-0.243,0.345-0.243,0.55l0.08,0.324
			c-0.189,0.652-0.286,0.999-0.286,1.04c0,0.027,0.014,0.102,0.042,0.224v0.121c0,0.299-0.109,0.673-0.328,1.12l0.042,0.326
			l-0.123,0.917c0,0.121,0.041,0.345,0.123,0.671c-0.055,0.054-0.082,0.096-0.082,0.123c0,0.38,0.201,0.798,0.602,1.252
			s0.602,1.162,0.602,2.127c0,0.08-0.021,0.199-0.062,0.354c-0.042,0.157-0.069,0.328-0.082,0.51
			c-0.014,0.184-0.119,0.362-0.316,0.539c-0.198,0.177-0.363,0.265-0.499,0.265c-0.721,0-1.258-0.521-1.611-1.566
			c-0.354-1.045-0.531-1.717-0.531-2.016l0.041-0.794l-0.121-0.407l0.121-1.791l-0.081-0.428l0.468-1.751v-0.631
			c0-0.027,0.096-0.136,0.286-0.326c0-0.027-0.027-0.041-0.081-0.041c-0.083,0-0.189,0.081-0.326,0.244s-0.307,0.318-0.51,0.468
			l-0.163,0.286c-0.029-0.027-0.083-0.054-0.163-0.083c-0.069,0.029-0.293,0.347-0.673,0.957c-0.286,0.041-0.51,0.203-0.673,0.489
			c-0.163,0.284-0.387,0.428-0.673,0.428l-0.083,0.04c-0.054,0.395-0.244,0.591-0.57,0.591l-0.083,0.04
			c-0.203,0.462-0.414,0.687-0.633,0.673c-0.136,0.406-0.468,0.685-0.999,0.834c-0.081,0.163-0.199,0.284-0.356,0.366
			c-0.156,0.081-0.269,0.156-0.336,0.225c-0.069,0.067-0.13,0.102-0.184,0.102c-0.176,0-0.265-0.19-0.265-0.571
			c0-0.107,0.044-0.227,0.132-0.355c0.088-0.13,0.132-0.221,0.132-0.276c0-0.026-0.069-0.107-0.203-0.243
			c0-0.42,0.107-0.685,0.326-0.794c0.216-0.109,0.379-0.265,0.489-0.468c0.067-0.163,0.204-0.278,0.407-0.347
			c0.203-0.067,0.307-0.155,0.307-0.265c0-0.094,0.177-0.284,0.529-0.569c0.353-0.286,0.612-0.533,0.775-0.742
			c0.163-0.211,0.299-0.316,0.407-0.316l0.082-0.081c0.027-0.339,0.156-0.51,0.388-0.51l0.203-0.121l0.041-0.163L9.4,17.252h0.163
			l0.102-0.081c0.027-0.339,0.188-0.604,0.479-0.794s0.825-0.723,1.599-1.599c0.775-0.875,1.21-1.435,1.304-1.678
			c0.096-0.246,0.269-0.573,0.52-0.987c0.251-0.415,0.392-0.806,0.418-1.172c-0.027-0.054-0.067-0.107-0.121-0.161l-0.876,0.426
			c0-0.041-0.136-0.102-0.406-0.182c-0.204,0.123-0.353,0.244-0.449,0.366c-0.094,0.123-0.169,0.182-0.223,0.182l-0.286-0.04
			l-0.896,0.102c-0.802,0.069-1.404,0.232-1.813,0.489l-0.834,0.246H7.899c-0.107,0-0.271,0.067-0.487,0.203l-0.468-0.042
			c-0.436,0.232-0.754,0.347-0.959,0.347c-0.027,0-0.107-0.014-0.244-0.041l-2.077,0.57c-0.161,0.054-0.529,0.332-1.099,0.834
			L2.402,14.28c-0.134,0-0.295-0.152-0.477-0.458c-0.184-0.305-0.276-0.579-0.276-0.823c0-1.344,1.154-2.125,3.461-2.341
			l0.834-0.326h0.04l0.225,0.083h0.082c0.081,0,0.211-0.052,0.386-0.153c0.176-0.102,0.571-0.229,1.181-0.378L8.693,9.66
			l0.265,0.041c0.136,0,0.29-0.054,0.458-0.163c0.171-0.109,0.428-0.186,0.775-0.234c0.345-0.048,0.587-0.098,0.721-0.153
			l0.326-0.081c0.056,0,0.167-0.048,0.336-0.142c0.17-0.096,0.391-0.144,0.662-0.144C12.277,8.784,12.378,8.813,12.542,8.866z"/>
		<path fill="#00558F" d="M18.744,19.837l0.163-0.222c0.355-0.083,0.58-0.219,0.675-0.409c0.04-0.094,0.382-0.447,1.022-1.059
			c0.641-0.609,0.996-0.936,1.063-0.976c0.434-0.788,0.696-1.377,0.792-1.772c0.161-0.081,0.244-0.176,0.244-0.284l0.161-0.326
			l0.182-0.04l0.083-0.083v-0.182c0-0.246,0.263-0.815,0.79-1.71c0.529-1.099,0.815-1.707,0.855-1.822
			c0.04-0.115,0.121-0.286,0.244-0.51c0.123-0.223,0.309-0.654,0.56-1.292c0.251-0.637,0.641-1.302,1.17-1.995
			c0.056-0.027,0.136-0.18,0.246-0.458c0.107-0.278,0.278-0.552,0.508-0.825l0.245-0.427c0.081-0.134,0.223-0.372,0.426-0.711
			c0.205-0.34,0.391-0.608,0.56-0.806c0.171-0.195,0.299-0.403,0.387-0.619c0.088-0.217,0.194-0.374,0.316-0.468
			c0.121-0.096,0.248-0.269,0.376-0.52c0.128-0.251,0.328-0.376,0.601-0.376c0.529,0,0.913,0.217,1.15,0.65
			c0.238,0.436,0.356,0.815,0.356,1.141c0,0.041-0.082,0.332-0.245,0.875l-0.305,1.832c-0.272,0.136-0.406,0.293-0.406,0.47
			c0,0.719-0.278,1.465-0.834,2.238c-0.056,0.055-0.1,0.232-0.132,0.529c-0.034,0.299-0.153,0.542-0.356,0.734
			c-0.204,0.19-0.388,0.508-0.55,0.955l-1.893,2.708l-0.163,0.163c-0.081,0.056-0.176,0.171-0.286,0.347l-0.324-0.102
			c-0.366,0-0.55,0.115-0.55,0.345c0,0.081,0.027,0.19,0.081,0.326v0.04c0,0.014-0.502,0.727-1.505,2.138
			c-0.056,0.081-0.149,0.345-0.286,0.794l-0.284,0.61c-0.286,0.393-0.485,0.777-0.603,1.151c-0.115,0.374-0.267,0.675-0.456,0.905
			c-0.272,0.612-0.409,0.93-0.409,0.957c0,0.083,0.04,0.123,0.123,0.123s0.274-0.204,0.581-0.612
			c0.305-0.407,0.556-0.677,0.752-0.813c0.198-0.136,0.364-0.326,0.5-0.569l0.203-0.144c0.054-0.027,0.171-0.107,0.347-0.243
			l0.204,0.04c0.109-0.081,0.176-0.176,0.203-0.284c0.027-0.109,0.069-0.19,0.123-0.246c0.355-0.04,0.576-0.169,0.664-0.385
			c0.088-0.219,0.194-0.326,0.316-0.326c0.107,0,0.251-0.126,0.428-0.378c0.176-0.251,0.424-0.455,0.744-0.61
			c0.318-0.155,0.558-0.295,0.713-0.418c0.157-0.123,0.472-0.269,0.947-0.437c0.478-0.171,0.796-0.255,0.959-0.255h0.123
			l0.163,0.042l0.307-0.042c0.476,0,0.951,0.132,1.425,0.397c0.476,0.265,0.679,0.675,0.611,1.231l-0.163,1.264l-0.225,0.997
			c-0.027,0.163-0.134,0.522-0.326,1.078c-0.189,0.558-0.284,0.876-0.284,0.957l-0.083,0.388l0.083,0.529l-0.04,0.428
			c0,0.136,0.067,0.203,0.201,0.203c0.056,0,0.203-0.123,0.447-0.366c0.149,0.027,0.292-0.054,0.426-0.244
			c0.136-0.192,0.318-0.387,0.548-0.591c0-0.054,0.088-0.105,0.265-0.153c0.175-0.048,0.418-0.207,0.729-0.478
			c0.056-0.123,0.318-0.383,0.792-0.784s0.926-0.709,1.359-0.926l0.123-0.163c0.228-0.23,0.439-0.345,0.627-0.345
			c0.19,0,0.286,0.102,0.286,0.305c0,0.136-0.034,0.278-0.104,0.428c-0.067,0.15-0.115,0.341-0.142,0.579s-0.163,0.581-0.407,1.028
			l-0.081,0.204c-0.096,0.232-0.211,0.366-0.345,0.408c-0.136,0.041-0.282,0.152-0.437,0.336c-0.158,0.182-0.478,0.356-0.967,0.52
			c-0.217,0.407-0.385,0.61-0.508,0.61l-0.366-0.163c-0.284,0.232-0.426,0.468-0.426,0.713c-0.353,0.297-0.563,0.495-0.631,0.591
			l-0.407-0.042c-0.107,0-0.163,0.15-0.163,0.449c0,0.026-0.138,0.119-0.417,0.274c-0.278,0.155-0.491,0.295-0.64,0.418
			c-0.15,0.123-0.468,0.182-0.955,0.182c-0.054,0-0.136-0.048-0.244-0.142c-0.109-0.096-0.269-0.177-0.478-0.246
			c-0.211-0.065-0.357-0.226-0.437-0.478c-0.083-0.251-0.171-0.447-0.265-0.591c-0.096-0.142-0.142-0.253-0.142-0.335l0.04-0.406
			l-0.102-0.428l0.182-0.286c-0.081-0.189-0.121-0.318-0.121-0.385l0.203-1.243c0.15-0.896,0.271-1.479,0.366-1.751
			c0.027-0.027,0.041-0.107,0.041-0.244l-0.041-0.51l0.041-0.284c0-0.204-0.069-0.313-0.203-0.326
			c-0.136-0.014-0.217-0.048-0.244-0.102c-0.179-0.081-0.28-0.123-0.307-0.123c-0.109,0-0.203,0.084-0.286,0.255
			c-0.081,0.168-0.19,0.322-0.326,0.458l-0.508-0.083v0.042c0,0.107-0.184,0.318-0.551,0.631c-0.341,0.081-0.633,0.257-0.876,0.529
			c-0.109,0-0.295,0.105-0.562,0.314c-0.265,0.211-0.438,0.33-0.518,0.357l-0.163,0.326l-0.326,0.102
			c-0.096,0.271-0.32,0.447-0.673,0.529l-0.203,0.386c-0.286,0.029-0.483,0.174-0.593,0.439c-0.107,0.265-0.189,0.397-0.243,0.397
			c-0.027,0-0.071-0.017-0.132-0.052c-0.062-0.033-0.119-0.05-0.175-0.05c-0.297,0-0.46,0.224-0.489,0.671
			c0,0.054-0.278,0.374-0.834,0.957c-0.558,0.583-0.857,0.882-0.897,0.896c-0.04,0.013-0.119,0.153-0.234,0.418
			s-0.274,0.46-0.479,0.589c-0.203,0.13-0.356,0.234-0.458,0.316c-0.102,0.082-0.18,0.123-0.234,0.123
			c-0.286,0-0.516-0.205-0.692-0.612c-0.179-0.406-0.265-0.618-0.265-0.631l0.121-0.428l-0.041-0.366
			c0-0.014,0.084-0.288,0.255-0.825c0.168-0.535,0.362-0.957,0.581-1.262c0.217-0.305,0.385-0.804,0.508-1.496
			c-0.61,0.407-0.978,0.61-1.101,0.61c-0.27,0-0.406-0.176-0.406-0.529C18.109,20.938,18.32,20.354,18.744,19.837z"/>
		<path fill="#00558F" d="M39.269,18.963l0.425-0.345c0.326-0.029,0.503-0.198,0.529-0.51c0.027-0.313,0.251-0.583,0.671-0.815
			l0.246-0.345c0.203-0.203,0.759-0.468,1.668-0.794c0.23-0.136,0.385-0.257,0.468-0.366c0.027-0.027,0.054-0.041,0.081-0.041
			l0.326,0.081c0.176,0,0.402-0.048,0.681-0.142c0.278-0.096,0.546-0.142,0.804-0.142l0.855-0.042c0.054,0,0.165,0.042,0.336,0.123
			c0.168,0.081,0.375,0.123,0.619,0.123c0.299,0,0.573,0.136,0.825,0.407c0.251,0.272,0.376,0.523,0.376,0.753
			c0,0.42-0.217,0.848-0.65,1.283c-0.433,0.433-0.778,0.677-1.035,0.732c-0.23,0.23-0.407,0.376-0.529,0.438
			c-0.121,0.061-0.248,0.155-0.376,0.284c-0.128,0.13-0.234,0.193-0.314,0.193c-0.054,0-0.096-0.015-0.123-0.05
			c-0.027-0.034-0.067-0.052-0.121-0.052c-0.217,0-0.455,0.265-0.711,0.794l-0.366-0.04c-0.23,0.149-0.38,0.313-0.447,0.489
			c-0.067,0.177-0.209,0.265-0.425,0.265c-0.502,0.502-0.84,0.754-1.017,0.754c-0.027,0-0.123-0.029-0.284-0.083
			c-0.109,0.136-0.163,0.278-0.163,0.428c0,0.163-0.109,0.257-0.326,0.286l-0.263,0.244l-0.203-0.041l-0.407,0.428
			c-0.203,0-0.414,0.067-0.631,0.204c-0.027,0.163-0.067,0.37-0.123,0.621c-0.054,0.251-0.081,0.389-0.081,0.416
			c0,0.395,0.358,0.591,1.08,0.591l0.976-0.142c0.259,0,0.499-0.069,0.723-0.203c0.224-0.136,0.464-0.205,0.723-0.205
			c0.083,0,0.204-0.027,0.366-0.081l0.204,0.081c0.096-0.204,0.272-0.386,0.529-0.548c0.259-0.163,0.462-0.246,0.612-0.246
			l0.203-0.121c0.054-0.163,0.136-0.272,0.246-0.326l0.163-0.142c0.107-0.109,0.209-0.163,0.305-0.163h0.284l0.083-0.04
			c0.163-0.355,0.389-0.56,0.681-0.622c0.293-0.062,0.476-0.159,0.551-0.295c0.075-0.136,0.207-0.216,0.397-0.245
			c0.189-0.027,0.349-0.117,0.479-0.274c0.129-0.155,0.288-0.301,0.478-0.437c0.19-0.136,0.322-0.238,0.397-0.305
			c0.075-0.069,0.14-0.102,0.194-0.102c0.083,0,0.123,0.06,0.123,0.182s0.027,0.184,0.081,0.184c0.056,0,0.083-0.027,0.083-0.083
			c0-0.054-0.013-0.123-0.04-0.203v-0.142c0-0.203,0.107-0.339,0.324-0.408l0.917-0.589c0.027-0.286,0.105-0.453,0.234-0.499
			c0.128-0.048,0.228-0.104,0.295-0.165c0.069-0.06,0.144-0.09,0.224-0.09c0.177,0,0.265,0.102,0.265,0.305l-0.102,0.529l0.102,0.55
			c0,0.081-0.065,0.194-0.193,0.335c-0.128,0.142-0.229,0.359-0.295,0.652c-0.067,0.292-0.155,0.451-0.265,0.478h-0.123
			c-0.244,0.257-0.438,0.41-0.581,0.458c-0.142,0.048-0.255,0.132-0.336,0.253l-0.692,0.794c-0.136,0.136-0.251,0.259-0.347,0.368
			c-0.094,0.107-0.168,0.161-0.224,0.161l-0.163-0.161c0-0.029-0.027-0.042-0.081-0.042c-0.136,0-0.22,0.083-0.255,0.246
			s-0.105,0.305-0.213,0.428c-0.409,0.19-0.673,0.366-0.796,0.529l-0.123,0.041h-0.367c-0.176,0-0.297,0.132-0.366,0.396
			c-0.069,0.265-0.261,0.417-0.581,0.458c-0.318,0.041-0.546,0.121-0.683,0.244c-0.027,0.027-0.088,0.054-0.182,0.083
			c-0.096,0.027-0.286,0.134-0.571,0.324l-1.711,0.612c-0.136,0.067-0.224,0.102-0.265,0.102l-0.571,0.082
			c-0.081,0-0.163-0.055-0.244-0.165c-0.083-0.107-0.136-0.161-0.163-0.161l-0.366,0.121c-0.272,0.083-0.531,0.123-0.775,0.123
			c-0.136,0-0.286-0.048-0.449-0.142c-0.163-0.096-0.292-0.163-0.387-0.205c-0.393,0-0.671-0.305-0.834-0.915l-0.246,0.041
			c-0.054,0-0.238-0.481-0.548-1.446c-0.083-0.107-0.211-0.186-0.388-0.234c-0.176-0.046-0.265-0.18-0.265-0.397
			c0-0.61,0.132-1.02,0.397-1.231s0.411-0.37,0.438-0.478l0.286-1.059c0.054-0.042,0.121-0.176,0.203-0.409l0.468-0.855
			C38.956,19.581,39.077,19.343,39.269,18.963z M43.572,17.742l-0.244,0.123c-0.054,0.027-0.213,0.146-0.478,0.355
			c-0.265,0.211-0.523,0.381-0.775,0.51c-0.251,0.129-0.508,0.464-0.772,1.007c-0.265,0.543-0.397,0.855-0.397,0.938
			c0,0.081,0.04,0.121,0.123,0.121l0.692-0.305c0.257-0.123,0.499-0.278,0.721-0.468c0.224-0.19,0.546-0.42,0.968-0.692l0.161-0.163
			c0.029-0.054,0.153-0.153,0.378-0.295c0.224-0.142,0.389-0.282,0.499-0.418l0.203-0.081c0.23-0.366,0.464-0.591,0.702-0.671
			c0.238-0.083,0.356-0.163,0.356-0.245c0-0.163-0.128-0.244-0.387-0.244c-0.107,0-0.271,0.069-0.487,0.203h-0.468
			c-0.056,0-0.205,0.083-0.449,0.244L43.572,17.742z"/>
	</g>
</g>
</svg>
