<?xml version="1.0" encoding="utf-8"?>
<!-- Generator: Adobe Illustrator 16.0.0, SVG Export Plug-In . SVG Version: 6.00 Build 0)  -->
<!DOCTYPE svg PUBLIC "-//W3C//DTD SVG 1.1//EN" "http://www.w3.org/Graphics/SVG/1.1/DTD/svg11.dtd">
<svg version="1.1" id="Layer_1" xmlns="http://www.w3.org/2000/svg" xmlns:xlink="http://www.w3.org/1999/xlink" x="0px" y="0px"
	 width="20px" height="20px" viewBox="0 0 20 20" enable-background="new 0 0 20 20" xml:space="preserve">
<g opacity="0.5">
	<path fill="#FFFFFF" d="M16.996,7.002h-1.832l0.879-1.523c0.274-0.475,0.111-1.08-0.362-1.354l-3.434-1.982
		c-0.474-0.273-1.079-0.111-1.354,0.363L10,4.053L9.106,2.506c-0.274-0.475-0.88-0.637-1.354-0.363L4.319,4.125
		C3.845,4.398,3.683,5.004,3.957,5.479l0.879,1.523H3.004c-0.552,0-0.999,0.447-0.999,1V12c0,0.551,0.447,0.998,0.999,0.998h1.832
		l-0.879,1.523c-0.274,0.475-0.112,1.08,0.362,1.354l3.433,1.982c0.475,0.273,1.08,0.111,1.354-0.363L10,15.947l0.894,1.547
		c0.274,0.475,0.88,0.637,1.354,0.363l3.433-1.982c0.474-0.273,0.637-0.879,0.362-1.354l-0.879-1.523h1.832
		c0.552,0,0.999-0.447,0.999-0.998V8.002C17.995,7.449,17.548,7.002,16.996,7.002z M15.996,11h-1.615
		c-0.205,0.898-0.68,1.691-1.334,2.297l0.784,1.357l-1.716,0.99l-0.782-1.354c-0.422,0.131-0.869,0.201-1.333,0.201
		c-0.465,0-0.912-0.07-1.334-0.201l-0.781,1.354l-1.717-0.99l0.784-1.357C6.299,12.691,5.824,11.898,5.619,11H4.004V9h1.613
		C5.82,8.1,6.294,7.303,6.949,6.697L6.168,5.346l1.717-0.99l0.777,1.346C9.085,5.568,9.534,5.498,10,5.498s0.915,0.07,1.338,0.201
		l0.777-1.344l1.716,0.99l-0.78,1.352C13.705,7.303,14.18,8.1,14.383,9h1.613V11z"/>
	<circle fill="#FFFFFF" cx="10.005" cy="9.99" r="2"/>
</g>
</svg>
