<?xml version="1.0" encoding="utf-8"?>
<!-- Generator: Adobe Illustrator 16.0.0, SVG Export Plug-In . SVG Version: 6.00 Build 0)  -->
<!DOCTYPE svg PUBLIC "-//W3C//DTD SVG 1.1//EN" "http://www.w3.org/Graphics/SVG/1.1/DTD/svg11.dtd">
<svg version="1.1" id="Layer_1" xmlns="http://www.w3.org/2000/svg" xmlns:xlink="http://www.w3.org/1999/xlink" x="0px" y="0px"
	 width="35px" height="35px" viewBox="0 0 35 35" enable-background="new 0 0 35 35" xml:space="preserve">
<g id="회사" display="none">
	<g display="inline">
		<rect x="25.5" y="13.5" fill="#231F20" width="2" height="2"/>
		<rect x="25.5" y="19.5" fill="#231F20" width="2" height="2"/>
		<rect x="25.5" y="25.5" fill="#231F20" width="2" height="2"/>
		<rect x="13.5" y="13.5" fill="#231F20" width="2" height="2"/>
		<rect x="13.5" y="19.5" fill="#231F20" width="2" height="2"/>
		<rect x="7.5" y="13.5" fill="#231F20" width="2" height="2"/>
		<rect x="13.5" y="7.5" fill="#231F20" width="2" height="2"/>
		<rect x="7.5" y="7.5" fill="#231F20" width="2" height="2"/>
		<rect x="7.5" y="19.5" fill="#231F20" width="2" height="2"/>
		<path fill="#231F20" d="M31.5,7.5h-10v-4c0-1.105-0.895-2-2-2h-16c-1.105,0-2,0.895-2,2v28c0,1.105,0.895,2,2,2h16h12
			c1.105,0,2-0.895,2-2v-22C33.5,8.395,32.605,7.5,31.5,7.5z M12.5,31.5h-2v-4h2V31.5z M19.5,31.5h-5v-5c0-0.553-0.447-1-1-1h-4
			c-0.553,0-1,0.447-1,1v5h-4c-0.553,0-1-0.447-1-1v-26c0-0.553,0.447-1,1-1h14c0.553,0,1,0.447,1,1V31.5z M31.5,30.5
			c0,0.553-0.447,1-1,1h-9v-22h9c0.553,0,1,0.447,1,1V30.5z"/>
	</g>
</g>
<g id="컨택내용" display="none">
	<g display="inline">
		<path fill="#231F20" d="M31.5,1.5h-28c-1.105,0-2,0.895-2,2v20c0,1.105,0.895,2,2,2h4v7c0,0.404,0.243,0.77,0.617,0.924
			C8.241,33.477,8.371,33.5,8.5,33.5c0.26,0,0.516-0.102,0.707-0.293l7.707-7.707H31.5c1.105,0,2-0.895,2-2v-20
			C33.5,2.395,32.605,1.5,31.5,1.5z M31.5,22.5c0,0.553-0.447,1-1,1c0,0-12.594,0-13.547,0c-0.953,0-1.703,0.75-1.703,0.75
			L9.5,30.001V24.5c0-0.553-0.447-1-1-1h-4c-0.553,0-1-0.447-1-1v-18c0-0.553,0.447-1,1-1h26c0.553,0,1,0.447,1,1V22.5z"/>
		<path fill="#231F20" d="M10.5,10.5h6c0.553,0,1-0.447,1-1s-0.447-1-1-1h-6c-0.553,0-1,0.447-1,1S9.947,10.5,10.5,10.5z"/>
		<path fill="#231F20" d="M24.5,12.5h-14c-0.553,0-1,0.447-1,1s0.447,1,1,1h14c0.553,0,1-0.447,1-1S25.053,12.5,24.5,12.5z"/>
		<path fill="#231F20" d="M20.5,16.5h-10c-0.553,0-1,0.447-1,1s0.447,1,1,1h10c0.553,0,1-0.447,1-1S21.053,16.5,20.5,16.5z"/>
	</g>
</g>
<g id="잡재영업기회_x5D_" display="none">
	<path display="inline" fill="#231F20" d="M33.207,11.792l-10-10c-0.391-0.391-1.023-0.391-1.414,0l-3.781,3.781
		C17.845,5.531,17.675,5.5,17.5,5.5h-10c-0.979,0-1.813,0.707-1.973,1.672l-4,24.001c-0.105,0.638,0.102,1.285,0.559,1.742
		C2.465,33.293,2.975,33.5,3.5,33.5c0.109,0,0.219-0.01,0.328-0.027l24-4c0.965-0.16,1.672-0.994,1.672-1.973v-10
		c0-0.175-0.031-0.346-0.075-0.512l3.782-3.782C33.598,12.816,33.598,12.183,33.207,11.792z M27.5,27.5L5.197,31.218l10.011-10.011
		c0.003-0.003,0.003-0.007,0.006-0.009c0.392,0.188,0.824,0.301,1.286,0.301c1.654,0,3-1.347,3-3c0-1.654-1.346-3-3-3
		c-1.654,0-3,1.346-3,3c0,0.463,0.114,0.896,0.303,1.289c-0.003,0.002-0.006,0.002-0.009,0.005L3.783,29.805L7.5,7.5h10l10,10.001
		V27.5z M15.5,18.5c0-0.552,0.448-1,1-1s1,0.448,1,1s-0.448,1-1,1S15.5,19.051,15.5,18.5z M28.207,15.378l-8.586-8.586L22.5,3.914
		l8.586,8.586L28.207,15.378z"/>
</g>
<g id="영업기회" display="none">
	<g display="inline">
		<g>
			
				<path fill="none" stroke="#414142" stroke-width="1.5" stroke-linecap="round" stroke-linejoin="round" stroke-miterlimit="10" d="
				M3.723,32.607h27.554c0,0,0-21.275-13.777-21.276C3.723,11.331,3.723,32.607,3.723,32.607z"/>
			
				<polygon fill="none" stroke="#414142" stroke-width="1.5" stroke-linecap="round" stroke-linejoin="round" stroke-miterlimit="10" points="
				17.499,9.979 10.991,2.393 24.504,2.393 			"/>
			
				<polyline fill="none" stroke="#414142" stroke-width="1.5" stroke-linecap="round" stroke-linejoin="round" stroke-miterlimit="10" points="
				21.383,18.172 14.012,18.172 14.012,22.357 21.338,22.357 21.338,26.543 14.187,26.543 			"/>
			
				<line fill="none" stroke="#414142" stroke-width="1.5" stroke-linecap="round" stroke-linejoin="round" stroke-miterlimit="10" x1="17.675" y1="18.172" x2="17.675" y2="15.295"/>
			
				<line fill="none" stroke="#414142" stroke-width="1.5" stroke-linecap="round" stroke-linejoin="round" stroke-miterlimit="10" x1="17.675" y1="26.543" x2="17.675" y2="29.641"/>
		</g>
	</g>
</g>
<g id="이슈" display="none">
	<path display="inline" fill="#231F20" d="M26.77,33.497c-0.166,0-0.332-0.041-0.483-0.125L17.5,28.514l-8.785,4.857
		c-0.335,0.188-0.748,0.163-1.061-0.059c-0.313-0.221-0.473-0.601-0.411-0.978l1.689-10.353l-7.146-7.329
		c-0.262-0.269-0.352-0.66-0.232-1.016c0.12-0.356,0.427-0.614,0.797-0.671l9.837-1.503l4.407-9.389
		C16.76,1.723,17.113,1.5,17.5,1.5s0.74,0.224,0.904,0.575l4.408,9.389l9.836,1.503c0.371,0.057,0.679,0.315,0.797,0.671
		c0.119,0.356,0.029,0.747-0.231,1.016l-7.146,7.329l1.688,10.353c0.062,0.377-0.099,0.757-0.411,0.978
		C27.174,33.436,26.973,33.497,26.77,33.497z M17.5,26.371c0.167,0,0.333,0.042,0.484,0.125l7.467,4.129l-1.439-8.816
		c-0.051-0.313,0.051-0.632,0.271-0.858l6.141-6.297l-8.441-1.289c-0.328-0.05-0.611-0.262-0.754-0.563L17.5,4.856l-3.729,7.943
		c-0.142,0.302-0.425,0.514-0.754,0.563l-8.441,1.289l6.141,6.297c0.222,0.228,0.322,0.546,0.271,0.858l-1.439,8.816l7.467-4.129
		C17.167,26.413,17.333,26.371,17.5,26.371z"/>
</g>
<g id="고객만족도" display="none">
	<g display="inline">
		<path fill="#010101" d="M19.5,1.5c-0.553,0-1,0.447-1,1v14h14c0.553,0,1-0.447,1-1C33.5,7.768,27.232,1.5,19.5,1.5z M20.5,14.5
			V3.551C26.327,4.033,30.968,8.673,31.449,14.5H20.5z"/>
		<path fill="#010101" d="M28.5,18.5h-12v-12c0-0.553-0.447-1-1-1c-7.732,0-14,6.268-14,14c0,7.732,6.268,14,14,14
			c7.732,0,14-6.268,14-14C29.5,18.947,29.053,18.5,28.5,18.5z M15.5,31.5c-6.627,0-12-5.373-12-12c0-6.289,4.842-11.439,11-11.949
			V19.5c0,0.553,0.447,1,1,1h11.949C26.939,26.658,21.789,31.5,15.5,31.5z"/>
	</g>
</g>
<g id="파트너협업" display="none">
	<g display="inline">
		<path fill="#231F20" d="M20.5,1.5c-7.18,0-13,5.82-13,13v11.586l-5.707,5.707c-0.391,0.391-0.391,1.023,0,1.414
			C1.988,33.402,2.244,33.5,2.5,33.5s0.512-0.098,0.707-0.293L8.914,27.5H20.5c7.18,0,13-5.82,13-13v-13H20.5z M31.5,14.5
			c0,6.075-4.925,11-11,11h-11v-11c0-6.075,4.925-11,11-11h11V14.5z"/>
		<path fill="#231F20" d="M19.5,8.5v5.586l-4,4V12.5c0-0.553-0.447-1-1-1s-1,0.447-1,1v7.586l-1.707,1.707
			c-0.391,0.391-0.391,1.023,0,1.414c0.195,0.195,0.451,0.293,0.707,0.293s0.512-0.098,0.707-0.293l1.707-1.707H22.5
			c0.553,0,1-0.447,1-1s-0.447-1-1-1h-5.586l4-4H26.5c0.553,0,1-0.447,1-1s-0.447-1-1-1h-3.586l6.293-6.293
			c0.391-0.391,0.391-1.023,0-1.414s-1.023-0.391-1.414,0L21.5,12.086V8.5c0-0.553-0.447-1-1-1S19.5,7.947,19.5,8.5z"/>
	</g>
</g>
<g id="사업전략" display="none">
	<path display="inline" fill="#231F20" d="M31.5,1.5h-28c-1.105,0-2,0.895-2,2v28c0,1.105,0.895,2,2,2h28c1.105,0,2-0.895,2-2
		V17.481v-0.002V3.5C33.5,2.395,32.605,1.5,31.5,1.5z M4.5,3.5h26c0.553,0,1,0.447,1,1v13.277l-9.154-5.232
		c0.09-0.335,0.154-0.681,0.154-1.045c0-2.209-1.791-4-4-4s-4,1.791-4,4c0,0.74,0.215,1.425,0.565,2.02L3.5,25.086V4.5
		C3.5,3.947,3.947,3.5,4.5,3.5z M16.5,11.5c0-1.104,0.896-2,2-2c1.104,0,2,0.896,2,2s-0.896,2-2,2
		C17.396,13.5,16.5,12.604,16.5,11.5z M30.5,31.5h-26c-0.553,0-1-0.447-1-1v-2.586l12.979-12.98c0.595,0.352,1.28,0.566,2.021,0.566
		c1.124,0,2.137-0.467,2.861-1.213L31.5,20.08V30.5C31.5,31.053,31.053,31.5,30.5,31.5z"/>
</g>
<g id="일정관리" display="none">
	<g display="inline">
		<path fill="#231F20" d="M31.5,3.5h-5v-1c0-0.553-0.447-1-1-1s-1,0.447-1,1v1h-14v-1c0-0.553-0.447-1-1-1s-1,0.447-1,1v1h-5
			c-1.105,0-2,0.895-2,2v26c0,1.105,0.895,2,2,2h28c1.105,0,2-0.895,2-2v-26C33.5,4.395,32.605,3.5,31.5,3.5z M31.5,30.5
			c0,0.553-0.447,1-1,1h-26c-0.553,0-1-0.447-1-1v-19h28V30.5z M31.5,9.5h-28v-3c0-0.553,0.447-1,1-1h4v1c0,0.553,0.447,1,1,1
			s1-0.447,1-1v-1h14v1c0,0.553,0.447,1,1,1s1-0.447,1-1v-1h4c0.553,0,1,0.447,1,1V9.5z"/>
		<path fill="#231F20" d="M9.5,17.5h2c0.553,0,1-0.447,1-1s-0.447-1-1-1h-2c-0.553,0-1,0.447-1,1S8.947,17.5,9.5,17.5z"/>
		<path fill="#231F20" d="M23.5,17.5h2c0.553,0,1-0.447,1-1s-0.447-1-1-1h-2c-0.553,0-1,0.447-1,1S22.947,17.5,23.5,17.5z"/>
		<path fill="#231F20" d="M16.5,17.5h2c0.553,0,1-0.447,1-1s-0.447-1-1-1h-2c-0.553,0-1,0.447-1,1S15.947,17.5,16.5,17.5z"/>
		<path fill="#231F20" d="M9.5,22.5h2c0.553,0,1-0.447,1-1s-0.447-1-1-1h-2c-0.553,0-1,0.447-1,1S8.947,22.5,9.5,22.5z"/>
		<path fill="#231F20" d="M23.5,22.5h2c0.553,0,1-0.447,1-1s-0.447-1-1-1h-2c-0.553,0-1,0.447-1,1S22.947,22.5,23.5,22.5z"/>
		<path fill="#231F20" d="M16.5,22.5h2c0.553,0,1-0.447,1-1s-0.447-1-1-1h-2c-0.553,0-1,0.447-1,1S15.947,22.5,16.5,22.5z"/>
		<path fill="#231F20" d="M9.5,27.5h2c0.553,0,1-0.447,1-1s-0.447-1-1-1h-2c-0.553,0-1,0.447-1,1S8.947,27.5,9.5,27.5z"/>
		<path fill="#231F20" d="M16.5,27.5h2c0.553,0,1-0.447,1-1s-0.447-1-1-1h-2c-0.553,0-1,0.447-1,1S15.947,27.5,16.5,27.5z"/>
	</g>
</g>
<g id="추가" display="none">
	<g display="inline">
		<path fill="#666666" d="M30.165,19.45H19.561v10.56H15.5V19.45H4.835v-4.02H15.5V4.99h4.061v10.44h10.604V19.45z"/>
	</g>
</g>
<g>
	<path fill-rule="evenodd" clip-rule="evenodd" fill="#FFFFFF" d="M7.499,17.501c0-0.553-0.447-1-1-1h-4c-0.553,0-1,0.447-1,1
		s0.447,1,1,1h4C7.052,18.501,7.499,18.054,7.499,17.501z"/>
	<path fill-rule="evenodd" clip-rule="evenodd" fill="#FFFFFF" d="M6.795,23.018l0.924-0.383c0.511-0.212,0.753-0.796,0.542-1.306
		c-0.212-0.512-0.797-0.754-1.307-0.541L6.03,21.17c-0.511,0.211-0.754,0.795-0.542,1.306S6.284,23.229,6.795,23.018z"/>
	<path fill-rule="evenodd" clip-rule="evenodd" fill="#FFFFFF" d="M13.674,26.74c-0.511-0.212-1.097,0.03-1.307,0.541l-0.383,0.924
		c-0.212,0.511,0.029,1.096,0.54,1.306c0.511,0.212,1.096-0.029,1.308-0.54l0.382-0.923C14.425,27.536,14.184,26.951,13.674,26.74z"
		/>
	<path fill-rule="evenodd" clip-rule="evenodd" fill="#FFFFFF" d="M22.634,27.282c-0.211-0.512-0.797-0.754-1.307-0.543
		s-0.754,0.797-0.541,1.307l0.383,0.924c0.212,0.511,0.795,0.754,1.305,0.541c0.512-0.211,0.754-0.795,0.543-1.307L22.634,27.282z"
		/>
	<path fill-rule="evenodd" clip-rule="evenodd" fill="#FFFFFF" d="M28.97,21.167l-0.922-0.381c-0.512-0.213-1.098,0.031-1.309,0.541
		c-0.212,0.51,0.031,1.096,0.541,1.307l0.924,0.383c0.512,0.211,1.096-0.029,1.305-0.541C29.723,21.965,29.481,21.38,28.97,21.167z"
		/>
	<path fill-rule="evenodd" clip-rule="evenodd" fill="#FFFFFF" d="M28.203,11.982l-0.921,0.382
		c-0.513,0.212-0.754,0.799-0.543,1.309c0.209,0.51,0.797,0.752,1.307,0.541l0.924-0.383c0.511-0.211,0.754-0.795,0.539-1.305
		C29.3,12.015,28.716,11.771,28.203,11.982z"/>
	<path fill-rule="evenodd" clip-rule="evenodd" fill="#FFFFFF" d="M21.327,8.261c0.508,0.213,1.095-0.032,1.306-0.542l0.383-0.924
		c0.212-0.511-0.028-1.095-0.542-1.304c-0.509-0.214-1.095,0.026-1.307,0.539l-0.382,0.921C20.573,7.464,20.817,8.05,21.327,8.261z"
		/>
	<path fill-rule="evenodd" clip-rule="evenodd" fill="#FFFFFF" d="M12.364,7.718c0.213,0.512,0.799,0.754,1.309,0.543
		c0.51-0.209,0.752-0.797,0.539-1.307L13.83,6.029c-0.21-0.511-0.794-0.753-1.306-0.538c-0.51,0.209-0.754,0.793-0.541,1.305
		L12.364,7.718z"/>
	<path fill-rule="evenodd" clip-rule="evenodd" fill="#FFFFFF" d="M6.03,13.831l0.922,0.383c0.512,0.211,1.098-0.031,1.309-0.541
		c0.213-0.508-0.031-1.096-0.543-1.305l-0.924-0.385c-0.51-0.213-1.094,0.029-1.305,0.543C5.278,13.034,5.519,13.62,6.03,13.831z"/>
	<path fill-rule="evenodd" clip-rule="evenodd" fill="#FFFFFF" d="M9.015,24.571L6.186,27.4c-0.391,0.392-0.391,1.023,0,1.414
		c0.392,0.392,1.024,0.392,1.415,0.001l2.828-2.828c0.391-0.391,0.391-1.023,0-1.416C10.038,24.181,9.405,24.181,9.015,24.571z"/>
	<path fill-rule="evenodd" clip-rule="evenodd" fill="#FFFFFF" d="M17.5,27.501c-0.553,0-1,0.446-1,1l-0.001,4c0,0.553,0.447,1,1,1
		c0.555,0,1.002-0.447,1.002-1v-4C18.501,27.948,18.054,27.501,17.5,27.501z"/>
	<path fill-rule="evenodd" clip-rule="evenodd" fill="#FFFFFF" d="M25.986,24.57c-0.391-0.391-1.023-0.391-1.415,0.001
		c-0.391,0.391-0.392,1.022,0,1.414l2.828,2.83c0.391,0.391,1.023,0.391,1.414,0c0.393-0.393,0.393-1.025,0.002-1.416L25.986,24.57z
		"/>
	<path fill-rule="evenodd" clip-rule="evenodd" fill="#FFFFFF" d="M32.501,16.499H28.5c-0.553,0-1,0.446-1,1.002
		c0.001,0.551,0.446,0.998,1,1h4.001c0.553,0,1-0.447,1-1C33.501,16.946,33.054,16.499,32.501,16.499z"/>
	<path fill-rule="evenodd" clip-rule="evenodd" fill="#FFFFFF" d="M25.985,10.429l2.83-2.828c0.391-0.391,0.391-1.023-0.001-1.415
		s-1.024-0.392-1.415-0.001l-2.83,2.828c-0.391,0.391-0.391,1.023,0.002,1.416C24.962,10.817,25.593,10.819,25.985,10.429z"/>
	<path fill-rule="evenodd" clip-rule="evenodd" fill="#FFFFFF" d="M17.5,7.501c0.551-0.002,0.998-0.448,1-1l0.001-4.002
		c0-0.553-0.447-1-1.002-1c-0.553,0-1,0.447-1,1l-0.002,4C16.497,7.052,16.944,7.499,17.5,7.501z"/>
	<path fill-rule="evenodd" clip-rule="evenodd" fill="#FFFFFF" d="M9.012,10.43c0.391,0.391,1.022,0.392,1.417-0.001
		c0.389-0.391,0.389-1.021,0-1.414l-2.828-2.83C7.21,5.794,6.577,5.794,6.185,6.187c-0.391,0.391-0.391,1.023,0,1.414L9.012,10.43z"
		/>
	<path fill-rule="evenodd" clip-rule="evenodd" fill="#FFFFFF" d="M17.499,8.501c-4.971,0-9,4.029-9,9s4.029,9,9,9s9-4.029,9-9
		S22.47,8.501,17.499,8.501z M17.499,24.501c-3.866,0-7-3.134-7-7s3.134-7,7-7s7,3.134,7,7S21.365,24.501,17.499,24.501z"/>
</g>
</svg>
