<?xml version="1.0" encoding="utf-8"?>
<!-- Generator: Adobe Illustrator 16.0.0, SVG Export Plug-In . SVG Version: 6.00 Build 0)  -->
<!DOCTYPE svg PUBLIC "-//W3C//DTD SVG 1.1//EN" "http://www.w3.org/Graphics/SVG/1.1/DTD/svg11.dtd">
<svg version="1.1" xmlns="http://www.w3.org/2000/svg" xmlns:xlink="http://www.w3.org/1999/xlink" x="0px" y="0px" width="35px"
	 height="35px" viewBox="0 0 35 35" enable-background="new 0 0 35 35" xml:space="preserve">
<g id="개인">
	<g>
		<path fill="#FFFFFF" d="M31.5,25.255c-4.119-2.384-8.898-3.755-14-3.755s-9.881,1.371-14,3.755c0,0-2,0.979-2,2.745v3.5
			c0,1.105,0.895,2,2,2h28c1.105,0,2-0.895,2-2V28C33.5,26.156,31.5,25.255,31.5,25.255z M17.5,23.5c2.06,0,4.057,0.254,5.978,0.708
			C21.888,25.628,19.8,26.5,17.5,26.5s-4.388-0.873-5.979-2.293C13.442,23.754,15.44,23.5,17.5,23.5z M31.5,30.5
			c0,0.553-0.447,1-1,1h-26c-0.553,0-1-0.447-1-1v-2c0-1,0.5-1.218,0.754-1.369c1.586-0.941,3.285-1.71,5.064-2.301
			c2.013,2.247,4.927,3.67,8.182,3.67c3.253,0,6.158-1.427,8.171-3.673c1.799,0.598,3.516,1.375,5.117,2.329
			C31.028,27.299,31.5,27.5,31.5,28.5V30.5z"/>
		<path fill="#FFFFFF" d="M17.5,19.5c3.866,0,7-3.134,7-7v-5c0-3.313-2.687-6-6-6h-2c-3.313,0-6,2.687-6,6v5
			C10.5,16.366,13.634,19.5,17.5,19.5z M16.5,3.5h2c2.209,0,4,1.791,4,4h-10C12.5,5.291,14.291,3.5,16.5,3.5z M12.5,9.5h10v3
			c0,2.762-2.238,5-5,5s-5-2.238-5-5V9.5z"/>
	</g>
</g>
<g id="회사" display="none">
	<g display="inline">
		<rect x="25.5" y="13.5" fill="#231F20" width="2" height="2"/>
		<rect x="25.5" y="19.5" fill="#231F20" width="2" height="2"/>
		<rect x="25.5" y="25.5" fill="#231F20" width="2" height="2"/>
		<rect x="13.5" y="13.5" fill="#231F20" width="2" height="2"/>
		<rect x="13.5" y="19.5" fill="#231F20" width="2" height="2"/>
		<rect x="7.5" y="13.5" fill="#231F20" width="2" height="2"/>
		<rect x="13.5" y="7.5" fill="#231F20" width="2" height="2"/>
		<rect x="7.5" y="7.5" fill="#231F20" width="2" height="2"/>
		<rect x="7.5" y="19.5" fill="#231F20" width="2" height="2"/>
		<path fill="#231F20" d="M31.5,7.5h-10v-4c0-1.105-0.895-2-2-2h-16c-1.105,0-2,0.895-2,2v28c0,1.105,0.895,2,2,2h16h12
			c1.105,0,2-0.895,2-2v-22C33.5,8.395,32.605,7.5,31.5,7.5z M12.5,31.5h-2v-4h2V31.5z M19.5,31.5h-5v-5c0-0.553-0.447-1-1-1h-4
			c-0.553,0-1,0.447-1,1v5h-4c-0.553,0-1-0.447-1-1v-26c0-0.553,0.447-1,1-1h14c0.553,0,1,0.447,1,1V31.5z M31.5,30.5
			c0,0.553-0.447,1-1,1h-9v-22h9c0.553,0,1,0.447,1,1V30.5z"/>
	</g>
</g>
<g id="컨택내용" display="none">
	<g display="inline">
		<path fill="#231F20" d="M31.5,1.5h-28c-1.105,0-2,0.895-2,2v20c0,1.105,0.895,2,2,2h4v7c0,0.404,0.243,0.77,0.617,0.924
			C8.241,33.476,8.371,33.5,8.5,33.5c0.26,0,0.516-0.102,0.707-0.293l7.707-7.707H31.5c1.105,0,2-0.895,2-2v-20
			C33.5,2.395,32.605,1.5,31.5,1.5z M31.5,22.5c0,0.553-0.447,1-1,1c0,0-12.594,0-13.547,0s-1.703,0.75-1.703,0.75L9.5,30.001V24.5
			c0-0.553-0.447-1-1-1h-4c-0.553,0-1-0.447-1-1v-18c0-0.553,0.447-1,1-1h26c0.553,0,1,0.447,1,1V22.5z"/>
		<path fill="#231F20" d="M10.5,10.5h6c0.553,0,1-0.447,1-1s-0.447-1-1-1h-6c-0.553,0-1,0.447-1,1S9.947,10.5,10.5,10.5z"/>
		<path fill="#231F20" d="M24.5,12.5h-14c-0.553,0-1,0.447-1,1s0.447,1,1,1h14c0.553,0,1-0.447,1-1S25.053,12.5,24.5,12.5z"/>
		<path fill="#231F20" d="M20.5,16.5h-10c-0.553,0-1,0.447-1,1s0.447,1,1,1h10c0.553,0,1-0.447,1-1S21.053,16.5,20.5,16.5z"/>
	</g>
</g>
<g id="잡재영업기회_x5D_" display="none">
	<path display="inline" fill="#231F20" d="M33.207,11.792l-10-10c-0.391-0.391-1.023-0.391-1.414,0l-3.782,3.781
		C17.845,5.531,17.675,5.5,17.5,5.5h-10c-0.979,0-1.813,0.707-1.973,1.672l-4,24.001c-0.105,0.637,0.102,1.285,0.559,1.742
		C2.465,33.293,2.975,33.5,3.5,33.5c0.109,0,0.219-0.01,0.328-0.027l24-4c0.965-0.16,1.672-0.994,1.672-1.973v-10
		c0-0.175-0.031-0.346-0.075-0.512l3.782-3.782C33.598,12.816,33.598,12.183,33.207,11.792z M27.5,27.5L5.197,31.218l10.011-10.011
		c0.003-0.003,0.003-0.007,0.006-0.009c0.392,0.188,0.824,0.301,1.286,0.301c1.654,0,3-1.346,3-3s-1.346-3-3-3s-3,1.346-3,3
		c0,0.463,0.114,0.896,0.303,1.289c-0.003,0.002-0.006,0.002-0.009,0.005L3.783,29.804L7.5,7.5h10l10,10.001V27.5z M15.5,18.5
		c0-0.552,0.448-1,1-1s1,0.448,1,1s-0.448,1-1,1S15.5,19.051,15.5,18.5z M28.207,15.378l-8.586-8.586L22.5,3.914l8.586,8.586
		L28.207,15.378z"/>
</g>
<g id="영업기회" display="none">
	<g display="inline">
		<g>
			
				<path fill="none" stroke="#414142" stroke-width="1.5" stroke-linecap="round" stroke-linejoin="round" stroke-miterlimit="10" d="
				M3.723,32.607h27.555c0,0,0-21.275-13.778-21.276C3.723,11.331,3.723,32.607,3.723,32.607z"/>
			
				<polygon fill="none" stroke="#414142" stroke-width="1.5" stroke-linecap="round" stroke-linejoin="round" stroke-miterlimit="10" points="
				17.499,9.979 10.991,2.393 24.504,2.393 			"/>
			
				<polyline fill="none" stroke="#414142" stroke-width="1.5" stroke-linecap="round" stroke-linejoin="round" stroke-miterlimit="10" points="
				21.383,18.172 14.012,18.172 14.012,22.357 21.338,22.357 21.338,26.543 14.187,26.543 			"/>
			
				<line fill="none" stroke="#414142" stroke-width="1.5" stroke-linecap="round" stroke-linejoin="round" stroke-miterlimit="10" x1="17.675" y1="18.172" x2="17.675" y2="15.295"/>
			
				<line fill="none" stroke="#414142" stroke-width="1.5" stroke-linecap="round" stroke-linejoin="round" stroke-miterlimit="10" x1="17.675" y1="26.543" x2="17.675" y2="29.641"/>
		</g>
	</g>
</g>
<g id="이슈" display="none">
	<path display="inline" fill="#231F20" d="M26.77,33.497c-0.166,0-0.333-0.041-0.484-0.125L17.5,28.513l-8.785,4.858
		c-0.335,0.187-0.748,0.163-1.061-0.058s-0.473-0.601-0.411-0.978l1.689-10.353l-7.146-7.328c-0.262-0.269-0.352-0.66-0.232-1.016
		s0.427-0.614,0.797-0.671l9.837-1.503l4.407-9.389c0.165-0.352,0.518-0.575,0.905-0.575s0.74,0.224,0.905,0.575l4.407,9.389
		l9.837,1.503c0.37,0.057,0.678,0.315,0.797,0.671s0.029,0.747-0.232,1.016l-7.146,7.328l1.689,10.353
		c0.062,0.377-0.099,0.757-0.411,0.978C27.174,33.435,26.972,33.497,26.77,33.497z M17.5,26.371c0.167,0,0.333,0.042,0.484,0.125
		l7.467,4.129l-1.439-8.816c-0.051-0.313,0.05-0.632,0.271-0.859l6.141-6.297l-8.441-1.289c-0.329-0.05-0.612-0.262-0.754-0.563
		L17.5,4.856l-3.729,7.943c-0.142,0.302-0.425,0.514-0.754,0.563l-8.441,1.289l6.141,6.297c0.222,0.228,0.322,0.546,0.271,0.859
		l-1.439,8.816l7.467-4.129C17.167,26.413,17.333,26.371,17.5,26.371z"/>
</g>
<g id="고객만족도" display="none">
	<g display="inline">
		<path fill="#010101" d="M19.5,1.5c-0.553,0-1,0.447-1,1v14h14c0.553,0,1-0.447,1-1C33.5,7.768,27.232,1.5,19.5,1.5z M20.5,14.5
			V3.551C26.327,4.033,30.968,8.673,31.449,14.5H20.5z"/>
		<path fill="#010101" d="M28.5,18.5h-12v-12c0-0.553-0.447-1-1-1c-7.732,0-14,6.268-14,14s6.268,14,14,14s14-6.268,14-14
			C29.5,18.947,29.053,18.5,28.5,18.5z M15.5,31.5c-6.627,0-12-5.373-12-12c0-6.289,4.842-11.439,11-11.949V19.5
			c0,0.553,0.447,1,1,1h11.949C26.94,26.658,21.789,31.5,15.5,31.5z"/>
	</g>
</g>
<g id="파트너협업" display="none">
	<g display="inline">
		<path fill="#231F20" d="M20.5,1.5c-7.18,0-13,5.82-13,13v11.586l-5.707,5.707c-0.391,0.391-0.391,1.023,0,1.414
			C1.988,33.402,2.244,33.5,2.5,33.5s0.512-0.098,0.707-0.293L8.914,27.5H20.5c7.18,0,13-5.82,13-13v-13H20.5z M31.5,14.5
			c0,6.075-4.925,11-11,11h-11v-11c0-6.075,4.925-11,11-11h11V14.5z"/>
		<path fill="#231F20" d="M19.5,8.5v5.586l-4,4V12.5c0-0.553-0.447-1-1-1s-1,0.447-1,1v7.586l-1.707,1.707
			c-0.391,0.391-0.391,1.023,0,1.414c0.195,0.195,0.451,0.293,0.707,0.293s0.512-0.098,0.707-0.293l1.707-1.707H22.5
			c0.553,0,1-0.447,1-1s-0.447-1-1-1h-5.586l4-4H26.5c0.553,0,1-0.447,1-1s-0.447-1-1-1h-3.586l6.293-6.293
			c0.391-0.391,0.391-1.023,0-1.414s-1.023-0.391-1.414,0L21.5,12.086V8.5c0-0.553-0.447-1-1-1S19.5,7.947,19.5,8.5z"/>
	</g>
</g>
<g id="사업전략" display="none">
	<path display="inline" fill="#231F20" d="M31.5,1.5h-28c-1.105,0-2,0.895-2,2v28c0,1.105,0.895,2,2,2h28c1.105,0,2-0.895,2-2
		V17.481v-0.002V3.5C33.5,2.395,32.605,1.5,31.5,1.5z M4.5,3.5h26c0.553,0,1,0.447,1,1v13.277l-9.155-5.232
		C22.436,12.21,22.5,11.864,22.5,11.5c0-2.209-1.791-4-4-4s-4,1.791-4,4c0,0.74,0.215,1.425,0.565,2.02L3.5,25.086V4.5
		C3.5,3.947,3.947,3.5,4.5,3.5z M16.5,11.5c0-1.104,0.896-2,2-2s2,0.896,2,2s-0.896,2-2,2S16.5,12.604,16.5,11.5z M30.5,31.5h-26
		c-0.553,0-1-0.447-1-1v-2.586l12.979-12.98c0.595,0.352,1.28,0.566,2.021,0.566c1.124,0,2.136-0.467,2.862-1.213L31.5,20.08V30.5
		C31.5,31.053,31.053,31.5,30.5,31.5z"/>
</g>
<g id="일정관리" display="none">
	<g display="inline">
		<path fill="#231F20" d="M31.5,3.5h-5v-1c0-0.553-0.447-1-1-1s-1,0.447-1,1v1h-14v-1c0-0.553-0.447-1-1-1s-1,0.447-1,1v1h-5
			c-1.105,0-2,0.895-2,2v26c0,1.105,0.895,2,2,2h28c1.105,0,2-0.895,2-2v-26C33.5,4.395,32.605,3.5,31.5,3.5z M31.5,30.5
			c0,0.553-0.447,1-1,1h-26c-0.553,0-1-0.447-1-1v-19h28V30.5z M31.5,9.5h-28v-3c0-0.553,0.447-1,1-1h4v1c0,0.553,0.447,1,1,1
			s1-0.447,1-1v-1h14v1c0,0.553,0.447,1,1,1s1-0.447,1-1v-1h4c0.553,0,1,0.447,1,1V9.5z"/>
		<path fill="#231F20" d="M9.5,17.5h2c0.553,0,1-0.447,1-1s-0.447-1-1-1h-2c-0.553,0-1,0.447-1,1S8.947,17.5,9.5,17.5z"/>
		<path fill="#231F20" d="M23.5,17.5h2c0.553,0,1-0.447,1-1s-0.447-1-1-1h-2c-0.553,0-1,0.447-1,1S22.947,17.5,23.5,17.5z"/>
		<path fill="#231F20" d="M16.5,17.5h2c0.553,0,1-0.447,1-1s-0.447-1-1-1h-2c-0.553,0-1,0.447-1,1S15.947,17.5,16.5,17.5z"/>
		<path fill="#231F20" d="M9.5,22.5h2c0.553,0,1-0.447,1-1s-0.447-1-1-1h-2c-0.553,0-1,0.447-1,1S8.947,22.5,9.5,22.5z"/>
		<path fill="#231F20" d="M23.5,22.5h2c0.553,0,1-0.447,1-1s-0.447-1-1-1h-2c-0.553,0-1,0.447-1,1S22.947,22.5,23.5,22.5z"/>
		<path fill="#231F20" d="M16.5,22.5h2c0.553,0,1-0.447,1-1s-0.447-1-1-1h-2c-0.553,0-1,0.447-1,1S15.947,22.5,16.5,22.5z"/>
		<path fill="#231F20" d="M9.5,27.5h2c0.553,0,1-0.447,1-1s-0.447-1-1-1h-2c-0.553,0-1,0.447-1,1S8.947,27.5,9.5,27.5z"/>
		<path fill="#231F20" d="M16.5,27.5h2c0.553,0,1-0.447,1-1s-0.447-1-1-1h-2c-0.553,0-1,0.447-1,1S15.947,27.5,16.5,27.5z"/>
	</g>
</g>
<g id="추가" display="none">
	<g display="inline">
		<path fill="#666666" d="M30.165,19.45H19.561V30.01H15.5V19.45H4.835v-4.02H15.5V4.99h4.061v10.44h10.604V19.45z"/>
	</g>
</g>
</svg>
